<svg width="89" height="77" viewBox="0 0 89 77" fill="none" xmlns="http://www.w3.org/2000/svg">
<path d="M43.8541 29.173L87.0395 51.8877L43.8541 76.9064L2.97546 53.425L43.8541 29.173Z" fill="#027FD2"/>
<path d="M44.7922 55.1881L14.6522 37.7868V17.1721L44.7922 34.5748V55.1881Z" fill="#564943"/>
<path d="M44.7922 61.2336V69.3776L14.6522 51.9762V43.8322L44.7922 61.2336Z" fill="#BF931C"/>
<path d="M17.7583 48.7636L14.7637 47.0343V44.8036L17.7583 46.5329V48.7636Z" fill="#8B3E02"/>
<path d="M20.8964 50.5748L17.9017 48.8455V46.6148L20.8964 48.3442V50.5748Z" fill="#8B3E02"/>
<path d="M24.0339 52.386L21.0392 50.6567V48.426L24.0339 50.1553V52.386Z" fill="#8B3E02"/>
<path d="M27.1158 54.166L24.1211 52.4367V50.206L27.1158 51.934V54.166Z" fill="#8B3E02"/>
<path d="M30.2531 55.9772L27.2584 54.2478V52.0172L30.2531 53.7465V55.9772Z" fill="#8B3E02"/>
<path d="M33.3905 57.7884L30.3959 56.0591V53.8284L33.3905 55.5577V57.7884Z" fill="#8B3E02"/>
<path d="M36.5286 59.6008L33.5339 57.8715V55.6395L36.5286 57.3688V59.6008Z" fill="#8B3E02"/>
<path d="M39.6667 61.412L36.672 59.6827V57.452L39.6667 59.1813V61.412Z" fill="#8B3E02"/>
<path d="M42.804 63.2232L39.8093 61.4939V59.2632L42.804 60.9925V63.2232Z" fill="#8B3E02"/>
<path d="M44.7923 62.1399V64.3719L42.9163 63.2879V61.0572L44.7923 62.1399Z" fill="#8B3E02"/>
<path d="M17.7583 53.5513L14.7637 51.822V49.5913L17.7583 51.3193V53.5513Z" fill="#8B3E02"/>
<path d="M20.8964 55.3625L17.9017 53.6332V51.4025L20.8964 53.1319V55.3625Z" fill="#8B3E02"/>
<path d="M24.0339 57.1737L21.0392 55.4444V53.2137L24.0339 54.943V57.1737Z" fill="#8B3E02"/>
<path d="M27.1158 58.9537L24.1211 57.2244V54.9924L27.1158 56.7217V58.9537Z" fill="#8B3E02"/>
<path d="M30.2531 60.765L27.2584 59.0356V56.805L30.2531 58.5343V60.765Z" fill="#8B3E02"/>
<path d="M33.3905 62.5762L30.3959 60.8468V58.6162L33.3905 60.3455V62.5762Z" fill="#8B3E02"/>
<path d="M36.5286 64.3887L33.5339 62.6593V60.4273L36.5286 62.1567V64.3887Z" fill="#8B3E02"/>
<path d="M39.6667 66.1998L36.672 64.4705V62.2398L39.6667 63.9678V66.1998Z" fill="#8B3E02"/>
<path d="M42.804 68.011L39.8093 66.2817V64.051L42.804 65.7804V68.011Z" fill="#8B3E02"/>
<path d="M44.7923 66.9277V69.1597L42.9163 68.0757V65.8451L44.7923 66.9277Z" fill="#8B3E02"/>
<path d="M16.5812 50.4445L14.7639 49.3952V47.1645L16.5812 48.2139V50.4445Z" fill="#8B3E02"/>
<path d="M19.7187 52.2557L16.724 50.5264V48.2957L19.7187 50.0251V52.2557Z" fill="#8B3E02"/>
<path d="M22.8567 54.0682L19.8621 52.3389V50.1069L22.8567 51.8362V54.0682Z" fill="#8B3E02"/>
<path d="M25.938 55.8469L22.9434 54.1176V51.8869L25.938 53.6163V55.8469Z" fill="#8B3E02"/>
<path d="M44.7922 61.8821L14.6522 44.4795V37.7875L44.7922 55.1875V61.8821Z" fill="white"/>
<path d="M29.0761 57.6581L26.0814 55.9288V53.6981L29.0761 55.4275V57.6581Z" fill="#8B3E02"/>
<path d="M32.2134 59.4707L29.2188 57.7414V55.5094L32.2134 57.2387V59.4707Z" fill="#8B3E02"/>
<path d="M35.3514 61.2819L32.3567 59.5525V57.3219L35.3514 59.0499V61.2819Z" fill="#8B3E02"/>
<path d="M38.4889 63.0931L35.4943 61.3637V59.1331L38.4889 60.8624V63.0931Z" fill="#8B3E02"/>
<path d="M41.6269 64.9043L38.6322 63.175V60.9443L41.6269 62.6736V64.9043Z" fill="#8B3E02"/>
<path d="M44.7922 64.5005V66.7325L41.7389 64.9699V62.7379L44.7922 64.5005Z" fill="#8B3E02"/>
<path d="M44.7922 46.5696L14.6522 29.1669V26.4509L44.7922 43.8522V46.5696Z" fill="#FD7F22"/>
<path d="M25.4498 39.0879L19.6138 35.7186V33.2919L25.4498 36.6626V39.0879Z" fill="#FD7F22"/>
<path d="M37.2988 45.9277L31.4628 42.5597V40.1317L37.2988 43.5024V45.9277Z" fill="#FD7F22"/>
<path d="M44.7922 50.2545L42.3042 48.8185V46.3932L44.7922 47.8292V50.2545Z" fill="#FD7F22"/>
<path d="M18.0397 33.8359C18.0397 33.4226 17.845 32.9506 17.5584 32.5892C17.5837 32.5332 17.597 32.4639 17.597 32.3826C17.597 32.0452 17.069 31.4666 17.069 31.4666C17.069 31.4666 16.5397 31.4346 16.5397 31.7719C16.5397 31.8532 16.5544 31.9399 16.5797 32.0252C16.2917 32.0546 16.097 32.3026 16.097 32.7146C16.097 33.1919 16.357 33.7479 16.7197 34.1199C16.7104 34.1519 16.7037 34.1879 16.7037 34.2292C16.7037 34.4626 16.8677 34.7466 17.069 34.8626C17.2704 34.9786 17.4344 34.8852 17.4344 34.6519C17.4344 34.6106 17.4277 34.5652 17.417 34.5226C17.781 34.5706 18.0397 34.3132 18.0397 33.8359Z" fill="#FD7F22"/>
<path d="M29.4244 40.4095C29.4244 39.9948 29.2297 39.5241 28.943 39.1628C28.9684 39.1055 28.9817 39.0375 28.9817 38.9548C28.9817 38.6175 28.4537 38.0401 28.4537 38.0401C28.4537 38.0401 27.9244 38.0068 27.9244 38.3441C27.9244 38.4268 27.939 38.5121 27.9644 38.5988C27.6764 38.6268 27.483 38.8748 27.483 39.2881C27.483 39.7655 27.7417 40.3215 28.1057 40.6935C28.095 40.7255 28.0884 40.7615 28.0884 40.8028C28.0884 41.0361 28.2524 41.3201 28.4537 41.4361C28.655 41.5521 28.819 41.4575 28.819 41.2241C28.819 41.1828 28.8124 41.1388 28.8017 41.0961C29.1657 41.1441 29.4244 40.8855 29.4244 40.4095Z" fill="#FD7F22"/>
<path d="M40.7798 46.9654C40.7798 46.5508 40.5852 46.0801 40.2985 45.7188C40.3238 45.6614 40.3372 45.5934 40.3372 45.5108C40.3372 45.1734 39.8092 44.5961 39.8092 44.5961C39.8092 44.5961 39.2798 44.5628 39.2798 44.9001C39.2798 44.9828 39.2945 45.0681 39.3198 45.1548C39.0318 45.1828 38.8385 45.4308 38.8385 45.8441C38.8385 46.3214 39.0972 46.8774 39.4612 47.2494C39.4505 47.2814 39.4438 47.3174 39.4438 47.3588C39.4438 47.5921 39.6078 47.8761 39.8092 47.9921C40.0105 48.1081 40.1745 48.0134 40.1745 47.7801C40.1745 47.7388 40.1678 47.6948 40.1572 47.6521C40.5212 47.7001 40.7798 47.4414 40.7798 46.9654Z" fill="#FD7F22"/>
<path d="M44.6034 55.2532L74.7434 37.8518V17.2372L44.6034 34.6385V55.2532Z" fill="#201814"/>
<path d="M44.6034 61.2988V69.4415L74.7434 52.0415V43.8961L44.6034 61.2988Z" fill="#BF931C"/>
<path d="M71.6373 48.8287L74.632 47.0993V44.8673L71.6373 46.5967V48.8287Z" fill="#5D2503"/>
<path d="M68.4999 50.6399L71.4945 48.9106V46.6799L68.4999 48.4092V50.6399Z" fill="#5D2503"/>
<path d="M65.3619 52.451L68.3566 50.7217V48.491L65.3619 50.2204V52.451Z" fill="#5D2503"/>
<path d="M62.2804 54.2311L65.2751 52.5017V50.2697L62.2804 51.9991V54.2311Z" fill="#5D2503"/>
<path d="M59.1425 56.0422L62.1371 54.3129V52.0822L59.1425 53.8102V56.0422Z" fill="#5D2503"/>
<path d="M56.0051 57.8535L58.9998 56.1241V53.8935L56.0051 55.6228V57.8535Z" fill="#5D2503"/>
<path d="M52.8671 59.6646L55.8617 57.9366V55.7046L52.8671 57.4339V59.6646Z" fill="#5D2503"/>
<path d="M49.7296 61.4772L52.7243 59.7478V57.5158L49.7296 59.2452V61.4772Z" fill="#5D2503"/>
<path d="M46.5917 63.2884L49.5863 61.5591V59.3284L46.5917 61.0577V63.2884Z" fill="#5D2503"/>
<path d="M44.6034 62.2051V64.4371L46.4794 63.3531V61.1224L44.6034 62.2051Z" fill="#5D2503"/>
<path d="M71.6373 53.6165L74.632 51.8872V49.6552L71.6373 51.3845V53.6165Z" fill="#5D2503"/>
<path d="M68.4999 55.4277L71.4945 53.6984V51.4664L68.4999 53.1957V55.4277Z" fill="#5D2503"/>
<path d="M65.3619 57.239L68.3566 55.5096V53.279L65.3619 55.0083V57.239Z" fill="#5D2503"/>
<path d="M62.2804 59.0188L65.2751 57.2895V55.0575L62.2804 56.7868V59.0188Z" fill="#5D2503"/>
<path d="M59.1425 60.83L62.1371 59.1007V56.8687L59.1425 58.598V60.83Z" fill="#5D2503"/>
<path d="M56.0051 62.6412L58.9998 60.9118V58.6812L56.0051 60.4105V62.6412Z" fill="#5D2503"/>
<path d="M52.8671 64.4524L55.8617 62.7231V60.4924L52.8671 62.2217V64.4524Z" fill="#5D2503"/>
<path d="M49.7296 66.265L52.7243 64.5356V62.3036L49.7296 64.033V66.265Z" fill="#5D2503"/>
<path d="M46.5917 68.0761L49.5863 66.3468V64.1161L46.5917 65.8441V68.0761Z" fill="#5D2503"/>
<path d="M44.6034 66.9928V69.2248L46.4794 68.1408V65.9101L44.6034 66.9928Z" fill="#5D2503"/>
<path d="M72.8151 50.5098L74.6324 49.4604V47.2298L72.8151 48.2778V50.5098Z" fill="#5D2503"/>
<path d="M69.677 52.3209L72.6717 50.5916V48.3609L69.677 50.0903V52.3209Z" fill="#5D2503"/>
<path d="M66.5397 54.1321L69.5343 52.4028V50.1721L66.5397 51.9015V54.1321Z" fill="#5D2503"/>
<path d="M63.4575 55.912L66.4522 54.1827V51.9507L63.4575 53.68V55.912Z" fill="#5D2503"/>
<path d="M44.6034 61.9459L74.7434 44.5445V37.8525L44.6034 55.2525V61.9459Z" fill="#B0AFAF"/>
<path d="M60.3202 57.7232L63.3149 55.9939V53.7632L60.3202 55.4925V57.7232Z" fill="#5D2503"/>
<path d="M57.1823 59.5344L60.1769 57.805V55.5744L57.1823 57.3037V59.5344Z" fill="#5D2503"/>
<path d="M54.0448 61.3469L57.0395 59.6176V57.3856L54.0448 59.1149V61.3469Z" fill="#5D2503"/>
<path d="M50.9067 63.1581L53.9014 61.4288V59.1981L50.9067 60.9261V63.1581Z" fill="#5D2503"/>
<path d="M47.7694 64.9693L50.7641 63.24V61.0093L47.7694 62.7386V64.9693Z" fill="#5D2503"/>
<path d="M44.6034 64.5657V66.7977L47.6581 65.0351V62.8031L44.6034 64.5657Z" fill="#5D2503"/>
<path d="M44.6034 46.6346L74.7434 29.232V26.5146L44.6034 43.9173V46.6346Z" fill="#B25214"/>
<path d="M64.0577 39.0879L70.5671 35.3292V32.9039L64.0577 36.6626V39.0879Z" fill="#B25214"/>
<path d="M44.6034 50.3196L47.0927 48.8836V46.4569L44.6034 47.8942V50.3196Z" fill="#B25214"/>
<path d="M71.3561 33.9002C71.3561 33.4869 71.5507 33.0149 71.8387 32.6549C71.8134 32.5976 71.7987 32.5282 71.7987 32.4469C71.7987 32.1096 72.3281 31.5309 72.3281 31.5309C72.3281 31.5309 72.8561 31.4989 72.8561 31.8362C72.8561 31.9176 72.8414 32.0042 72.8161 32.0909C73.1041 32.1189 73.2987 32.3669 73.2987 32.7789C73.2987 33.2562 73.0401 33.8122 72.6761 34.1842C72.6854 34.2162 72.6921 34.2522 72.6921 34.2949C72.6921 34.5282 72.5294 34.8109 72.3281 34.9282C72.1254 35.0429 71.9627 34.9496 71.9627 34.7162C71.9627 34.6749 71.9681 34.6309 71.9787 34.5869C71.6147 34.6349 71.3561 34.3776 71.3561 33.9002Z" fill="#B25214"/>
<path d="M61.0363 39.8587C61.0363 39.4453 61.2309 38.9733 61.5189 38.612C61.4936 38.556 61.4789 38.4867 61.4789 38.404C61.4789 38.0667 62.0083 37.4893 62.0083 37.4893C62.0083 37.4893 62.5363 37.456 62.5363 37.7933C62.5363 37.876 62.5216 37.9627 62.4963 38.0493C62.7843 38.076 62.9789 38.3253 62.9789 38.7373C62.9789 39.2147 62.7203 39.7707 62.3563 40.1427C62.3656 40.1747 62.3723 40.2107 62.3723 40.2533C62.3723 40.4867 62.2096 40.7693 62.0083 40.8867C61.8056 41.0013 61.6429 40.9067 61.6429 40.6747C61.6429 40.632 61.6483 40.5893 61.6589 40.5453C61.2949 40.5933 61.0363 40.3347 61.0363 39.8587Z" fill="#B25214"/>
<path d="M48.6158 47.0305C48.6158 46.6159 48.8105 46.1452 49.0972 45.7839C49.0718 45.7265 49.0585 45.6585 49.0585 45.5759C49.0585 45.2385 49.5865 44.6599 49.5865 44.6599C49.5865 44.6599 50.1158 44.6279 50.1158 44.9652C50.1158 45.0479 50.1012 45.1332 50.0758 45.2199C50.3638 45.2479 50.5585 45.4959 50.5585 45.9079C50.5585 46.3865 50.2985 46.9425 49.9358 47.3132C49.9452 47.3452 49.9518 47.3825 49.9518 47.4239C49.9518 47.6572 49.7878 47.9412 49.5865 48.0572C49.3852 48.1719 49.2212 48.0785 49.2212 47.8452C49.2212 47.8039 49.2278 47.7599 49.2385 47.7159C48.8745 47.7639 48.6158 47.5065 48.6158 47.0305Z" fill="#B25214"/>
<path d="M52.7245 46.2454L59.0005 42.6214V58.6813L52.7245 62.304V46.2454Z" fill="#B25214"/>
<path d="M55.9661 49.2819L58.7927 47.6499V58.4619L55.9661 60.0925V49.2819Z" fill="#F27E01"/>
<path d="M52.9517 51.0226L55.777 49.3906V60.2013L52.9517 61.832V51.0226Z" fill="#F27E01"/>
<mask id="mask0_2_3362" style="mask-type:luminance" maskUnits="userSpaceOnUse" x="51" y="39" width="9" height="20">
<path d="M51.4026 39.2822H59.9093V58.2783H51.4026V39.2822Z" fill="white"/>
</mask>
<g mask="url(#mask0_2_3362)">
<g opacity="0.60001">
<mask id="mask1_2_3362" style="mask-type:luminance" maskUnits="userSpaceOnUse" x="51" y="39" width="9" height="20">
<path d="M51.4026 58.2783H59.9093V39.2822H51.4026V58.2783Z" fill="white"/>
</mask>
<g mask="url(#mask1_2_3362)">
<path d="M59.6854 39.2819L59.908 53.4952L57.1974 55.0606L55.6547 48.7806L54.6174 56.5499L51.6254 58.2779L51.4027 44.0646L59.6854 39.2819Z" fill="#511D03"/>
</g>
</g>
</g>
<path d="M60.248 38.5045V53.1725L57.372 54.8339L55.8546 48.3752L54.636 56.4139L51.46 58.2472V43.5792L60.248 38.5045Z" fill="#B25214"/>
<path d="M44.6034 -3.02482e-06L74.5554 17.2933L44.6034 34.5853L14.6514 17.2933L44.6034 -3.02482e-06Z" fill="#6A5C55"/>
<path d="M44.2427 1.64124L71.0307 17.1079L44.2427 32.5732L17.4547 17.1079L44.2427 1.64124Z" fill="#E2E3DA"/>
<path d="M44.2995 4.08339L68.9675 18.3261L44.2995 32.5687L19.6301 18.3261L44.2995 4.08339Z" fill="#555563"/>
<path d="M44.2995 4.22072L68.9675 18.4634L44.2995 32.7061L19.6301 18.4634L44.2995 4.22072Z" fill="#A3A3B3"/>
<path d="M87.5083 36.6451C87.2763 36.5664 83.8696 35.6638 83.8696 35.6638L83.1576 39.6238" stroke="white" stroke-width="2.66667" stroke-miterlimit="10"/>
<path d="M84.2201 36.2453C86.3107 39.0027 87.4627 42.0133 87.4627 45.1667C87.4627 48.8373 85.9014 52.3187 83.1107 55.4307" stroke="white" stroke-width="2.66667" stroke-miterlimit="10"/>
<path d="M2 54.4485C2.232 54.5272 5.63867 55.4299 5.63867 55.4299L6.35067 51.4685" stroke="white" stroke-width="2.66667" stroke-miterlimit="10"/>
<path d="M5.28832 54.8483C3.19632 52.0896 2.04565 49.0789 2.04565 45.9269C2.04565 42.2549 3.60699 38.7749 6.39765 35.6629" stroke="white" stroke-width="2.66667" stroke-miterlimit="10"/>
</svg>
