<svg width="722" height="1000" viewBox="0 0 722 1000" fill="none" xmlns="http://www.w3.org/2000/svg">
<mask id="mask0_2_3380" style="mask-type:luminance" maskUnits="userSpaceOnUse" x="2" y="0" width="794" height="1123">
<path d="M2 -3.34537e-05H795.701V1122.52H2V-3.34537e-05Z" fill="white"/>
</mask>
<g mask="url(#mask0_2_3380)">
<path d="M14.4082 617.46C14.4082 617.46 15.5908 625.762 13.7548 628.056C13.7548 628.056 15.7042 632.8 20.6975 631.516C23.7908 630.72 24.6495 629.32 24.6495 629.32L24.7722 618.723L14.4082 617.46Z" fill="#E1A780"/>
<path d="M11.1015 610.755C11.1015 610.755 10.1908 626.504 23.3948 626.531C26.9122 626.539 28.3695 623.489 29.8215 618.264C30.6575 615.255 30.7908 609.855 29.3628 605.753C27.7695 601.181 25.0162 600.505 21.4188 600.505C10.9028 600.505 11.1015 610.755 11.1015 610.755Z" fill="#F8B88D"/>
<path d="M27.1686 603.745C27.1686 603.745 19.8379 611.152 14.5152 610.38C14.5152 610.38 13.4259 616.748 14.9352 620.236C14.9352 620.236 13.9099 619.805 13.4686 617.46C13.2899 616.513 13.5219 614.729 13.4686 613.349C13.4686 613.349 13.1419 612.347 12.3926 612.213C12.0272 612.148 11.6779 612.401 11.5952 612.764C11.3792 613.708 11.0872 615.983 12.6646 617.827C12.6646 617.827 6.41522 615.24 7.80456 608.76C9.19256 602.279 13.9806 596.495 20.7672 598.576C20.7672 598.576 24.1672 598.221 26.6792 599.156C30.3112 600.504 33.1846 605.905 30.4459 612.463C30.4459 612.463 29.3272 608.065 27.1686 603.745Z" fill="#333333"/>
<path d="M13.4199 616.937C13.4199 616.937 13.5545 626.898 23.1719 626.911C29.4665 626.922 30.3692 615.005 30.3692 615.005C30.3692 615.005 29.7892 616.211 29.5799 617.231C29.1945 619.111 29.0772 625.353 23.0052 625.409C18.8825 625.446 16.4319 622.513 14.8172 619.337C14.2052 618.134 14.3665 616.937 13.4199 616.937Z" fill="#333333"/>
<path d="M59.3833 568.741C59.3833 578.587 46.9753 586.567 31.6687 586.567C16.3633 586.567 3.95532 578.587 3.95532 568.741C3.95532 558.896 16.3633 550.916 31.6687 550.916C46.9753 550.916 59.3833 558.896 59.3833 568.741Z" fill="white"/>
<path d="M20.1841 558.003C20.1841 562.218 16.7668 565.636 12.5508 565.636C8.33481 565.636 4.91748 562.218 4.91748 558.003C4.91748 553.787 8.33481 550.368 12.5508 550.368C16.7668 550.368 20.1841 553.787 20.1841 558.003Z" fill="white"/>
<path d="M27.8176 558.003C27.8176 562.218 24.4002 565.636 20.1842 565.636C15.9682 565.636 12.5509 562.218 12.5509 558.003C12.5509 553.787 15.9682 550.368 20.1842 550.368C24.4002 550.368 27.8176 553.787 27.8176 558.003Z" fill="white"/>
<path d="M37.2986 552.519C37.2986 556.735 33.8813 560.153 29.6653 560.153C25.4493 560.153 22.032 556.735 22.032 552.519C22.032 548.304 25.4493 544.885 29.6653 544.885C33.8813 544.885 37.2986 548.304 37.2986 552.519Z" fill="white"/>
<path d="M44.9321 556.103C44.9321 560.319 41.5148 563.738 37.2988 563.738C33.0828 563.738 29.6655 560.319 29.6655 556.103C29.6655 551.887 33.0828 548.47 37.2988 548.47C41.5148 548.47 44.9321 551.887 44.9321 556.103Z" fill="white"/>
<path d="M54.4127 558.003C54.4127 562.218 50.9953 565.636 46.7793 565.636C42.5633 565.636 39.146 562.218 39.146 558.003C39.146 553.787 42.5633 550.368 46.7793 550.368C50.9953 550.368 54.4127 553.787 54.4127 558.003Z" fill="white"/>
<path d="M51.1763 580.525C51.1763 584.741 47.7589 588.159 43.5429 588.159C39.3269 588.159 35.9096 584.741 35.9096 580.525C35.9096 576.309 39.3269 572.891 43.5429 572.891C47.7589 572.891 51.1763 576.309 51.1763 580.525Z" fill="white"/>
<path d="M46.7792 583.205C46.7792 587.421 43.3618 590.84 39.1458 590.84C34.9298 590.84 31.5125 587.421 31.5125 583.205C31.5125 578.989 34.9298 575.572 39.1458 575.572C43.3618 575.572 46.7792 578.989 46.7792 583.205Z" fill="white"/>
<path d="M37.2986 584.158C37.2986 588.374 33.8813 591.791 29.6653 591.791C25.4493 591.791 22.032 588.374 22.032 584.158C22.032 579.942 25.4493 576.523 29.6653 576.523C33.8813 576.523 37.2986 579.942 37.2986 584.158Z" fill="white"/>
<path d="M27.8176 582.409C27.8176 586.625 24.4002 590.044 20.1842 590.044C15.9682 590.044 12.5509 586.625 12.5509 582.409C12.5509 578.193 15.9682 574.776 20.1842 574.776C24.4002 574.776 27.8176 578.193 27.8176 582.409Z" fill="white"/>
<path d="M17.2557 578.767C17.2557 582.982 13.8384 586.401 9.62241 586.401C5.40641 586.401 1.98907 582.982 1.98907 578.767C1.98907 574.551 5.40641 571.133 9.62241 571.133C13.8384 571.133 17.2557 574.551 17.2557 578.767Z" fill="white"/>
<path d="M50.6541 597.931C50.6541 601.091 48.0928 603.654 44.9315 603.654C41.7715 603.654 39.2101 601.091 39.2101 597.931C39.2101 594.771 41.7715 592.209 44.9315 592.209C48.0928 592.209 50.6541 594.771 50.6541 597.931Z" fill="white"/>
<path d="M39.9972 607.994C39.9972 609.627 38.6745 610.95 37.0412 610.95C35.4092 610.95 34.0865 609.627 34.0865 607.994C34.0865 606.362 35.4092 605.038 37.0412 605.038C38.6745 605.038 39.9972 606.362 39.9972 607.994Z" fill="white"/>
<path d="M12.5507 567.32C12.5507 571.536 9.13333 574.953 4.91733 574.953C0.70133 574.953 -2.716 571.536 -2.716 567.32C-2.716 563.104 0.70133 559.685 4.91733 559.685C9.13333 559.685 12.5507 563.104 12.5507 567.32Z" fill="white"/>
<path d="M29.7056 577.507L16.7229 570.011V561.132L29.7056 568.628V577.507Z" fill="#564943"/>
<path d="M29.7056 580.111V583.619L16.7229 576.125V572.615L29.7056 580.111Z" fill="#564943"/>
<path d="M29.7056 580.391L16.7229 572.895V570.011L29.7056 577.507V580.391Z" fill="#564943"/>
<path d="M29.7056 573.795L16.7229 566.299V565.128L29.7056 572.624V573.795Z" fill="#FD7F22"/>
<path d="M21.3736 570.572L18.8603 569.12V568.075L21.3736 569.527V570.572Z" fill="#FD7F22"/>
<path d="M26.4777 573.519L23.9631 572.067V571.021L26.4777 572.473V573.519Z" fill="#FD7F22"/>
<path d="M29.7056 575.382L28.6336 574.763V573.718L29.7056 574.338V575.382Z" fill="#FD7F22"/>
<path d="M18.1815 568.309C18.1815 568.132 18.0988 567.929 17.9735 567.773C17.9855 567.749 17.9908 567.718 17.9908 567.682C17.9908 567.538 17.7641 567.288 17.7641 567.288C17.7641 567.288 17.5361 567.276 17.5361 567.42C17.5361 567.456 17.5428 567.493 17.5521 567.53C17.4295 567.542 17.3455 567.649 17.3455 567.828C17.3455 568.032 17.4575 568.272 17.6135 568.432C17.6095 568.446 17.6055 568.461 17.6055 568.48C17.6055 568.58 17.6761 568.702 17.7641 568.752C17.8495 568.802 17.9201 568.761 17.9201 568.661C17.9201 568.642 17.9175 568.624 17.9135 568.605C18.0708 568.625 18.1815 568.514 18.1815 568.309Z" fill="#FD7F22"/>
<path d="M23.0859 571.141C23.0859 570.962 23.0032 570.76 22.8779 570.605C22.8899 570.58 22.8952 570.55 22.8952 570.514C22.8952 570.369 22.6685 570.12 22.6685 570.12C22.6685 570.12 22.4405 570.106 22.4405 570.252C22.4405 570.286 22.4459 570.325 22.4565 570.361C22.3339 570.373 22.2499 570.48 22.2499 570.658C22.2499 570.864 22.3605 571.104 22.5179 571.264C22.5125 571.278 22.5099 571.292 22.5099 571.31C22.5099 571.41 22.5805 571.533 22.6685 571.584C22.7539 571.633 22.8245 571.593 22.8245 571.493C22.8245 571.474 22.8219 571.454 22.8179 571.437C22.9752 571.457 23.0859 571.346 23.0859 571.141Z" fill="#FD7F22"/>
<path d="M27.9771 573.965C27.9771 573.787 27.8944 573.584 27.7691 573.429C27.7811 573.404 27.7864 573.375 27.7864 573.339C27.7864 573.193 27.5597 572.944 27.5597 572.944C27.5597 572.944 27.3317 572.931 27.3317 573.076C27.3317 573.111 27.3384 573.149 27.3477 573.185C27.2251 573.197 27.1411 573.304 27.1411 573.483C27.1411 573.688 27.2531 573.928 27.4091 574.088C27.4051 574.103 27.4011 574.116 27.4011 574.135C27.4011 574.235 27.4717 574.357 27.5597 574.408C27.6451 574.457 27.7171 574.417 27.7171 574.317C27.7171 574.299 27.7131 574.279 27.7091 574.261C27.8664 574.281 27.9771 574.171 27.9771 573.965Z" fill="#FD7F22"/>
<path d="M29.6243 577.554L42.6083 570.059V561.179L29.6243 568.675V577.554Z" fill="#201814"/>
<path d="M29.6243 580.158V583.667L42.6083 576.171V572.663L29.6243 580.158Z" fill="#201814"/>
<path d="M29.6243 580.438L42.6083 572.942V570.059L29.6243 577.554V580.438Z" fill="#201814"/>
<path d="M29.6243 573.842L42.6083 566.346V565.175L29.6243 572.671V573.842Z" fill="#B25214"/>
<path d="M38.0044 570.59L40.8084 568.972V567.928L38.0044 569.546V570.59Z" fill="#B25214"/>
<path d="M32.8702 573.707L36.2436 571.689V570.645L32.8702 572.663V573.707Z" fill="#B25214"/>
<path d="M29.6243 575.429L30.6963 574.81V573.765L29.6243 574.385V575.429Z" fill="#B25214"/>
<path d="M41.1483 568.357C41.1483 568.179 41.2309 567.976 41.3563 567.82C41.3443 567.796 41.3389 567.767 41.3389 567.729C41.3389 567.585 41.5656 567.336 41.5656 567.336C41.5656 567.336 41.7936 567.323 41.7936 567.468C41.7936 567.503 41.7883 567.54 41.7776 567.577C41.9003 567.589 41.9843 567.696 41.9843 567.875C41.9843 568.079 41.8736 568.319 41.7163 568.479C41.7203 568.493 41.7243 568.508 41.7243 568.527C41.7243 568.627 41.6536 568.749 41.5656 568.799C41.4803 568.849 41.4096 568.808 41.4096 568.708C41.4096 568.691 41.4123 568.671 41.4163 568.652C41.2589 568.672 41.1483 568.561 41.1483 568.357Z" fill="#B25214"/>
<path d="M36.7029 570.924C36.7029 570.745 36.7856 570.542 36.9109 570.386C36.8989 570.362 36.8936 570.333 36.8936 570.297C36.8936 570.152 37.1203 569.902 37.1203 569.902C37.1203 569.902 37.3483 569.889 37.3483 570.034C37.3483 570.069 37.3429 570.106 37.3323 570.144C37.4549 570.156 37.5389 570.262 37.5389 570.441C37.5389 570.646 37.4283 570.885 37.2709 571.045C37.2749 571.06 37.2789 571.074 37.2789 571.093C37.2789 571.193 37.2083 571.316 37.1203 571.365C37.0349 571.416 36.9643 571.376 36.9643 571.274C36.9643 571.257 36.9669 571.237 36.9709 571.22C36.8136 571.238 36.7029 571.128 36.7029 570.924Z" fill="#B25214"/>
<path d="M31.3527 574.012C31.3527 573.833 31.4353 573.631 31.5607 573.476C31.5487 573.451 31.5433 573.421 31.5433 573.385C31.5433 573.24 31.77 572.991 31.77 572.991C31.77 572.991 31.998 572.977 31.998 573.123C31.998 573.157 31.9913 573.196 31.982 573.232C32.1047 573.244 32.1887 573.351 32.1887 573.529C32.1887 573.735 32.0767 573.975 31.9207 574.135C31.9247 574.149 31.9287 574.163 31.9287 574.181C31.9287 574.281 31.858 574.404 31.77 574.455C31.6847 574.504 31.6127 574.464 31.6127 574.364C31.6127 574.345 31.6167 574.325 31.6207 574.308C31.4633 574.328 31.3527 574.217 31.3527 574.012Z" fill="#B25214"/>
<path d="M29.7056 553.73L42.6083 561.179L29.7056 568.628L16.8043 561.179L29.7056 553.73Z" fill="#6A5C55"/>
<path d="M29.55 554.437L41.0887 561.098L29.55 567.761L18.0114 561.098L29.55 554.437Z" fill="#E2E3DA"/>
<path d="M29.5748 555.489L40.2015 561.625L29.5748 567.758L18.9481 561.625L29.5748 555.489Z" fill="#555563"/>
<path d="M29.5748 555.547L40.2015 561.683L29.5748 567.818L18.9481 561.683L29.5748 555.547Z" fill="#A3A3B3"/>
</g>
<mask id="mask1_2_3380" style="mask-type:luminance" maskUnits="userSpaceOnUse" x="0" y="597" width="41" height="64">
<path d="M0.789307 597.932V660.925L40.244 639.561L39.928 597.932H0.789307Z" fill="white"/>
</mask>
<g mask="url(#mask1_2_3380)">
<path d="M31.2726 628.836C28.1046 629.307 25.9166 632.255 26.3859 635.424C26.8553 638.592 29.8046 640.78 32.9739 640.31C36.1419 639.842 38.3299 636.891 37.8606 633.723C37.3899 630.555 34.4406 628.367 31.2726 628.836Z" fill="#364683"/>
<path d="M34.2564 648.961C31.0884 649.431 28.9004 652.38 29.3697 655.548C29.839 658.716 32.7897 660.904 35.9577 660.435C39.1257 659.965 41.3137 657.016 40.8444 653.847C40.3737 650.679 37.4244 648.491 34.2564 648.961Z" fill="#364683"/>
<path d="M29.3702 655.549L26.3862 635.425L37.8609 633.723L40.8436 653.847L29.3702 655.549Z" fill="#364683"/>
<path d="M5.87158 640.377L6.11558 644.729L6.62358 653.906L6.94625 659.777L7.25558 665.386L7.57425 671.091L7.74225 674.126L8.08358 680.261L35.1449 673.622L37.3569 635.511C37.3569 631.446 34.0569 628.146 29.9916 628.146L26.3862 629.194L13.2356 633.011C12.0196 633.011 10.9356 633.535 9.92758 634.058C7.89692 635.102 6.35292 636.838 5.96892 639.169C5.90625 639.563 5.87158 639.965 5.87158 640.377Z" fill="#364683"/>
<path d="M6.72451 645.254C7.27385 645.516 7.87518 645.692 8.51118 645.773C11.6925 646.157 14.5805 643.889 14.9658 640.708C15.3285 637.722 13.3512 634.993 10.4752 634.356C10.2858 634.312 10.0952 634.277 9.90051 634.254C6.72051 633.873 3.83251 636.138 3.44718 639.318C3.14185 641.862 4.52985 644.22 6.72451 645.254Z" fill="#364683"/>
<path d="M0.435445 660.605C0.832779 663.094 2.83678 665.125 5.46478 665.443C6.07945 665.519 6.68078 665.491 7.25544 665.386C9.02078 665.045 10.5341 663.895 11.3341 662.299C11.6354 661.714 11.8341 661.069 11.9181 660.378C12.3034 657.198 10.0341 654.31 6.85278 653.929C6.77411 653.921 6.69811 653.911 6.62344 653.907C3.53678 653.655 0.775445 655.885 0.399445 658.99C0.334112 659.542 0.347445 660.082 0.435445 660.605Z" fill="#364683"/>
<path d="M0.399597 658.99L6.94626 659.777L11.9183 660.378L14.3556 640.182L5.96893 639.169L2.83693 638.794L0.399597 658.99Z" fill="#364683"/>
<path d="M14.436 632.292C14.436 632.292 8.04664 634.475 5.95464 634.656C3.86264 634.839 0.903975 643.667 -1.52936 651.469C-1.52936 651.469 8.65998 667.088 35.6346 665.169L36.9626 642.243L14.436 632.292Z" fill="#364683"/>
<path d="M1.13983 653.46L0.38916 653.941L0.50916 662.356L0.78916 665.112L2.85316 665.421L5.43716 664.488L8.86249 662.265L10.8158 660.161L5.55716 656.075L1.13983 653.46Z" fill="#364683"/>
<path d="M16.7661 631.588C16.7661 631.588 17.1048 632.376 17.3048 632.64C17.4368 632.816 17.7275 633.149 17.8888 633.298C18.0688 633.465 18.4475 633.788 18.6701 633.89C18.9328 634.01 19.5115 634.108 19.7981 634.138C20.1088 634.172 20.7368 634.18 21.0461 634.138C21.3355 634.1 21.9048 633.941 22.1741 633.828C22.5221 633.68 23.2048 633.324 23.4808 633.065C23.6768 632.884 23.9741 632.425 24.0835 632.18C24.2328 631.846 24.3875 631.124 24.4315 630.762C24.4661 630.461 24.4861 629.35 24.4861 629.35L29.9181 627.953C29.9181 627.953 35.6248 628.141 37.0568 631.522C37.0568 631.522 37.6581 632.365 37.9661 634.437C38.2728 636.508 39.3515 643.78 39.3515 643.78L34.1448 646.44L23.1821 645.821L14.3021 634.277L13.7941 632.508L16.7661 631.588Z" fill="#364683"/>
<mask id="mask2_2_3380" style="mask-type:luminance" maskUnits="userSpaceOnUse" x="10" y="645" width="3" height="13">
<path d="M10.6593 645.773H12.7606V657.081H10.6593V645.773Z" fill="white"/>
</mask>
<g mask="url(#mask2_2_3380)">
<g opacity="0.5">
<mask id="mask3_2_3380" style="mask-type:luminance" maskUnits="userSpaceOnUse" x="10" y="645" width="3" height="13">
<path d="M10.66 657.081H12.7613V645.775H10.66V657.081Z" fill="white"/>
</mask>
<g mask="url(#mask3_2_3380)">
<path d="M10.6593 645.774L10.8166 657.081L12.7606 656.178L10.6593 645.774Z" fill="#231F20"/>
</g>
</g>
</g>
<mask id="mask4_2_3380" style="mask-type:luminance" maskUnits="userSpaceOnUse" x="31" y="638" width="3" height="12">
<path d="M31.7661 638.184H33.8674V649.491H31.7661V638.184Z" fill="white"/>
</mask>
<g mask="url(#mask4_2_3380)">
<g opacity="0.5">
<mask id="mask5_2_3380" style="mask-type:luminance" maskUnits="userSpaceOnUse" x="31" y="638" width="3" height="12">
<path d="M31.7667 649.491H33.868V638.184H31.7667V649.491Z" fill="white"/>
</mask>
<g mask="url(#mask5_2_3380)">
<path d="M31.7661 638.184L31.9234 649.489L33.8674 648.587L31.7661 638.184Z" fill="#231F20"/>
</g>
</g>
</g>
</g>
</svg>
