<svg width="56" height="79" viewBox="0 0 56 79" fill="none" xmlns="http://www.w3.org/2000/svg">
<path d="M29.2785 68.4758C30.2599 69.0425 30.2599 69.9611 29.2785 70.5291L16.9372 77.6545C15.9559 78.2211 14.3639 78.2211 13.3825 77.6545L1.0412 70.5291C0.0585326 69.9611 0.0585326 69.0425 1.0412 68.4758L13.3825 61.3505C14.3639 60.7838 15.9559 60.7838 16.9372 61.3505L29.2785 68.4758Z" fill="#027FD2"/>
<path d="M54.6491 68.4758C55.6305 69.0425 55.6305 69.9611 54.6491 70.5291L42.3078 77.6545C41.3265 78.2211 39.7345 78.2211 38.7531 77.6545L26.4118 70.5291C25.4291 69.9611 25.4291 69.0425 26.4118 68.4758L38.7531 61.3505C39.7345 60.7838 41.3265 60.7838 42.3078 61.3505L54.6491 68.4758Z" fill="#027FD2"/>
<path d="M17.2194 14.7649C17.2194 14.7649 17.6474 13.7129 19.1234 13.7089C20.5794 13.7049 21.0301 20.4209 21.0261 22.4529C21.0261 22.4529 18.9754 24.8809 18.1701 23.3235C17.1701 21.3915 17.2194 14.7649 17.2194 14.7649Z" fill="#BCBDBE"/>
<path d="M21.5618 31.6386C21.5618 32.5586 20.9991 32.9133 20.9844 33.3946C20.9711 33.8613 20.9231 34.3653 21.0164 34.692C21.1111 35.0173 21.3404 35.42 21.3071 35.6933C21.2844 35.8853 21.1098 36.3213 21.1951 36.372C21.2804 36.424 21.5938 36.34 21.7364 35.936C21.8764 35.536 21.8298 35.488 21.8018 35.296C21.7738 35.1053 21.6711 34.8426 21.7724 34.972C21.8738 35.1 21.9991 35.452 22.1391 35.9106C22.2804 36.3706 22.3484 36.508 22.3484 36.552C22.3498 36.58 22.2898 36.6813 22.2004 36.9733C22.1498 37.14 22.1031 37.3413 22.0791 37.4106C21.9178 37.876 22.0231 38.108 22.1604 38.1973C22.2978 38.288 22.5658 37.6666 22.6071 37.596C22.6484 37.5266 22.9658 36.692 22.9698 36.4373C22.9751 36.1093 22.8364 35.592 22.6898 35.1146C22.6124 34.8653 23.7978 34.1933 23.6791 33.396C23.5618 32.6013 23.2231 31.944 23.1258 31.4866C23.0298 31.0306 22.9231 30.5253 22.9231 30.5253L21.4364 30.8093C21.4364 30.8093 21.5618 31.244 21.5618 31.6386Z" fill="#E1A780"/>
<path d="M23.0769 34.3821C22.7929 34.1701 22.4542 34.4794 22.4515 34.7648C22.4502 34.7888 22.5502 35.1608 22.7035 35.5914C22.8649 36.0434 22.9129 36.1874 22.9142 36.2328C22.9142 36.2594 22.7915 36.3421 22.6395 36.6061C22.5529 36.7568 22.4622 36.9434 22.4222 37.0061C22.1609 37.4221 22.2115 37.6701 22.3262 37.7888C22.4409 37.9061 22.8422 37.3581 22.8982 37.2994C22.9542 37.2421 23.5302 36.3728 23.5342 36.1181C23.5395 35.7888 23.4022 35.2714 23.2542 34.7968C23.2435 34.7634 23.1715 34.4541 23.0769 34.3821Z" fill="#E1A780"/>
<path d="M23.4831 33.0761C23.1991 32.8628 22.8604 33.1721 22.8564 33.4588C22.8564 33.4814 22.9551 33.8548 23.1098 34.2854C23.2711 34.7374 23.3178 34.8814 23.3191 34.9254C23.3204 34.9534 23.1978 35.0361 23.0458 35.3001C22.9591 35.4508 22.8671 35.6361 22.8284 35.6988C22.5671 36.1148 22.6178 36.3641 22.7324 36.4814C22.8458 36.6001 23.2484 36.0508 23.3044 35.9934C23.3604 35.9348 23.9351 35.0668 23.9404 34.8108C23.9458 34.4828 23.8071 33.9654 23.6604 33.4894C23.6498 33.4561 23.5778 33.1468 23.4831 33.0761Z" fill="#E1A780"/>
<path d="M23.2889 33.813C23.0049 33.601 22.6663 33.9104 22.6636 34.1957C22.6623 34.2197 22.7623 34.5917 22.9156 35.0224C23.0769 35.4744 23.1249 35.6184 23.1263 35.6637C23.1263 35.6904 23.0036 35.773 22.8516 36.037C22.7649 36.1877 22.6743 36.3744 22.6343 36.437C22.3729 36.853 22.4236 37.101 22.5383 37.2197C22.6529 37.337 23.0543 36.789 23.1103 36.7304C23.1663 36.673 23.7423 35.8037 23.7463 35.549C23.7516 35.2197 23.6143 34.7024 23.4663 34.2277C23.4556 34.1944 23.3836 33.885 23.2889 33.813Z" fill="#E1A780"/>
<path d="M18.1699 23.3235C18.1699 23.3235 19.1139 21.4301 21.0273 22.4528C21.0273 22.4528 22.9979 31.0381 23.1673 31.6461C23.1673 31.6461 21.8606 33.2688 21.0353 32.4755C20.4406 31.9048 18.1699 23.3235 18.1699 23.3235Z" fill="#BCBDBE"/>
<path d="M13.0924 32.3821C13.0924 32.3821 18.0658 27.7341 20.0204 32.4754C20.0204 32.4754 20.2804 40.0328 20.0498 41.8128C19.7964 43.7674 19.7191 46.1328 19.6044 47.4008C19.5031 48.5221 18.7924 49.3568 17.9551 49.3274C16.7058 49.2808 15.0938 48.9034 14.8524 47.2981C14.7311 46.4874 14.1391 45.0981 14.0204 43.0208C13.9124 41.1514 12.9071 38.5368 12.9004 36.7701C12.8938 34.4648 13.0924 32.3821 13.0924 32.3821Z" fill="#343434"/>
<path d="M16.1985 60.7844L16.6865 65.7551C16.6865 65.7551 17.5799 66.3244 18.7252 65.6818L19.0772 61.1431C19.0772 61.1431 17.0652 61.8578 16.1985 60.7844Z" fill="#D4D4D4"/>
<path d="M14.8099 46.6829C14.8099 46.6829 17.6686 43.7109 19.6046 47.4003C19.6272 47.1403 19.0739 61.2816 18.9539 63.6763C18.9539 63.6763 18.6992 64.3589 17.6992 64.3589C16.9206 64.3589 16.4686 63.8696 16.4686 63.8696C16.4686 63.8696 14.0539 49.9883 14.8099 46.6829Z" fill="#343434"/>
<path d="M7.47323 33.5917C7.47323 33.5917 14.2519 30.1997 16.1986 35.2424C16.1986 35.2424 14.8626 42.1517 14.6332 44.0437C14.3799 46.1224 13.6079 48.0584 13.4932 49.4064C13.3919 50.5997 12.6839 51.489 11.8492 51.4544C10.6052 51.4064 8.99856 51.005 8.75856 49.297C8.63856 48.4357 8.67189 47.6197 8.55323 45.409C8.44656 43.4197 7.29989 40.5464 7.29456 38.6664C7.28656 36.2144 7.47323 33.5917 7.47323 33.5917Z" fill="#3D3D3D"/>
<path d="M11.3496 9.86901C11.3496 9.86901 12.4043 13.233 11.043 14.8477C11.043 14.8477 11.959 17.077 14.3043 16.473C15.7576 16.0997 16.1603 15.4423 16.1603 15.4423C16.1603 15.4423 15.3323 13.7063 16.2376 10.8703C16.611 9.70234 11.3496 9.86901 11.3496 9.86901Z" fill="#E1A780"/>
<path d="M9.96869 64.1217L10.4514 69.2484C10.4514 69.2484 11.7287 70.0164 12.3234 68.8337L12.4874 64.335C12.4874 64.335 10.7447 65.1857 9.96869 64.1217Z" fill="#D4D4D4"/>
<path d="M8.71615 48.6438C8.71615 48.6438 11.5642 45.4812 13.4935 49.4065C13.5148 49.1292 12.8242 64.5638 12.7055 67.1105C12.7055 67.1105 12.8602 67.4745 11.5068 67.4745C10.5468 67.4745 10.1988 66.9838 10.1988 66.9838C10.1988 66.9838 7.46682 53.4505 8.71615 48.6438Z" fill="#3D3D3D"/>
<path d="M13.4433 71.1399C12.9087 69.8732 12.4007 68.3745 12.3487 68.1292L10.418 68.0732C10.418 68.0732 9.98199 68.6852 9.96866 69.4932C9.95932 70.1132 10.118 70.6252 10.122 71.4932C10.1247 72.0919 10.3887 72.8119 11.0113 73.3332C11.506 73.7452 12.3753 73.9759 13.2447 73.6812C13.886 73.4639 13.8553 72.1145 13.4433 71.1399Z" fill="#D4D4D4"/>
<path d="M22.9113 69.9993C22.7233 69.6393 21.678 68.1673 19.238 66.3873C18.5647 65.6566 18.7847 64.9046 18.7847 64.9046C18.7847 64.9046 17.4247 64.4873 16.6207 65.0833C16.6207 65.0833 16.6447 65.3206 16.6593 65.6179C16.5633 65.7219 16.4673 65.8713 16.3887 66.0953C16.0833 66.9566 16.4233 68.8473 16.326 69.158C16.326 69.158 17.7473 69.4473 18.4247 69.9433C19.0393 70.3926 20.2433 70.662 20.986 70.8806C22.9113 71.4473 23.1793 70.5113 22.9113 69.9993Z" fill="#D4D4D4"/>
<path d="M19.8431 31.5097C19.5791 30.2844 19.0458 27.8897 18.9431 26.5204C18.7978 24.6084 20.2524 23.435 20.2524 21.2044C20.2524 18.823 19.7058 18.851 19.4098 17.2004C19.0591 15.255 19.5724 13.8817 19.5724 13.8817C19.2684 13.2097 17.6524 14.1697 16.2564 14.131C11.9911 14.0137 12.3151 13.771 12.3151 13.771C12.3151 13.771 10.1044 13.979 8.16976 16.2577C7.75509 16.747 7.56042 17.383 7.61909 18.0217C7.74976 19.4417 8.93642 30.947 6.80176 35.4884C5.75509 37.715 5.33376 44.3297 5.50176 49.791C5.80442 59.5857 7.46576 68.0737 7.46576 68.0737C7.46576 68.0737 12.4991 72.4364 21.0258 64.1217C21.0258 64.1217 21.4564 35.495 19.8431 31.5097Z" fill="#E6E6E6"/>
<path d="M7.23429 17.4381C7.23429 17.4381 7.65029 16.2661 9.04229 16.6594C11.0956 17.2408 7.94629 27.8994 7.94629 27.8994C7.94629 27.8994 5.01296 29.5608 4.73029 27.7568C4.37962 25.5208 7.23429 17.4381 7.23429 17.4381Z" fill="#E6E6E6"/>
<path d="M5.95441 39.0344C5.95441 39.0344 14.0744 43.6678 20.9597 38.7238C20.9597 38.7238 8.00241 33.0838 5.95441 39.0344Z" fill="#CBCCCC"/>
<path d="M8.08455 37.0852C8.46722 37.9318 9.10188 37.9772 9.31388 38.4118C9.51922 38.8332 9.76989 39.2732 9.82322 39.6172C9.87789 39.9638 9.84455 40.4478 9.98722 40.6812C10.0872 40.8452 10.4192 41.1598 10.3659 41.2492C10.3126 41.3385 10.0059 41.4185 9.71388 41.1158C9.42588 40.8198 9.44722 40.7518 9.39255 40.5612C9.33788 40.3732 9.31922 40.0812 9.28322 40.2505C9.24855 40.4185 9.28589 40.8038 9.35522 41.2945C9.42322 41.7852 9.42055 41.9465 9.43789 41.9865C9.44855 42.0118 9.54322 42.0758 9.74188 42.2998C9.85522 42.4278 9.97922 42.5892 10.0286 42.6412C10.3619 42.9878 10.3659 43.2518 10.2846 43.4038C10.2019 43.5558 9.71255 43.1158 9.64722 43.0732C9.58322 43.0305 8.96188 42.4225 8.85255 42.1892C8.71122 41.8905 8.61655 41.3465 8.54722 40.8372C8.50989 40.5678 7.20322 40.5412 6.97522 39.7518C6.74722 38.9612 6.76855 38.1905 6.66322 37.7238C6.55789 37.2558 6.44055 36.7398 6.44055 36.7398L7.84989 36.2638C7.84989 36.2638 7.92055 36.7238 8.08455 37.0852Z" fill="#F8B88D"/>
<path d="M7.90682 40.3573C8.06549 40.02 8.48815 40.136 8.60815 40.3973C8.61882 40.4186 8.68682 40.8106 8.73215 41.2813C8.77882 41.776 8.79749 41.9333 8.81482 41.9733C8.82549 41.9986 8.96682 42.0133 9.20815 42.1813C9.34682 42.276 9.50282 42.4013 9.56282 42.44C9.96282 42.692 10.0215 42.9453 9.97082 43.1093C9.92015 43.2746 9.34415 42.972 9.27082 42.9453C9.19882 42.92 8.33882 42.408 8.22949 42.176C8.08815 41.8773 7.99349 41.3333 7.92415 40.8253C7.92015 40.7893 7.85349 40.4693 7.90682 40.3573Z" fill="#F8B88D"/>
<path d="M7.01295 39.3586C7.17161 39.0226 7.59428 39.1386 7.71428 39.3986C7.72495 39.42 7.79295 39.812 7.83828 40.284C7.88495 40.7786 7.90361 40.936 7.92095 40.976C7.93161 41.0013 8.07295 41.016 8.31428 41.1826C8.45295 41.2786 8.60895 41.404 8.66895 41.4413C9.06895 41.6946 9.12628 41.9466 9.07695 42.112C9.02628 42.2773 8.45028 41.9733 8.37695 41.948C8.30495 41.9226 7.44495 41.4106 7.33561 41.1786C7.19428 40.88 7.09961 40.336 7.03028 39.8266C7.02495 39.7906 6.95961 39.4706 7.01295 39.3586Z" fill="#F8B88D"/>
<path d="M7.48695 39.9393C7.64561 39.6033 8.06828 39.7193 8.18828 39.9793C8.19895 40.0006 8.26695 40.3926 8.31228 40.8646C8.35895 41.3593 8.37761 41.5166 8.39495 41.5566C8.40561 41.582 8.54695 41.5966 8.78828 41.7633C8.92561 41.8593 9.08295 41.9846 9.14295 42.022C9.54295 42.2753 9.60028 42.5273 9.55095 42.6926C9.50028 42.858 8.92428 42.5553 8.85095 42.5286C8.77895 42.5033 7.91895 41.9913 7.80961 41.7593C7.66828 41.4606 7.57361 40.9166 7.50428 40.4073C7.49895 40.3726 7.43361 40.0526 7.48695 39.9393Z" fill="#F8B88D"/>
<path d="M4.73041 27.7571C4.73041 27.7571 6.29041 26.4717 7.94641 27.8984C7.94641 27.8984 8.22507 36.8451 8.28241 37.4944C8.28241 37.4944 6.66641 38.4864 5.97174 37.8037C5.27707 37.1224 4.73041 27.7571 4.73041 27.7571Z" fill="#E6E6E6"/>
<path d="M20.7044 13.8808C20.0484 12.2341 19.1231 12.1368 19.1231 12.1368C19.1231 12.1368 21.5938 4.77676 17.4111 1.66609C15.9804 0.60076 14.4564 0.403426 12.7591 0.94876C11.2391 1.43543 9.49776 2.51943 9.26576 4.93009C9.26576 4.93009 9.84843 13.5328 7.08176 17.6008C6.70576 18.1541 6.1351 19.6154 5.80043 20.8941C4.0071 27.7274 2.4911 36.5568 3.5111 38.2061C3.5111 38.2061 7.33243 40.0421 13.6498 39.8501C22.7964 39.5701 25.9524 36.0581 25.9524 36.0581C25.9524 36.0581 21.6778 16.3274 20.7044 13.8808Z" fill="#E6E6E6"/>
<path d="M12.6041 8.8573C12.6041 8.8573 12.0855 15.6226 16.5228 15.6226C19.7695 15.624 19.5601 7.17064 19.5601 7.17064C19.5601 7.17064 14.1841 4.01997 12.6041 8.8573Z" fill="#CBCCCC"/>
<path d="M16.2103 13.6568C13.9209 13.6555 12.6316 10.6808 12.6036 8.85678C12.5916 8.01812 12.8089 7.24345 13.5516 6.82878L17.2636 4.61812L19.0263 6.44345C19.5316 6.85945 19.7796 7.51412 19.6796 8.17145C19.3743 10.1608 18.8263 13.6568 16.2103 13.6568Z" fill="#F8B88D"/>
<path d="M19.0455 12.1568C18.9828 12.1514 18.9295 12.2914 18.8068 13.3861C18.6668 14.4781 18.4922 16.5368 17.7882 20.3128C17.4295 22.1981 16.9442 24.3274 16.3588 26.4421C15.7762 28.5581 15.0922 30.6568 14.4188 32.5048C13.7402 34.3501 13.0735 35.9434 12.5908 37.0794C12.3442 37.6448 12.1482 38.0981 12.0108 38.4128C11.8788 38.7274 11.8135 38.9021 11.8268 38.9088C11.8415 38.9154 11.9348 38.7541 12.0962 38.4541C12.2535 38.1501 12.4868 37.7128 12.7548 37.1541C13.2908 36.0368 14.0055 34.4581 14.7255 32.6181C15.4402 30.7781 16.1602 28.6781 16.7695 26.5568C17.3815 24.4368 17.8802 22.2954 18.2428 20.3994C18.9522 16.5994 19.0748 14.5208 19.1322 13.4154C19.1722 12.3074 19.1095 12.1621 19.0455 12.1568Z" fill="#D2D3D2"/>
<path d="M9.19401 25.6294C9.13001 25.6254 9.08601 25.6814 9.03801 26.1428C8.99934 26.6028 8.93667 27.4721 9.03801 29.0854C9.13401 30.6974 9.48467 32.7334 9.95534 34.3188C10.1873 35.1094 10.4353 35.7921 10.63 36.2708C10.83 36.7494 10.9687 37.0294 10.998 37.0174C11.0633 36.9908 10.6487 35.8201 10.2713 34.2308C9.88601 32.6441 9.59401 30.6374 9.49934 29.0534C9.39934 27.4708 9.40867 26.6161 9.36467 26.1574C9.33001 25.6988 9.25801 25.6334 9.19401 25.6294Z" fill="#D2D3D2"/>
<path d="M18.9883 46.942C18.927 46.9247 18.8603 47.0047 18.627 47.7007C18.3843 48.394 17.9936 49.714 17.0456 52.09C16.567 53.278 15.979 54.6087 15.331 55.918C14.6843 57.2313 13.979 58.522 13.3136 59.65C12.6456 60.778 12.0203 61.7447 11.571 62.4353C11.1163 63.122 10.8456 63.538 10.8723 63.558C10.8976 63.5767 11.2176 63.1953 11.719 62.5367C12.215 61.8753 12.8856 60.9313 13.5936 59.818C14.2976 58.7033 15.0403 57.4207 15.7123 56.1087C16.387 54.7993 16.9923 53.4607 17.475 52.2633C18.4323 49.8647 18.7763 48.518 18.9403 47.7967C19.095 47.0713 19.0496 46.9607 18.9883 46.942Z" fill="#D2D3D2"/>
<path d="M40.4394 73.1477C40.122 71.897 39.086 71.145 38.7527 70.441C38.2474 69.3757 38.4394 67.901 38.4394 67.901C37.5194 68.6477 35.6074 68.2224 35.6074 68.2224C35.6074 68.2224 35.5514 69.661 35.5047 70.1797C35.4674 70.5877 35.4207 70.8584 35.4207 71.4117C35.4207 71.4117 36.5567 72.9424 36.658 73.2397C36.954 74.1117 37.4834 74.2664 38.054 74.453C38.2234 74.509 38.9167 74.569 39.55 74.3904C40.2914 74.1784 40.4407 73.1544 40.4394 73.1477Z" fill="#F8B88D"/>
<path d="M42.9615 14.6295C42.9615 14.6295 43.2495 13.3975 44.8495 13.2655C47.1722 13.0735 47.4935 24.9761 47.4602 23.2961C47.4602 23.2961 44.8735 25.5295 43.9962 23.9361C42.9082 21.9588 42.9615 14.6295 42.9615 14.6295Z" fill="#E1A780"/>
<path d="M47.6888 31.8873C47.6888 32.8299 47.0768 33.1926 47.0608 33.6859C47.0462 34.1619 46.9942 34.6779 47.0955 35.0113C47.1982 35.3459 47.4488 35.7566 47.4115 36.0353C47.3862 36.2326 47.1968 36.6779 47.2902 36.7299C47.3835 36.7833 47.7248 36.6966 47.8795 36.2833C48.0315 35.8739 47.9808 35.8246 47.9502 35.6299C47.9195 35.4339 47.8075 35.1673 47.9182 35.2979C48.0288 35.4286 48.1648 35.7899 48.3182 36.2579C48.4702 36.7286 48.5448 36.8686 48.5462 36.9139C48.5475 36.9419 48.4808 37.0473 48.3848 37.3446C48.3302 37.5166 48.2782 37.7219 48.2515 37.7939C48.0768 38.2673 48.1902 38.5046 48.3408 38.5966C48.4902 38.6899 48.7822 38.0526 48.8275 37.9819C48.8715 37.9113 49.2168 37.0579 49.2208 36.7966C49.2275 36.4606 49.0768 35.9313 48.9168 35.4446C48.8315 35.1886 50.1222 34.5019 49.9942 33.6873C49.8648 32.8713 49.4968 32.2006 49.3915 31.7339C49.2875 31.2659 49.1715 30.7499 49.1715 30.7499L47.5528 31.0406C47.5528 31.0406 47.6888 31.4859 47.6888 31.8873Z" fill="#E1A780"/>
<path d="M49.3386 34.6945C49.0293 34.4772 48.6599 34.7932 48.6573 35.0865C48.6559 35.1105 48.7653 35.4918 48.9319 35.9318C49.1079 36.3945 49.1586 36.5425 49.1613 36.5865C49.1613 36.6145 49.0279 36.6985 48.8626 36.9692C48.7679 37.1238 48.6679 37.3145 48.6253 37.3785C48.3413 37.8038 48.3959 38.0572 48.5213 38.1785C48.6453 38.2985 49.0826 37.7385 49.1439 37.6785C49.2039 37.6185 49.8319 36.7305 49.8359 36.4692C49.8413 36.1332 49.6919 35.6052 49.5319 35.1172C49.5199 35.0852 49.4413 34.7678 49.3386 34.6945Z" fill="#E1A780"/>
<path d="M49.7799 33.3586C49.4706 33.1413 49.1026 33.4573 49.0986 33.7506C49.0986 33.7746 49.2066 34.156 49.3732 34.596C49.5492 35.0573 49.6012 35.2066 49.6026 35.2506C49.6039 35.2786 49.4692 35.3626 49.3052 35.6333C49.2106 35.788 49.1106 35.9786 49.0666 36.0426C48.7826 36.468 48.8386 36.7213 48.9626 36.8413C49.0866 36.9626 49.5239 36.4026 49.5852 36.3426C49.6466 36.2826 50.2732 35.3946 50.2772 35.1333C50.2826 34.7973 50.1332 34.2693 49.9732 33.7813C49.9612 33.748 49.8826 33.432 49.7799 33.3586Z" fill="#E1A780"/>
<path d="M49.569 34.1125C49.2596 33.8952 48.8916 34.2112 48.8876 34.5045C48.8876 34.5285 48.9956 34.9099 49.1623 35.3499C49.3383 35.8125 49.3903 35.9605 49.3916 36.0045C49.393 36.0325 49.2583 36.1179 49.0943 36.3872C48.9996 36.5419 48.8996 36.7325 48.8556 36.7965C48.5716 37.2219 48.6276 37.4752 48.7516 37.5965C48.8756 37.7165 49.313 37.1565 49.3743 37.0965C49.4356 37.0365 50.0623 36.1485 50.0676 35.8872C50.073 35.5512 49.9223 35.0232 49.7623 34.5352C49.7516 34.5032 49.673 34.1859 49.569 34.1125Z" fill="#E1A780"/>
<path d="M43.9967 23.3833C43.9967 23.3833 45.01 20.6206 47.0927 21.6659C47.0927 21.6659 49.57 31.7006 49.57 32.6046C49.57 32.6046 47.9914 33.2566 47.7114 32.8593C47.034 31.8993 43.9967 23.3833 43.9967 23.3833Z" fill="#E1A780"/>
<path d="M38.6295 32.8286C38.6295 32.8286 44.4348 27.8073 46.6175 32.658C46.6175 32.658 46.6562 40.6553 46.3975 42.474C46.1148 44.474 46.1855 46.3193 46.0588 47.6166C45.9442 48.7646 45.1508 49.6193 44.2162 49.5873C42.8228 49.5393 41.0202 49.1526 40.7522 47.5126C40.6162 46.6833 39.7975 45.8366 39.6655 43.7113C39.5455 41.7993 38.4228 39.1246 38.4162 37.3166C38.4068 34.9593 38.6295 32.8286 38.6295 32.8286Z" fill="#F8B88D"/>
<path d="M40.7044 46.8833C40.7044 46.8833 43.8964 43.842 46.0591 47.6166C46.0831 47.35 45.3084 62.39 45.1751 64.838C45.1751 64.838 44.8897 65.5366 43.7724 65.5366C42.9031 65.5366 42.3671 64.7166 42.3671 64.7166C42.3671 64.7166 39.8591 50.2633 40.7044 46.8833Z" fill="#F8B88D"/>
<path d="M33.0436 33.9043C33.0436 33.9043 40.1503 30.5963 42.3316 35.7563C42.3316 35.7563 40.8343 42.8203 40.577 44.7576C40.293 46.8843 39.4276 48.8629 39.2996 50.2429C39.1863 51.4629 38.3916 52.3723 37.4583 52.3389C36.0636 52.2883 34.2623 51.8763 33.993 50.1309C33.857 49.2496 33.8956 48.4136 33.7623 46.1549C33.6436 44.1189 32.849 41.0176 32.8436 39.0949C32.8343 36.5869 33.0436 33.9043 33.0436 33.9043Z" fill="#F8B88D"/>
<path d="M42.3666 64.7166L42.2786 68.0006C42.2692 68.378 42.4839 68.7286 42.8292 68.8806C43.0492 68.978 43.3372 69.0886 43.7012 69.1993C44.4306 69.4193 45.6186 69.5873 46.4239 69.8486C47.2092 70.102 48.0586 70.2446 48.6319 70.4046C49.0492 70.5206 49.2346 70.7126 49.5559 70.638C50.8186 70.3446 50.5639 69.6913 50.5639 69.6913C50.5639 69.6913 50.3252 68.9633 49.4666 68.4953C48.7692 68.114 45.4319 65.7473 45.1746 64.838C45.1746 64.838 44.0839 65.8286 42.3666 64.7166Z" fill="#F8B88D"/>
<path d="M33.9452 49.4627C33.9452 49.4627 37.1372 46.2267 39.2999 50.2427C39.3239 49.9587 38.5492 65.7467 38.4159 68.3507C38.4159 68.3507 38.5905 68.7227 37.0732 68.7227C35.9972 68.7227 35.6079 68.2214 35.6079 68.2214C35.6079 68.2214 33.0999 53.0574 33.9452 49.4627Z" fill="#F8B88D"/>
<path d="M37.8164 13.7922C37.8164 13.7922 33.7457 15.1149 32.4364 18.5242C32.4364 18.5242 33.1377 22.0229 33.6257 27.0736C33.7711 28.5842 33.0617 31.2122 32.6831 35.0722C31.4484 47.6842 31.8937 64.7856 31.9564 66.2496C32.0284 67.9189 35.6377 68.9642 38.3137 68.8896C44.3191 68.7229 47.4617 63.9736 47.4617 62.5256C47.4617 62.5256 47.2004 57.5056 47.0337 48.2309C46.9284 42.3696 48.2604 38.2416 47.0604 33.6856C46.8951 33.0562 50.2684 33.1976 50.2777 31.7616C50.2991 28.1456 48.4191 21.4309 47.4617 18.0896C46.8751 16.0416 46.0377 13.9242 46.0377 13.9242C45.7257 13.2362 44.6924 12.8362 43.2644 12.7976C38.9017 12.6762 37.8164 13.7922 37.8164 13.7922Z" fill="#E6E6E6"/>
<path d="M33.6256 60.1854C32.627 54.4387 34.411 38.0534 34.4283 33.2868C34.447 28.5188 36.8576 22.0934 35.887 19.1308C34.923 16.1881 32.575 18.2361 32.5443 18.2627C32.543 18.2667 32.543 18.2694 32.5416 18.2721C32.531 18.3014 32.499 18.4041 32.4456 18.5734C32.531 19.0081 33.171 22.3668 33.6256 27.0734C33.771 28.5841 33.0616 31.2134 32.683 35.0721C31.4483 47.6841 31.8936 64.7854 31.9563 66.2494C31.999 67.2574 33.311 68.0787 34.9603 68.5027C34.9603 68.5027 34.6243 65.9307 33.6256 60.1854Z" fill="#CBCCCC"/>
<path d="M37.8164 13.7922C37.8164 13.7922 33.8991 15.0669 32.5151 18.3349C32.4657 18.4856 32.4457 18.5736 32.4457 18.5736C32.5311 19.0082 35.5417 20.0709 35.1524 23.3522C35.2657 23.3642 38.0991 22.8522 40.6991 20.8576C43.2644 18.8856 43.2644 12.7976 43.2644 12.7976C38.9017 12.6762 37.8164 13.7922 37.8164 13.7922Z" fill="#F8B88D"/>
<path d="M46.1627 14.1607C46.0987 14.1487 46.0347 14.2967 45.788 15.4807C45.532 16.6621 45.08 20.5674 44.128 24.6714C43.6387 26.7207 43.1107 29.0621 42.292 31.3087C41.4867 33.5567 40.3027 35.6901 38.8093 37.2141C37.3293 38.7501 35.6653 39.6941 34.4373 40.2181C33.2 40.7407 32.3987 40.9007 32.4093 40.9421C32.412 40.9567 32.6147 40.9261 32.98 40.8514C33.3427 40.7647 33.8693 40.6261 34.5053 40.3847C35.772 39.9061 37.4947 38.9887 39.044 37.4421C40.608 35.9087 41.8533 33.7314 42.692 31.4567C43.5467 29.1794 44.088 26.8287 44.5787 24.7767C45.5333 20.6607 45.936 16.7407 46.1093 15.5407C46.2733 14.3394 46.224 14.1727 46.1627 14.1607Z" fill="#CBCCCC"/>
<path d="M46.8626 44.0917C46.8012 44.0717 46.7212 44.1944 46.3666 45.229C46.1932 45.7477 45.9466 46.4904 45.5906 47.5557C45.2346 48.6197 44.7772 50.0077 44.1199 51.7877C43.4639 53.569 42.6572 55.573 41.7106 57.5224C40.7692 59.473 39.6786 61.361 38.5799 62.957C37.4799 64.5557 36.3759 65.8544 35.5426 66.741C34.7092 67.629 34.1666 68.1237 34.1919 68.1544C34.2026 68.1664 34.3492 68.0544 34.6079 67.8384C34.8692 67.6237 35.2319 67.293 35.6719 66.8677C36.5506 66.0117 37.7026 64.733 38.8466 63.145C39.9919 61.557 41.1226 59.6664 42.0946 57.709C43.0706 55.753 43.8932 53.7397 44.5532 51.949C45.2146 50.157 45.6612 48.761 45.9959 47.6864C46.3279 46.613 46.5412 45.857 46.6786 45.3277C46.9532 44.2677 46.9226 44.1117 46.8626 44.0917Z" fill="#CBCCCC"/>
<path d="M45.7155 18.0696C45.6515 18.0656 45.6075 18.1216 45.5608 18.5722C45.5168 19.0216 45.4635 20.6762 45.4475 22.2536C45.4288 23.8282 45.4902 25.8362 45.6168 27.4456C45.7422 29.0536 45.9128 30.2616 45.9742 30.2549C46.0395 30.2482 45.9835 29.0322 45.9435 27.4256C45.8995 25.8189 45.8915 23.8229 45.9102 22.2576C45.9262 20.6909 45.9275 19.0402 45.8875 18.5882C45.8515 18.1349 45.7795 18.0722 45.7155 18.0696Z" fill="#CBCCCC"/>
<path d="M32.4361 18.524C32.4361 18.524 32.8495 17.1773 35.2335 17.8067C37.2388 18.336 35.9255 23.1907 35.9255 23.1907L35.1521 23.352C35.1521 23.352 31.6975 23.788 32.4361 18.524Z" fill="#E1A780"/>
<path d="M32.4361 18.524C32.4361 18.524 33.3001 16.6653 35.2335 17.8067C37.3308 19.0453 33.0961 29.4147 33.0961 29.4147C33.0961 29.4147 30.1028 31.5587 29.7775 29.716C29.3748 27.428 32.4361 18.524 32.4361 18.524Z" fill="#F8B88D"/>
<path d="M33.2552 38.9706C33.6952 39.8346 34.4259 39.8826 34.6712 40.328C34.9059 40.7573 35.1952 41.208 35.2566 41.5613C35.3179 41.9146 35.2806 42.4106 35.4446 42.6493C35.5606 42.8173 35.9419 43.1373 35.8806 43.2293C35.8192 43.3213 35.4659 43.4026 35.1312 43.0946C34.8006 42.7893 34.8246 42.7213 34.7606 42.5266C34.6979 42.332 34.6752 42.036 34.6352 42.208C34.5939 42.38 34.6392 42.7746 34.7179 43.276C34.7952 43.7773 34.7939 43.9426 34.8126 43.984C34.8259 44.0106 34.9352 44.076 35.1619 44.304C35.2926 44.436 35.4366 44.6013 35.4939 44.6533C35.8752 45.0066 35.8819 45.2773 35.7872 45.4333C35.6926 45.588 35.1286 45.14 35.0539 45.096C34.9792 45.052 34.2646 44.4293 34.1392 44.192C33.9766 43.8866 33.8672 43.3306 33.7872 42.808C33.7459 42.5333 32.2406 42.5053 31.9779 41.6973C31.7166 40.888 31.7419 40.1013 31.6192 39.6226C31.4979 39.1453 31.3646 38.6173 31.3646 38.6173L32.9846 38.1293C32.9846 38.1293 33.0672 38.6013 33.2552 38.9706Z" fill="#F8B88D"/>
<path d="M33.0507 42.3169C33.2333 41.9715 33.7187 42.0915 33.8587 42.3569C33.8707 42.3795 33.948 42.7809 34 43.2622C34.0547 43.7689 34.0773 43.9289 34.096 43.9702C34.108 43.9969 34.2707 44.0115 34.548 44.1822C34.7067 44.2809 34.8867 44.4075 34.9573 44.4475C35.416 44.7049 35.484 44.9635 35.4253 45.1329C35.368 45.3009 34.7053 44.9915 34.6213 44.9649C34.5373 44.9382 33.548 44.4155 33.4213 44.1782C33.26 43.8715 33.1507 43.3169 33.0707 42.7942C33.0653 42.7595 32.9907 42.4315 33.0507 42.3169Z" fill="#F8B88D"/>
<path d="M32.0222 41.2961C32.2049 40.9508 32.6902 41.0708 32.8302 41.3374C32.8409 41.3588 32.9195 41.7601 32.9715 42.2428C33.0262 42.7494 33.0489 42.9081 33.0675 42.9494C33.0795 42.9774 33.2422 42.9908 33.5195 43.1614C33.6782 43.2601 33.8582 43.3868 33.9275 43.4268C34.3875 43.6854 34.4555 43.9428 34.3969 44.1121C34.3382 44.2801 33.6769 43.9708 33.5929 43.9441C33.5089 43.9174 32.5195 43.3948 32.3929 43.1574C32.2302 42.8508 32.1222 42.2961 32.0422 41.7734C32.0369 41.7388 31.9609 41.4108 32.0222 41.2961Z" fill="#F8B88D"/>
<path d="M32.567 41.8899C32.7497 41.5459 33.235 41.6645 33.375 41.9312C33.387 41.9525 33.4657 42.3539 33.5163 42.8365C33.571 43.3432 33.5937 43.5019 33.6123 43.5432C33.6243 43.5712 33.787 43.5845 34.0643 43.7552C34.2243 43.8552 34.4043 43.9819 34.4737 44.0219C34.9323 44.2792 35.0003 44.5379 34.9417 44.7059C34.8843 44.8752 34.2217 44.5645 34.1377 44.5379C34.0537 44.5125 33.0643 43.9885 32.9377 43.7512C32.7763 43.4459 32.667 42.8899 32.5883 42.3685C32.5817 42.3325 32.507 42.0045 32.567 41.8899Z" fill="#F8B88D"/>
<path d="M29.7779 29.8756C29.7779 29.8756 30.6779 26.2716 33.3219 28.8422C33.3219 28.8422 33.4166 38.7249 33.4832 39.3889C33.4832 39.3889 32.5459 41.2369 31.7472 40.5396C30.9472 39.8436 29.7779 29.8756 29.7779 29.8756Z" fill="#F8B88D"/>
<path d="M36.8287 9.80131C36.8287 9.80131 37.3967 13.7906 36.5154 14.8933C36.5154 14.8933 37.4514 17.1733 39.8514 16.556C41.338 16.1733 41.75 15.5 41.75 15.5L41.8087 10.408L36.8287 9.80131Z" fill="#E1A780"/>
<path d="M35.2395 6.57863C35.2395 6.57863 34.8022 14.1466 41.1475 14.1613C42.8382 14.164 43.5382 12.6986 44.2368 10.188C44.6382 8.7413 44.7022 6.14663 44.0155 4.17463C43.2502 1.97863 41.9262 1.6533 40.1982 1.6533C35.1435 1.6533 35.2395 6.57863 35.2395 6.57863Z" fill="#F8B88D"/>
<path d="M36.377 9.80129C36.377 9.80129 36.441 14.5573 41.0343 14.5653C44.041 14.5693 44.4716 8.87862 44.4716 8.87862C44.4716 8.87862 44.1943 9.45462 44.0943 9.94129C43.9103 10.84 43.8543 13.8213 40.9543 13.8466C38.9863 13.8653 37.8156 12.464 37.0436 10.9466C36.7516 10.3733 36.829 9.80129 36.377 9.80129Z" fill="#333333"/>
<path d="M42.9609 3.21024C42.9609 3.21024 39.4383 6.77024 36.8809 6.39957C36.8809 6.39957 36.3569 9.45957 37.0823 11.1356C37.0823 11.1356 36.5889 10.9276 36.3769 9.80091C36.2916 9.34757 36.4036 8.48891 36.3769 7.82624C36.3769 7.82624 36.2209 7.34491 35.8609 7.27957C35.6849 7.24757 35.5169 7.37024 35.4769 7.54491C35.3743 7.99824 35.2329 9.09024 35.9903 9.97691C35.9903 9.97691 32.9876 8.73557 33.6556 5.62091C34.3223 2.50624 36.6236 -0.273758 39.8849 0.727575C39.8849 0.727575 41.5183 0.556909 42.7263 1.00491C44.4716 1.65291 45.8516 4.24757 44.5356 7.40091C44.5356 7.40091 43.9983 5.28757 42.9609 3.21024Z" fill="#333333"/>
</svg>
