<svg width="63" height="117" viewBox="0 0 63 117" fill="none" xmlns="http://www.w3.org/2000/svg">
<path d="M59.4091 18.494C59.4091 22.71 55.9918 26.1287 51.7758 26.1287C47.5598 26.1287 44.1425 22.71 44.1425 18.494C44.1425 14.278 47.5598 10.8607 51.7758 10.8607C55.9918 10.8607 59.4091 14.278 59.4091 18.494Z" fill="white"/>
<path d="M62.4464 26.8547C62.4464 31.0707 59.029 34.488 54.813 34.488C50.597 34.488 47.1797 31.0707 47.1797 26.8547C47.1797 22.6387 50.597 19.22 54.813 19.22C59.029 19.22 62.4464 22.6387 62.4464 26.8547Z" fill="white"/>
<path d="M58.0205 36.7596C58.0205 40.9756 54.6031 44.3929 50.3871 44.3929C46.1711 44.3929 42.7538 40.9756 42.7538 36.7596C42.7538 32.5436 46.1711 29.1249 50.3871 29.1249C54.6031 29.1249 58.0205 32.5436 58.0205 36.7596Z" fill="white"/>
<mask id="mask0_3_11" style="mask-type:luminance" maskUnits="userSpaceOnUse" x="1" y="-18" width="103" height="144">
<path d="M1.21069 -18H103.029V126H1.21069V-18Z" fill="white"/>
</mask>
<g mask="url(#mask0_3_11)">
<path d="M13.6189 73.4602C13.6189 73.4602 14.8016 81.7616 12.9656 84.0562C12.9656 84.0562 14.9149 88.8002 19.9082 87.5162C23.0016 86.7202 23.8602 85.3202 23.8602 85.3202L23.9829 74.7229L13.6189 73.4602Z" fill="#E1A780"/>
<path d="M10.3122 66.7545C10.3122 66.7545 9.40154 82.5038 22.6055 82.5305C26.1229 82.5385 27.5802 79.4892 29.0322 74.2638C29.8682 71.2545 30.0015 65.8545 28.5735 61.7532C26.9802 57.1812 24.2269 56.5052 20.6295 56.5052C10.1135 56.5052 10.3122 66.7545 10.3122 66.7545Z" fill="#F8B88D"/>
<path d="M26.3792 59.7454C26.3792 59.7454 19.0486 67.1521 13.7259 66.3801C13.7259 66.3801 12.6366 72.7481 14.1459 76.2361C14.1459 76.2361 13.1206 75.8054 12.6792 73.4601C12.5006 72.5134 12.7326 70.7294 12.6792 69.3494C12.6792 69.3494 12.3526 68.3468 11.6032 68.2134C11.2379 68.1481 10.8886 68.4014 10.8059 68.7641C10.5899 69.7081 10.2979 71.9828 11.8752 73.8268C11.8752 73.8268 5.62592 71.2401 7.01525 64.7601C8.40325 58.2788 13.1912 52.4948 19.9779 54.5761C19.9779 54.5761 23.3779 54.2214 25.8899 55.1561C29.5219 56.5041 32.3952 61.9054 29.6566 68.4628C29.6566 68.4628 28.5379 64.0654 26.3792 59.7454Z" fill="#333333"/>
<path d="M12.6306 72.9367C12.6306 72.9367 12.7653 82.898 22.3826 82.9114C28.6773 82.922 29.5799 71.0047 29.5799 71.0047C29.5799 71.0047 28.9999 72.2114 28.7906 73.2314C28.4053 75.1114 28.2879 81.3527 22.2159 81.4087C18.0933 81.446 15.6426 78.5127 14.0279 75.3367C13.4159 74.134 13.5773 72.9367 12.6306 72.9367Z" fill="#333333"/>
<path d="M58.594 24.7413C58.594 34.5867 46.186 42.5667 30.8793 42.5667C15.574 42.5667 3.16602 34.5867 3.16602 24.7413C3.16602 14.896 15.574 6.91598 30.8793 6.91598C46.186 6.91598 58.594 14.896 58.594 24.7413Z" fill="white"/>
<path d="M19.3948 14.0031C19.3948 18.2178 15.9775 21.6365 11.7615 21.6365C7.54551 21.6365 4.12817 18.2178 4.12817 14.0031C4.12817 9.78714 7.54551 6.36848 11.7615 6.36848C15.9775 6.36848 19.3948 9.78714 19.3948 14.0031Z" fill="white"/>
<path d="M27.0283 14.0031C27.0283 18.2178 23.6109 21.6365 19.3949 21.6365C15.1789 21.6365 11.7616 18.2178 11.7616 14.0031C11.7616 9.78714 15.1789 6.36848 19.3949 6.36848C23.6109 6.36848 27.0283 9.78714 27.0283 14.0031Z" fill="white"/>
<path d="M36.5093 8.51865C36.5093 12.7347 33.092 16.1533 28.876 16.1533C24.66 16.1533 21.2427 12.7347 21.2427 8.51865C21.2427 4.30399 24.66 0.885321 28.876 0.885321C33.092 0.885321 36.5093 4.30399 36.5093 8.51865Z" fill="white"/>
<path d="M44.1429 12.1034C44.1429 16.3194 40.7256 19.738 36.5096 19.738C32.2936 19.738 28.8762 16.3194 28.8762 12.1034C28.8762 7.88737 32.2936 4.47004 36.5096 4.47004C40.7256 4.47004 44.1429 7.88737 44.1429 12.1034Z" fill="white"/>
<path d="M53.6234 14.0031C53.6234 18.2178 50.206 21.6365 45.99 21.6365C41.774 21.6365 38.3567 18.2178 38.3567 14.0031C38.3567 9.78714 41.774 6.36848 45.99 6.36848C50.206 6.36848 53.6234 9.78714 53.6234 14.0031Z" fill="white"/>
<path d="M50.387 36.5252C50.387 40.7412 46.9697 44.1586 42.7537 44.1586C38.5377 44.1586 35.1204 40.7412 35.1204 36.5252C35.1204 32.3092 38.5377 28.8906 42.7537 28.8906C46.9697 28.8906 50.387 32.3092 50.387 36.5252Z" fill="white"/>
<path d="M45.9898 39.2049C45.9898 43.4209 42.5725 46.8396 38.3565 46.8396C34.1405 46.8396 30.7231 43.4209 30.7231 39.2049C30.7231 34.9889 34.1405 31.5716 38.3565 31.5716C42.5725 31.5716 45.9898 34.9889 45.9898 39.2049Z" fill="white"/>
<path d="M36.5093 40.158C36.5093 44.374 33.092 47.7914 28.876 47.7914C24.66 47.7914 21.2427 44.374 21.2427 40.158C21.2427 35.942 24.66 32.5234 28.876 32.5234C33.092 32.5234 36.5093 35.942 36.5093 40.158Z" fill="white"/>
<path d="M27.0283 38.4094C27.0283 42.6254 23.6109 46.0441 19.3949 46.0441C15.1789 46.0441 11.7616 42.6254 11.7616 38.4094C11.7616 34.1934 15.1789 30.7761 19.3949 30.7761C23.6109 30.7761 27.0283 34.1934 27.0283 38.4094Z" fill="white"/>
<path d="M16.4664 34.7673C16.4664 38.982 13.049 42.4006 8.83304 42.4006C4.61704 42.4006 1.19971 38.982 1.19971 34.7673C1.19971 30.5513 4.61704 27.1326 8.83304 27.1326C13.049 27.1326 16.4664 30.5513 16.4664 34.7673Z" fill="white"/>
<path d="M49.8649 53.9314C49.8649 57.0914 47.3036 59.6541 44.1422 59.6541C40.9822 59.6541 38.4209 57.0914 38.4209 53.9314C38.4209 50.7714 40.9822 48.2087 44.1422 48.2087C47.3036 48.2087 49.8649 50.7714 49.8649 53.9314Z" fill="white"/>
<path d="M39.2079 63.994C39.2079 65.6273 37.8852 66.95 36.2519 66.95C34.6199 66.95 33.2972 65.6273 33.2972 63.994C33.2972 62.362 34.6199 61.038 36.2519 61.038C37.8852 61.038 39.2079 62.362 39.2079 63.994Z" fill="white"/>
<path d="M11.7613 23.3195C11.7613 27.5355 8.34396 30.9529 4.12796 30.9529C-0.0880377 30.9529 -3.50537 27.5355 -3.50537 23.3195C-3.50537 19.1035 -0.0880377 15.6849 4.12796 15.6849C8.34396 15.6849 11.7613 19.1035 11.7613 23.3195Z" fill="white"/>
<path d="M28.9163 33.507L15.9336 26.011V17.1323L28.9163 24.6283V33.507Z" fill="#564943"/>
<path d="M28.9163 36.1111V39.6191L15.9336 32.1245V28.6151L28.9163 36.1111Z" fill="#564943"/>
<path d="M28.9163 36.3911L15.9336 28.8951V26.0111L28.9163 33.5071V36.3911Z" fill="#564943"/>
<path d="M28.9163 29.7948L15.9336 22.2988V21.1281L28.9163 28.6241V29.7948Z" fill="#FD7F22"/>
<path d="M20.5844 26.5721L18.071 25.1201V24.0748L20.5844 25.5268V26.5721Z" fill="#FD7F22"/>
<path d="M25.6885 29.5187L23.1738 28.0667V27.0213L25.6885 28.4733V29.5187Z" fill="#FD7F22"/>
<path d="M28.9162 31.3821L27.8442 30.7634V29.7181L28.9162 30.3381V31.3821Z" fill="#FD7F22"/>
<path d="M17.3922 24.3091C17.3922 24.1318 17.3095 23.9291 17.1842 23.7731C17.1962 23.7491 17.2015 23.7184 17.2015 23.6824C17.2015 23.5384 16.9748 23.2878 16.9748 23.2878C16.9748 23.2878 16.7468 23.2758 16.7468 23.4198C16.7468 23.4558 16.7535 23.4931 16.7628 23.5304C16.6402 23.5424 16.5562 23.6491 16.5562 23.8278C16.5562 24.0318 16.6682 24.2718 16.8242 24.4318C16.8202 24.4464 16.8162 24.4611 16.8162 24.4798C16.8162 24.5798 16.8868 24.7024 16.9748 24.7518C17.0602 24.8024 17.1308 24.7611 17.1308 24.6611C17.1308 24.6424 17.1282 24.6238 17.1242 24.6051C17.2815 24.6251 17.3922 24.5144 17.3922 24.3091Z" fill="#FD7F22"/>
<path d="M22.2966 27.141C22.2966 26.9623 22.2139 26.7596 22.0886 26.605C22.1006 26.5796 22.1059 26.5503 22.1059 26.5143C22.1059 26.369 21.8792 26.1196 21.8792 26.1196C21.8792 26.1196 21.6512 26.1063 21.6512 26.2516C21.6512 26.2863 21.6566 26.325 21.6672 26.361C21.5446 26.373 21.4606 26.4796 21.4606 26.6583C21.4606 26.8636 21.5712 27.1036 21.7286 27.2636C21.7232 27.2783 21.7206 27.2916 21.7206 27.3103C21.7206 27.4103 21.7912 27.533 21.8792 27.5836C21.9646 27.633 22.0352 27.593 22.0352 27.493C22.0352 27.4743 22.0326 27.4543 22.0286 27.437C22.1859 27.457 22.2966 27.3463 22.2966 27.141Z" fill="#FD7F22"/>
<path d="M27.1878 29.9654C27.1878 29.7868 27.1051 29.5841 26.9798 29.4294C26.9918 29.4041 26.9971 29.3748 26.9971 29.3388C26.9971 29.1934 26.7705 28.9441 26.7705 28.9441C26.7705 28.9441 26.5425 28.9308 26.5425 29.0761C26.5425 29.1108 26.5491 29.1494 26.5585 29.1854C26.4358 29.1974 26.3518 29.3041 26.3518 29.4828C26.3518 29.6881 26.4638 29.9281 26.6198 30.0881C26.6158 30.1028 26.6118 30.1161 26.6118 30.1348C26.6118 30.2348 26.6825 30.3574 26.7705 30.4081C26.8558 30.4574 26.9278 30.4174 26.9278 30.3174C26.9278 30.2988 26.9238 30.2788 26.9198 30.2614C27.0771 30.2814 27.1878 30.1708 27.1878 29.9654Z" fill="#FD7F22"/>
<path d="M28.835 33.5538L41.819 26.0592V17.1792L28.835 24.6752V33.5538Z" fill="#201814"/>
<path d="M28.835 36.158V39.6674L41.819 32.1714V28.6634L28.835 36.158Z" fill="#201814"/>
<path d="M28.835 36.438L41.819 28.942V26.0593L28.835 33.554V36.438Z" fill="#201814"/>
<path d="M28.835 29.8416L41.819 22.3456V21.1749L28.835 28.6709V29.8416Z" fill="#B25214"/>
<path d="M37.2151 26.5903L40.0191 24.9717V23.9277L37.2151 25.5463V26.5903Z" fill="#B25214"/>
<path d="M32.0809 29.7075L35.4543 27.6889V26.6449L32.0809 28.6635V29.7075Z" fill="#B25214"/>
<path d="M28.835 31.4288L29.907 30.8102V29.7648L28.835 30.3848V31.4288Z" fill="#B25214"/>
<path d="M40.3589 24.3573C40.3589 24.1786 40.4416 23.976 40.5669 23.82C40.5549 23.796 40.5496 23.7666 40.5496 23.7293C40.5496 23.5853 40.7762 23.336 40.7762 23.336C40.7762 23.336 41.0042 23.3226 41.0042 23.468C41.0042 23.5026 40.9989 23.54 40.9882 23.5773C41.1109 23.5893 41.1949 23.696 41.1949 23.8746C41.1949 24.0786 41.0842 24.3186 40.9269 24.4786C40.9309 24.4933 40.9349 24.508 40.9349 24.5266C40.9349 24.6266 40.8642 24.7493 40.7762 24.7986C40.6909 24.8493 40.6202 24.808 40.6202 24.708C40.6202 24.6906 40.6229 24.6706 40.6269 24.652C40.4696 24.672 40.3589 24.5613 40.3589 24.3573Z" fill="#B25214"/>
<path d="M35.9136 26.9237C35.9136 26.745 35.9962 26.5424 36.1216 26.3864C36.1096 26.3624 36.1042 26.333 36.1042 26.297C36.1042 26.1517 36.3309 25.9024 36.3309 25.9024C36.3309 25.9024 36.5589 25.889 36.5589 26.0344C36.5589 26.069 36.5536 26.1064 36.5429 26.1437C36.6656 26.1557 36.7496 26.2624 36.7496 26.441C36.7496 26.6464 36.6389 26.885 36.4816 27.045C36.4856 27.0597 36.4896 27.0744 36.4896 27.093C36.4896 27.193 36.4189 27.3157 36.3309 27.365C36.2456 27.4157 36.1749 27.3757 36.1749 27.2744C36.1749 27.257 36.1776 27.237 36.1816 27.2197C36.0242 27.2384 35.9136 27.1277 35.9136 26.9237Z" fill="#B25214"/>
<path d="M30.5634 30.0121C30.5634 29.8334 30.646 29.6307 30.7714 29.4761C30.7594 29.4507 30.754 29.4214 30.754 29.3854C30.754 29.2401 30.9807 28.9907 30.9807 28.9907C30.9807 28.9907 31.2087 28.9774 31.2087 29.1227C31.2087 29.1574 31.202 29.1961 31.1927 29.2321C31.3154 29.2441 31.3994 29.3507 31.3994 29.5294C31.3994 29.7347 31.2874 29.9747 31.1314 30.1347C31.1354 30.1494 31.1394 30.1627 31.1394 30.1814C31.1394 30.2814 31.0687 30.4041 30.9807 30.4547C30.8954 30.5041 30.8234 30.4641 30.8234 30.3641C30.8234 30.3454 30.8274 30.3254 30.8314 30.3081C30.674 30.3281 30.5634 30.2174 30.5634 30.0121Z" fill="#B25214"/>
<path d="M28.9162 9.72963L41.8189 17.179L28.9162 24.6283L16.0149 17.179L28.9162 9.72963Z" fill="#6A5C55"/>
<path d="M28.7607 10.4367L40.2994 17.0981L28.7607 23.7607L17.222 17.0981L28.7607 10.4367Z" fill="#E2E3DA"/>
<path d="M28.7855 11.4888L39.4121 17.6248L28.7855 23.7582L18.1588 17.6248L28.7855 11.4888Z" fill="#555563"/>
<path d="M28.7855 11.5473L39.4121 17.6833L28.7855 23.818L18.1588 17.6833L28.7855 11.5473Z" fill="#A3A3B3"/>
</g>
<mask id="mask1_3_11" style="mask-type:luminance" maskUnits="userSpaceOnUse" x="0" y="53" width="40" height="64">
<path d="M0 53.932V116.925L39.4547 95.5613L39.1387 53.932H0Z" fill="white"/>
</mask>
<g mask="url(#mask1_3_11)">
<path d="M30.4832 84.8364C27.3152 85.307 25.1272 88.255 25.5966 91.4244C26.0659 94.5924 29.0152 96.7804 32.1846 96.3097C35.3526 95.8417 37.5406 92.891 37.0712 89.723C36.6006 86.555 33.6512 84.367 30.4832 84.8364Z" fill="#364683"/>
<path d="M33.4671 104.961C30.2991 105.431 28.1111 108.38 28.5805 111.548C29.0498 114.716 32.0005 116.904 35.1685 116.435C38.3365 115.965 40.5245 113.016 40.0551 109.847C39.5845 106.679 36.6351 104.491 33.4671 104.961Z" fill="#364683"/>
<path d="M28.5809 111.549L25.5969 91.4247L37.0716 89.7234L40.0543 109.847L28.5809 111.549Z" fill="#364683"/>
<path d="M5.93527 101.254C6.4846 101.516 7.08593 101.692 7.72193 101.773C10.9033 102.157 13.7913 99.889 14.1766 96.7077C14.5393 93.7224 12.5619 90.993 9.68593 90.3557C9.4966 90.3117 9.30593 90.277 9.11127 90.2544C5.93127 89.873 3.04327 92.1384 2.65793 95.3184C2.3526 97.8624 3.7406 100.22 5.93527 101.254Z" fill="#364683"/>
<path d="M-0.353922 116.605C0.0434111 119.094 2.04741 121.125 4.67541 121.443C5.29008 121.519 5.89141 121.491 6.46608 121.386C8.23141 121.045 9.74474 119.895 10.5447 118.299C10.8461 117.714 11.0447 117.069 11.1287 116.378C11.5141 113.198 9.24474 110.31 6.06341 109.929C5.98474 109.921 5.90874 109.911 5.83408 109.907C2.74741 109.655 -0.0139223 111.885 -0.389922 114.99C-0.455256 115.542 -0.441922 116.082 -0.353922 116.605Z" fill="#364683"/>
<path d="M-0.389648 114.99L6.15702 115.777L11.129 116.378L13.5664 96.1819L5.17968 95.1686L2.04768 94.7939L-0.389648 114.99Z" fill="#364683"/>
<path d="M13.6467 88.2921C13.6467 88.2921 7.2574 90.4748 5.1654 90.6561C3.0734 90.8388 0.11473 99.6668 -2.3186 107.469C-2.3186 107.469 7.87073 123.088 34.8454 121.169L36.1734 98.2428L13.6467 88.2921Z" fill="#364683"/>
<path d="M0.35052 109.46L-0.400146 109.942L-0.280146 118.356L-0.000146492 121.112L2.06385 121.422L4.64785 120.488L8.07319 118.266L10.0265 116.162L4.76785 112.075L0.35052 109.46Z" fill="#364683"/>
<path d="M15.9769 87.5877C15.9769 87.5877 16.3155 88.3757 16.5155 88.6397C16.6475 88.8157 16.9382 89.149 17.0995 89.2984C17.2795 89.465 17.6582 89.7877 17.8809 89.8904C18.1435 90.0104 18.7222 90.1077 19.0089 90.1384C19.3195 90.1717 19.9475 90.1797 20.2569 90.1384C20.5462 90.0997 21.1155 89.941 21.3849 89.8277C21.7329 89.6797 22.4155 89.3237 22.6915 89.065C22.8875 88.8837 23.1849 88.425 23.2942 88.1797C23.4435 87.8464 23.5982 87.1237 23.6422 86.7624C23.6769 86.461 23.6969 85.3504 23.6969 85.3504L29.1289 83.953C29.1289 83.953 34.8355 84.141 36.2675 87.5224C36.2675 87.5224 36.8689 88.365 37.1769 90.437C37.4835 92.5077 38.5622 99.7797 38.5622 99.7797L33.3555 102.44L22.3929 101.821L13.5129 90.277L13.0049 88.5077L15.9769 87.5877Z" fill="#364683"/>
<mask id="mask2_3_11" style="mask-type:luminance" maskUnits="userSpaceOnUse" x="9" y="101" width="3" height="13">
<path d="M9.87 101.773H11.9713V113.081H9.87V101.773Z" fill="white"/>
</mask>
<g mask="url(#mask2_3_11)">
<g opacity="0.5">
<mask id="mask3_3_11" style="mask-type:luminance" maskUnits="userSpaceOnUse" x="9" y="101" width="3" height="13">
<path d="M9.87061 113.081H11.9719V101.775H9.87061V113.081Z" fill="white"/>
</mask>
<g mask="url(#mask3_3_11)">
<path d="M9.87 101.774L10.0273 113.081L11.9713 112.178L9.87 101.774Z" fill="#231F20"/>
</g>
</g>
</g>
<mask id="mask4_3_11" style="mask-type:luminance" maskUnits="userSpaceOnUse" x="30" y="94" width="4" height="12">
<path d="M30.9768 94.1839H33.0781V105.491H30.9768V94.1839Z" fill="white"/>
</mask>
<g mask="url(#mask4_3_11)">
<g opacity="0.5">
<mask id="mask5_3_11" style="mask-type:luminance" maskUnits="userSpaceOnUse" x="30" y="94" width="4" height="12">
<path d="M30.9773 105.491H33.0786V94.1839H30.9773V105.491Z" fill="white"/>
</mask>
<g mask="url(#mask5_3_11)">
<path d="M30.9768 94.1839L31.1341 105.489L33.0781 104.587L30.9768 94.1839Z" fill="#231F20"/>
</g>
</g>
</g>
</g>
</svg>
