<svg width="56" height="79" viewBox="0 0 56 79" fill="none" xmlns="http://www.w3.org/2000/svg">
<path d="M29.3248 68.8456C30.3061 69.4136 30.3061 70.3309 29.3248 70.8989L16.9835 78.0243C16.0021 78.5909 14.4101 78.5909 13.4288 78.0243L1.08746 70.8989C0.104797 70.3309 0.104797 69.4136 1.08746 68.8456L13.4288 61.7203C14.4101 61.1536 16.0021 61.1536 16.9835 61.7203L29.3248 68.8456Z" fill="#027FD2"/>
<path d="M54.6952 68.8456C55.6765 69.4136 55.6765 70.3309 54.6952 70.8989L42.3539 78.0243C41.3726 78.5909 39.7806 78.5909 38.7992 78.0243L26.4579 70.8989C25.4752 70.3309 25.4752 69.4136 26.4579 68.8456L38.7992 61.7203C39.7806 61.1536 41.3726 61.1536 42.3539 61.7203L54.6952 68.8456Z" fill="#027FD2"/>
<path d="M17.2656 15.136C17.2656 15.136 17.6936 14.0826 19.1696 14.08C20.6256 14.076 21.0763 20.792 21.0723 22.8226C21.0723 22.8226 19.0216 25.252 18.2163 23.6946C17.2163 21.7613 17.2656 15.136 17.2656 15.136Z" fill="#BCBDBE"/>
<path d="M21.608 32.0084C21.608 32.9284 21.0454 33.283 21.0307 33.7644C21.0174 34.231 20.9694 34.735 21.0627 35.0617C21.1574 35.3884 21.3867 35.791 21.3534 36.063C21.3307 36.2564 21.156 36.691 21.2414 36.743C21.3267 36.7937 21.64 36.7097 21.7827 36.3057C21.9227 35.9057 21.876 35.8577 21.848 35.6657C21.82 35.475 21.7174 35.2137 21.8187 35.3417C21.92 35.4697 22.0454 35.8217 22.1854 36.2817C22.3267 36.7404 22.3934 36.8777 22.3947 36.9217C22.396 36.9497 22.3347 37.051 22.2467 37.343C22.196 37.5097 22.1494 37.711 22.1254 37.7817C21.964 38.2457 22.0694 38.4777 22.2067 38.567C22.344 38.6577 22.612 38.0364 22.6534 37.967C22.6947 37.8964 23.012 37.063 23.016 36.807C23.0214 36.479 22.8827 35.9617 22.736 35.4857C22.6587 35.235 23.844 34.5644 23.7254 33.767C23.608 32.971 23.2694 32.3137 23.172 31.8577C23.076 31.4004 22.9694 30.8964 22.9694 30.8964L21.4827 31.1804C21.4827 31.1804 21.608 31.615 21.608 32.0084Z" fill="#E1A780"/>
<path d="M23.123 34.7532C22.839 34.5398 22.5003 34.8492 22.4977 35.1345C22.4963 35.1585 22.5963 35.5318 22.7497 35.9612C22.911 36.4145 22.959 36.5585 22.959 36.6025C22.9603 36.6292 22.8377 36.7118 22.6857 36.9758C22.599 37.1278 22.5083 37.3132 22.4683 37.3758C22.207 37.7918 22.2577 38.0412 22.3723 38.1585C22.487 38.2758 22.8883 37.7278 22.9443 37.6705C23.0003 37.6118 23.5763 36.7425 23.5803 36.4878C23.5857 36.1598 23.447 35.6425 23.3003 35.1665C23.2897 35.1332 23.2177 34.8238 23.123 34.7532Z" fill="#E1A780"/>
<path d="M23.5286 33.4458C23.2446 33.2325 22.9059 33.5418 22.9033 33.8285C22.9019 33.8525 23.0019 34.2245 23.1553 34.6552C23.3166 35.1072 23.3646 35.2512 23.3659 35.2952C23.3659 35.3232 23.2433 35.4058 23.0926 35.6698C23.0046 35.8205 22.9139 36.0072 22.8739 36.0698C22.6126 36.4858 22.6646 36.7338 22.7779 36.8525C22.8926 36.9698 23.2939 36.4205 23.3499 36.3632C23.4059 36.3058 23.9819 35.4365 23.9859 35.1818C23.9913 34.8525 23.8539 34.3352 23.7059 33.8605C23.6953 33.8272 23.6233 33.5178 23.5286 33.4458Z" fill="#E1A780"/>
<path d="M23.3352 34.1841C23.0512 33.9708 22.7125 34.2801 22.7085 34.5655C22.7085 34.5895 22.8085 34.9628 22.9619 35.3921C23.1232 35.8455 23.1699 35.9895 23.1712 36.0335C23.1725 36.0601 23.0499 36.1428 22.8979 36.4068C22.8112 36.5588 22.7205 36.7441 22.6805 36.8068C22.4192 37.2228 22.4699 37.4721 22.5845 37.5895C22.6992 37.7068 23.1005 37.1588 23.1565 37.1015C23.2125 37.0428 23.7885 36.1735 23.7925 35.9188C23.7979 35.5908 23.6592 35.0735 23.5125 34.5975C23.5019 34.5641 23.4299 34.2548 23.3352 34.1841Z" fill="#E1A780"/>
<path d="M18.2162 23.6945C18.2162 23.6945 19.1602 21.7998 21.0735 22.8225C21.0735 22.8225 23.0442 31.4091 23.2135 32.0158C23.2135 32.0158 21.9069 33.6385 21.0815 32.8451C20.4869 32.2745 18.2162 23.6945 18.2162 23.6945Z" fill="#BCBDBE"/>
<path d="M13.1387 32.7518C13.1387 32.7518 18.112 28.1038 20.0654 32.8452C20.0654 32.8452 20.3267 40.4038 20.096 42.1825C19.8427 44.1385 19.7654 46.5025 19.6507 47.7705C19.5494 48.8918 18.8387 49.7278 18.0014 49.6972C16.752 49.6505 15.14 49.2732 14.8987 47.6678C14.7774 46.8572 14.1854 45.4692 14.0654 43.3905C13.9587 41.5212 12.9534 38.9065 12.9467 37.1398C12.94 34.8345 13.1387 32.7518 13.1387 32.7518Z" fill="#343434"/>
<path d="M16.2447 61.1543L16.7327 66.1263C16.7327 66.1263 17.626 66.6943 18.7714 66.0516L19.1234 61.5129C19.1234 61.5129 17.1114 62.2276 16.2447 61.1543Z" fill="#D4D4D4"/>
<path d="M14.856 47.054C14.856 47.054 17.7147 44.0807 19.6507 47.77C19.6734 47.51 19.12 61.6527 19 64.046C19 64.046 18.7454 64.7287 17.7454 64.7287C16.9654 64.7287 16.5147 64.2394 16.5147 64.2394C16.5147 64.2394 14.1 50.3594 14.856 47.054Z" fill="#343434"/>
<path d="M7.51882 33.9628C7.51882 33.9628 14.2975 30.5694 16.2442 35.6134C16.2442 35.6134 14.9082 42.5214 14.6788 44.4134C14.4268 46.4921 13.6535 48.4281 13.5388 49.7761C13.4375 50.9708 12.7295 51.8588 11.8962 51.8254C10.6522 51.7761 9.04549 51.3748 8.80549 49.6668C8.68415 48.8054 8.71749 47.9894 8.60015 45.7788C8.49215 43.7894 7.34682 40.9161 7.34015 39.0374C7.33215 36.5841 7.51882 33.9628 7.51882 33.9628Z" fill="#3D3D3D"/>
<path d="M11.3958 10.2401C11.3958 10.2401 12.4491 13.6028 11.0891 15.2175C11.0891 15.2175 12.0051 17.4468 14.3504 16.8428C15.8038 16.4695 16.2064 15.8121 16.2064 15.8121C16.2064 15.8121 15.3784 14.0761 16.2838 11.2401C16.6571 10.0721 11.3958 10.2401 11.3958 10.2401Z" fill="#E1A780"/>
<path d="M10.015 64.4915L10.4976 69.6181C10.4976 69.6181 11.7736 70.3861 12.3696 69.2035L12.5336 64.7048C12.5336 64.7048 10.791 65.5568 10.015 64.4915Z" fill="#D4D4D4"/>
<path d="M8.76229 49.0136C8.76229 49.0136 11.6103 45.8509 13.5396 49.7762C13.561 49.4989 12.8703 64.9336 12.7516 67.4816C12.7516 67.4816 12.9063 67.8442 11.553 67.8442C10.593 67.8442 10.245 67.3549 10.245 67.3549C10.245 67.3549 7.51296 53.8216 8.76229 49.0136Z" fill="#3D3D3D"/>
<path d="M13.4895 71.5097C12.9548 70.2431 12.4468 68.7444 12.3948 68.4991L10.4641 68.4431C10.4641 68.4431 10.0281 69.0551 10.0148 69.8644C10.0055 70.4831 10.1641 70.9951 10.1681 71.8631C10.1708 72.4617 10.4335 73.1831 11.0575 73.7031C11.5521 74.1151 12.4215 74.3471 13.2908 74.0511C13.9321 73.8337 13.9015 72.4857 13.4895 71.5097Z" fill="#D4D4D4"/>
<path d="M22.9576 70.3703C22.7696 70.009 21.7243 68.537 19.2829 66.757C18.6109 66.0263 18.8309 65.2743 18.8309 65.2743C18.8309 65.2743 17.4709 64.8583 16.6669 65.4543C16.6669 65.4543 16.6909 65.6917 16.7056 65.9877C16.6096 66.0917 16.5136 66.2423 16.4349 66.465C16.1296 67.3277 16.4696 69.217 16.3723 69.5277C16.3723 69.5277 17.7936 69.8183 18.4709 70.313C19.0856 70.7637 20.2896 71.0317 21.0323 71.2503C22.9576 71.817 23.2243 70.8823 22.9576 70.3703Z" fill="#D4D4D4"/>
<path d="M19.8892 31.8795C19.6252 30.6541 19.0919 28.2595 18.9892 26.8901C18.8439 24.9781 20.2986 23.8048 20.2986 21.5741C20.2986 19.1928 19.7519 19.2208 19.4559 17.5701C19.1052 15.6248 19.6186 14.2515 19.6186 14.2515C19.3132 13.5795 17.6986 14.5395 16.3026 14.5021C12.0372 14.3835 12.3612 14.1408 12.3612 14.1408C12.3612 14.1408 10.1506 14.3488 8.2159 16.6288C7.80123 17.1168 7.60657 17.7528 7.66523 18.3915C7.7959 19.8115 8.98257 31.3168 6.8479 35.8581C5.80123 38.0848 5.3799 44.6995 5.5479 50.1608C5.85057 59.9555 7.5119 68.4435 7.5119 68.4435C7.5119 68.4435 12.5452 72.8061 21.0719 64.4915C21.0719 64.4915 21.5026 35.8648 19.8892 31.8795Z" fill="#E6E6E6"/>
<path d="M7.28055 17.8079C7.28055 17.8079 7.69655 16.6359 9.08855 17.0292C11.1419 17.6105 7.99255 28.2692 7.99255 28.2692C7.99255 28.2692 5.05922 29.9305 4.77655 28.1279C4.42589 25.8905 7.28055 17.8079 7.28055 17.8079Z" fill="#E6E6E6"/>
<path d="M6.00055 39.4043C6.00055 39.4043 14.1205 44.0389 21.0059 39.0949C21.0059 39.0949 8.04855 33.4536 6.00055 39.4043Z" fill="#CBCCCC"/>
<path d="M8.13082 37.4551C8.51348 38.3017 9.14815 38.3471 9.36015 38.7817C9.56548 39.2031 9.81615 39.6431 9.86948 39.9871C9.92415 40.3337 9.89082 40.8177 10.0335 41.0511C10.1335 41.2164 10.4641 41.5297 10.4121 41.6191C10.3588 41.7084 10.0521 41.7884 9.76015 41.4857C9.47215 41.1897 9.49348 41.1217 9.43882 40.9311C9.38415 40.7431 9.36548 40.4524 9.32948 40.6204C9.29482 40.7884 9.33215 41.1737 9.40148 41.6644C9.46948 42.1551 9.46682 42.3164 9.48415 42.3564C9.49482 42.3831 9.58948 42.4457 9.78815 42.6697C9.90015 42.7991 10.0255 42.9591 10.0748 43.0111C10.4081 43.3577 10.4121 43.6231 10.3308 43.7737C10.2481 43.9257 9.75882 43.4857 9.69348 43.4431C9.62815 43.4004 9.00815 42.7924 8.89882 42.5591C8.75748 42.2604 8.66282 41.7177 8.59348 41.2071C8.55615 40.9377 7.24948 40.9124 7.02148 40.1217C6.79348 39.3311 6.81482 38.5604 6.70948 38.0937C6.60282 37.6271 6.48682 37.1111 6.48682 37.1111L7.89615 36.6337C7.89615 36.6337 7.96682 37.0937 8.13082 37.4551Z" fill="#F8B88D"/>
<path d="M7.95308 40.7272C8.11175 40.3898 8.53442 40.5072 8.65442 40.7672C8.66508 40.7885 8.73308 41.1805 8.77842 41.6512C8.82508 42.1458 8.84375 42.3032 8.86108 42.3432C8.87175 42.3698 9.01308 42.3832 9.25442 42.5512C9.39308 42.6472 9.54908 42.7712 9.60908 42.8098C10.0091 43.0618 10.0664 43.3152 10.0171 43.4792C9.96642 43.6445 9.39042 43.3418 9.31708 43.3152C9.24508 43.2898 8.38508 42.7792 8.27575 42.5458C8.13442 42.2485 8.03975 41.7045 7.97042 41.1952C7.96642 41.1592 7.89975 40.8392 7.95308 40.7272Z" fill="#F8B88D"/>
<path d="M7.05921 39.7297C7.21788 39.3924 7.64054 39.5084 7.76054 39.7684C7.77121 39.7911 7.83921 40.1831 7.88454 40.6537C7.93121 41.1484 7.94988 41.3057 7.96721 41.3457C7.97788 41.3711 8.11921 41.3857 8.36054 41.5537C8.49788 41.6484 8.65521 41.7737 8.71521 41.8124C9.11521 42.0644 9.17254 42.3177 9.12321 42.4817C9.07254 42.6471 8.49654 42.3444 8.42321 42.3177C8.35121 42.2924 7.49121 41.7804 7.38188 41.5484C7.24054 41.2497 7.14588 40.7057 7.07654 40.1977C7.07121 40.1617 7.00588 39.8417 7.05921 39.7297Z" fill="#F8B88D"/>
<path d="M7.53255 40.3106C7.69122 39.9732 8.11388 40.0892 8.23522 40.3506C8.24455 40.3719 8.31255 40.7639 8.35788 41.2346C8.40588 41.7292 8.42455 41.8866 8.44188 41.9266C8.45255 41.9519 8.59255 41.9666 8.83388 42.1346C8.97255 42.2292 9.12855 42.3546 9.18855 42.3932C9.58855 42.6452 9.64722 42.8986 9.59655 43.0626C9.54588 43.2279 8.97122 42.9252 8.89788 42.8986C8.82455 42.8732 7.96455 42.3626 7.85522 42.1292C7.71388 41.8306 7.61922 41.2866 7.54988 40.7786C7.54588 40.7426 7.47922 40.4226 7.53255 40.3106Z" fill="#F8B88D"/>
<path d="M4.77667 28.1282C4.77667 28.1282 6.33667 26.8415 7.99267 28.2682C7.99267 28.2682 8.27134 37.2148 8.32867 37.8642C8.32867 37.8642 6.71267 38.8562 6.01801 38.1748C5.32334 37.4935 4.77667 28.1282 4.77667 28.1282Z" fill="#E6E6E6"/>
<path d="M20.75 14.2505C20.094 12.6039 19.1687 12.5065 19.1687 12.5065C19.1687 12.5065 21.6394 5.14654 17.458 2.03588C16.026 0.970545 14.5034 0.774545 12.8047 1.31854C11.286 1.80521 9.54469 2.88921 9.31136 5.29988C9.31136 5.29988 9.89536 13.9025 7.12869 17.9705C6.75136 18.5239 6.18202 19.9852 5.84602 21.2639C4.05269 28.0972 2.53669 36.9265 3.55669 38.5759C3.55669 38.5759 7.37802 40.4119 13.6954 40.2199C22.8434 39.9399 25.9994 36.4279 25.9994 36.4279C25.9994 36.4279 21.7247 16.6972 20.75 14.2505Z" fill="#E6E6E6"/>
<path d="M12.6503 9.22838C12.6503 9.22838 12.1317 15.9924 16.569 15.9937C19.8157 15.9937 19.605 7.54038 19.605 7.54038C19.605 7.54038 14.2303 4.38971 12.6503 9.22838Z" fill="#CBCCCC"/>
<path d="M16.2564 14.0267C13.9671 14.0253 12.6778 11.052 12.6498 9.22801C12.6378 8.38801 12.8551 7.61334 13.5964 7.19867L17.3098 4.98934L19.0724 6.81467C19.5778 7.22934 19.8258 7.88401 19.7258 8.54267C19.4204 10.5307 18.8724 14.0267 16.2564 14.0267Z" fill="#F8B88D"/>
<path d="M19.0917 12.5267C19.029 12.5213 18.9757 12.6613 18.853 13.756C18.713 14.848 18.5384 16.9067 17.8344 20.6827C17.4757 22.568 16.9904 24.6987 16.405 26.8133C15.8224 28.928 15.1384 31.0267 14.465 32.8747C13.7864 34.7213 13.1197 36.3133 12.6357 37.4493C12.3904 38.016 12.1944 38.4693 12.057 38.7827C11.925 39.0973 11.8597 39.272 11.873 39.2787C11.8877 39.2853 11.981 39.124 12.1424 38.824C12.2997 38.52 12.533 38.0827 12.801 37.524C13.337 36.4067 14.0517 34.828 14.7717 32.9893C15.4864 31.148 16.2064 29.0493 16.8157 26.928C17.4264 24.8067 17.9264 22.6653 18.289 20.7693C18.9984 16.9693 19.121 14.8907 19.1784 13.7867C19.2184 12.6787 19.1557 12.532 19.0917 12.5267Z" fill="#D2D3D2"/>
<path d="M9.24013 25.9993C9.17613 25.9953 9.13213 26.0513 9.08413 26.5127C9.04546 26.9727 8.9828 27.8433 9.0828 29.4553C9.18013 31.0687 9.52946 33.1047 10.0015 34.6887C10.2335 35.4807 10.4815 36.162 10.6761 36.642C10.8761 37.1207 11.0148 37.3993 11.0441 37.3873C11.1081 37.3607 10.6948 36.19 10.3175 34.6007C9.93213 33.0153 9.64013 31.0087 9.54546 29.4233C9.44546 27.8407 9.4548 26.986 9.4108 26.5273C9.37613 26.0687 9.30413 26.0033 9.24013 25.9993Z" fill="#D2D3D2"/>
<path d="M19.0344 47.3131C18.9731 47.2944 18.9064 47.3744 18.6731 48.0704C18.4304 48.7651 18.0398 50.0837 17.0918 52.4611C16.6131 53.6477 16.0251 54.9784 15.3771 56.2891C14.7304 57.6011 14.0238 58.8917 13.3598 60.0197C12.6918 61.1477 12.0664 62.1144 11.6171 62.8051C11.1624 63.4917 10.8918 63.9077 10.9184 63.9291C10.9438 63.9464 11.2638 63.5651 11.7651 62.9077C12.2611 62.2464 12.9318 61.3024 13.6398 60.1891C14.3438 59.0744 15.0864 57.7904 15.7584 56.4797C16.4331 55.1691 17.0384 53.8317 17.5211 52.6331C18.4784 50.2357 18.8224 48.8877 18.9864 48.1664C19.1411 47.4411 19.0958 47.3304 19.0344 47.3131Z" fill="#D2D3D2"/>
<path d="M40.4856 73.5175C40.1683 72.2668 39.1323 71.5148 38.799 70.8121C38.2936 69.7468 38.4856 68.2708 38.4856 68.2708C37.5656 69.0175 35.6536 68.5935 35.6536 68.5935C35.6536 68.5935 35.5976 70.0321 35.551 70.5495C35.5136 70.9575 35.467 71.2281 35.467 71.7828C35.467 71.7828 36.603 73.3121 36.7043 73.6095C37.0003 74.4815 37.5296 74.6361 38.1003 74.8228C38.2696 74.8788 38.963 74.9388 39.5963 74.7601C40.3376 74.5481 40.487 73.5241 40.4856 73.5175Z" fill="#F8B88D"/>
<path d="M43.0077 14.9993C43.0077 14.9993 43.2957 13.7673 44.8957 13.6353C47.2184 13.4433 47.5397 25.346 47.5064 23.666C47.5064 23.666 44.9197 25.8993 44.0424 24.306C42.9544 22.33 43.0077 14.9993 43.0077 14.9993Z" fill="#E1A780"/>
<path d="M47.735 32.2584C47.735 33.2011 47.123 33.5637 47.107 34.0557C47.0923 34.5317 47.0403 35.0477 47.1416 35.3824C47.2443 35.7157 47.495 36.1264 47.4576 36.4051C47.4323 36.6024 47.243 37.0477 47.3363 37.1011C47.4296 37.1531 47.771 37.0677 47.9256 36.6531C48.0776 36.2437 48.0256 36.1944 47.9963 35.9997C47.9656 35.8037 47.8536 35.5371 47.9643 35.6677C48.075 35.7984 48.211 36.1597 48.3643 36.6291C48.5163 37.0984 48.591 37.2384 48.5923 37.2837C48.5936 37.3131 48.527 37.4171 48.431 37.7157C48.375 37.8864 48.323 38.0917 48.2976 38.1637C48.123 38.6371 48.2363 38.8744 48.387 38.9677C48.5363 39.0611 48.827 38.4237 48.8736 38.3517C48.9176 38.2824 49.263 37.4277 49.267 37.1677C49.2736 36.8304 49.123 36.3011 48.963 35.8157C48.8776 35.5584 50.1683 34.8717 50.0403 34.0584C49.911 33.2424 49.543 32.5704 49.4376 32.1037C49.3336 31.6357 49.2176 31.1197 49.2176 31.1197L47.599 31.4104C47.599 31.4104 47.735 31.8557 47.735 32.2584Z" fill="#E1A780"/>
<path d="M49.384 35.0657C49.0747 34.847 48.7067 35.1644 48.7027 35.4564C48.7027 35.4804 48.8107 35.8617 48.9787 36.303C49.1533 36.7644 49.2053 36.9124 49.2067 36.9564C49.208 36.9857 49.0733 37.0697 48.9093 37.339C48.8147 37.4937 48.7147 37.6844 48.672 37.7484C48.3867 38.1737 48.4427 38.427 48.5667 38.5484C48.6907 38.6684 49.128 38.1084 49.1893 38.0484C49.2507 37.9884 49.8773 37.1004 49.8827 36.8404C49.888 36.503 49.7373 35.975 49.5773 35.487C49.5667 35.455 49.488 35.1377 49.384 35.0657Z" fill="#E1A780"/>
<path d="M49.8261 33.7284C49.5168 33.5111 49.1488 33.8271 49.1448 34.1204C49.1448 34.1444 49.2528 34.5257 49.4195 34.9657C49.5955 35.4284 49.6475 35.5764 49.6488 35.6204C49.6488 35.6484 49.5155 35.7324 49.3515 36.0031C49.2555 36.1577 49.1568 36.3484 49.1128 36.4124C48.8288 36.8377 48.8835 37.0911 49.0088 37.2124C49.1328 37.3324 49.5701 36.7724 49.6315 36.7124C49.6928 36.6524 50.3195 35.7644 50.3235 35.5031C50.3288 35.1671 50.1795 34.6391 50.0195 34.1511C50.0075 34.1177 49.9288 33.8017 49.8261 33.7284Z" fill="#E1A780"/>
<path d="M49.6152 34.4836C49.3059 34.2649 48.9379 34.5822 48.9339 34.8742C48.9339 34.8982 49.0419 35.2796 49.2086 35.7209C49.3846 36.1822 49.4366 36.3302 49.4379 36.3742C49.4392 36.4036 49.3046 36.4876 49.1406 36.7569C49.0459 36.9116 48.9459 37.1022 48.9019 37.1662C48.6179 37.5916 48.6739 37.8449 48.7979 37.9662C48.9219 38.0862 49.3592 37.5262 49.4206 37.4662C49.4819 37.4062 50.1086 36.5182 50.1126 36.2582C50.1192 35.9209 49.9686 35.3929 49.8086 34.9049C49.7966 34.8729 49.7192 34.5556 49.6152 34.4836Z" fill="#E1A780"/>
<path d="M44.043 23.7545C44.043 23.7545 45.055 20.9905 47.139 22.0359C47.139 22.0359 49.615 32.0705 49.615 32.9745C49.615 32.9745 48.0376 33.6279 47.7576 33.2292C47.0803 32.2705 44.043 23.7545 44.043 23.7545Z" fill="#E1A780"/>
<path d="M38.6758 33.1985C38.6758 33.1985 44.4811 28.1772 46.6638 33.0279C46.6638 33.0279 46.7024 41.0252 46.4438 42.8452C46.1611 44.8452 46.2318 46.6905 46.1038 47.9879C45.9904 49.1345 45.1971 49.9892 44.2624 49.9572C42.8691 49.9105 41.0664 49.5239 40.7984 47.8825C40.6624 47.0532 39.8438 46.2065 39.7104 44.0812C39.5918 42.1692 38.4691 39.4945 38.4624 37.6865C38.4531 35.3292 38.6758 33.1985 38.6758 33.1985Z" fill="#F8B88D"/>
<path d="M40.7506 47.2532C40.7506 47.2532 43.9426 44.2132 46.1039 47.9878C46.1292 47.7212 45.3546 62.7598 45.2212 65.2092C45.2212 65.2092 44.9359 65.9065 43.8186 65.9065C42.9492 65.9065 42.4119 65.0878 42.4119 65.0878C42.4119 65.0878 39.9052 50.6332 40.7506 47.2532Z" fill="#F8B88D"/>
<path d="M33.0898 34.2753C33.0898 34.2753 40.1964 30.9673 42.3778 36.126C42.3778 36.126 40.8804 43.1913 40.6218 45.1273C40.3391 47.254 39.4738 49.234 39.3458 50.6126C39.2311 51.834 38.4378 52.7433 37.5044 52.7086C36.1098 52.658 34.3084 52.2473 34.0391 50.5006C33.9031 49.6193 33.9418 48.7846 33.8084 46.5246C33.6898 44.4886 32.8951 41.3873 32.8898 39.466C32.8804 36.9566 33.0898 34.2753 33.0898 34.2753Z" fill="#F8B88D"/>
<path d="M42.412 65.0879L42.3253 68.3705C42.3147 68.7479 42.5293 69.0985 42.8747 69.2505C43.0947 69.3479 43.384 69.4585 43.748 69.5692C44.476 69.7892 45.664 69.9572 46.4693 70.2185C47.256 70.4719 48.1053 70.6145 48.6787 70.7745C49.0947 70.8905 49.2813 71.0825 49.6027 71.0079C50.8653 70.7159 50.6093 70.0625 50.6093 70.0625C50.6093 70.0625 50.3707 69.3345 49.5133 68.8652C48.8147 68.4852 45.4773 66.1172 45.2213 65.2092C45.2213 65.2092 44.1307 66.1985 42.412 65.0879Z" fill="#F8B88D"/>
<path d="M33.9915 49.8327C33.9915 49.8327 37.1835 46.5967 39.3461 50.6127C39.3701 50.3287 38.5955 66.118 38.4621 68.722C38.4621 68.722 38.6368 69.0927 37.1195 69.0927C36.0435 69.0927 35.6541 68.5927 35.6541 68.5927C35.6541 68.5927 33.1461 53.4273 33.9915 49.8327Z" fill="#F8B88D"/>
<path d="M37.8626 14.162C37.8626 14.162 33.7919 15.4846 32.4826 18.894C32.4826 18.894 33.1839 22.3926 33.6719 27.4433C33.8172 28.954 33.1079 31.582 32.7292 35.4433C31.4946 48.054 31.9399 65.1566 32.0026 66.6206C32.0746 68.2886 35.6839 69.334 38.3599 69.2593C44.3652 69.0926 47.5079 64.3433 47.5079 62.8966C47.5079 62.8966 47.2466 57.8753 47.0799 48.6006C46.9746 42.7393 48.3066 38.6113 47.1066 34.0553C46.9412 33.4273 50.3146 33.5673 50.3239 32.1313C50.3452 28.5153 48.4652 21.8006 47.5079 18.4593C46.9212 16.4113 46.0839 14.294 46.0839 14.294C45.7719 13.606 44.7386 13.2073 43.3106 13.1673C38.9479 13.0473 37.8626 14.162 37.8626 14.162Z" fill="#E6E6E6"/>
<path d="M33.6719 60.5553C32.6732 54.8086 34.4572 38.4233 34.4746 33.6566C34.4932 28.89 36.9039 22.4633 35.9332 19.502C34.9692 16.5593 32.6212 18.606 32.5906 18.634C32.5892 18.6366 32.5892 18.6393 32.5866 18.6433C32.5772 18.6726 32.5452 18.774 32.4919 18.9433C32.5772 19.378 33.2172 22.7366 33.6719 27.4433C33.8172 28.954 33.1079 31.5833 32.7292 35.4433C31.4946 48.054 31.9399 65.1566 32.0026 66.6206C32.0452 67.6273 33.3572 68.4486 35.0052 68.8726C35.0052 68.8726 34.6706 66.3006 33.6719 60.5553Z" fill="#CBCCCC"/>
<path d="M37.8625 14.162C37.8625 14.162 33.9452 15.4367 32.5612 18.706C32.5119 18.8554 32.4919 18.9434 32.4919 18.9434C32.5772 19.378 35.5879 20.4407 35.1985 23.722C35.3119 23.734 38.1452 23.2234 40.7452 21.2274C43.3105 19.2554 43.3105 13.1674 43.3105 13.1674C38.9479 13.0474 37.8625 14.162 37.8625 14.162Z" fill="#F8B88D"/>
<path d="M46.2089 14.5319C46.1449 14.5199 46.0809 14.6665 45.8343 15.8505C45.5783 17.0332 45.1263 20.9372 44.1743 25.0425C43.6849 27.0905 43.1569 29.4319 42.3383 31.6799C41.5329 33.9265 40.3489 36.0612 38.8556 37.5839C37.3756 39.1212 35.7116 40.0652 34.4836 40.5879C33.2463 41.1105 32.4449 41.2705 32.4556 41.3119C32.4583 41.3279 32.6596 41.2972 33.0263 41.2212C33.3889 41.1345 33.9156 40.9972 34.5516 40.7545C35.8183 40.2759 37.5409 39.3599 39.0903 37.8119C40.6543 36.2799 41.8996 34.1012 42.7383 31.8279C43.5929 29.5492 44.1343 27.1985 44.6249 25.1479C45.5796 21.0305 45.9823 17.1119 46.1543 15.9105C46.3196 14.7092 46.2703 14.5425 46.2089 14.5319Z" fill="#CBCCCC"/>
<path d="M46.9088 44.4615C46.8475 44.4415 46.7675 44.5642 46.4128 45.5988C46.2395 46.1175 45.9928 46.8602 45.6368 47.9255C45.2808 48.9895 44.8235 50.3775 44.1662 52.1575C43.5102 53.9388 42.7035 55.9428 41.7568 57.8922C40.8155 59.8428 39.7248 61.7308 38.6248 63.3268C37.5262 64.9255 36.4222 66.2242 35.5888 67.1122C34.7555 67.9988 34.2128 68.4948 34.2382 68.5242C34.2488 68.5362 34.3955 68.4241 34.6542 68.2081C34.9155 67.9935 35.2782 67.6642 35.7182 67.2375C36.5968 66.3815 37.7488 65.1028 38.8928 63.5148C40.0382 61.9282 41.1688 60.0375 42.1395 58.0788C43.1155 56.1228 43.9395 54.1095 44.5995 52.3188C45.2608 50.5282 45.7075 49.1308 46.0422 48.0575C46.3742 46.9828 46.5875 46.2268 46.7248 45.6975C46.9995 44.6375 46.9688 44.4815 46.9088 44.4615Z" fill="#CBCCCC"/>
<path d="M45.7616 18.4393C45.6976 18.4353 45.6536 18.4913 45.607 18.942C45.563 19.3927 45.5096 21.046 45.4936 22.6233C45.475 24.198 45.5363 26.2073 45.663 27.8153C45.7883 29.4233 45.959 30.6327 46.0203 30.626C46.0856 30.618 46.0296 29.402 45.9896 27.7953C45.9456 26.1887 45.9376 24.1927 45.9563 22.6273C45.9723 21.0607 45.9736 19.41 45.9336 18.958C45.8976 18.506 45.8256 18.4433 45.7616 18.4393Z" fill="#CBCCCC"/>
<path d="M32.4824 18.8938C32.4824 18.8938 32.8957 17.5485 35.2797 18.1778C37.2851 18.7058 35.9717 23.5605 35.9717 23.5605L35.1984 23.7218C35.1984 23.7218 31.7437 24.1578 32.4824 18.8938Z" fill="#E1A780"/>
<path d="M32.4824 18.8938C32.4824 18.8938 33.3464 17.0352 35.2797 18.1778C37.3757 19.4152 33.1424 29.7845 33.1424 29.7845C33.1424 29.7845 30.1491 31.9298 29.8237 30.0872C29.4211 27.7978 32.4824 18.8938 32.4824 18.8938Z" fill="#F8B88D"/>
<path d="M33.0969 42.6868C33.2796 42.3428 33.7649 42.4615 33.9049 42.7281C33.9156 42.7495 33.9943 43.1508 34.0463 43.6335C34.1009 44.1401 34.1236 44.2988 34.1423 44.3401C34.1543 44.3681 34.3169 44.3815 34.5943 44.5521C34.7529 44.6521 34.9329 44.7775 35.0023 44.8175C35.4623 45.0761 35.5303 45.3348 35.4716 45.5028C35.4143 45.6721 34.7516 45.3614 34.6676 45.3348C34.5836 45.3094 33.5943 44.7855 33.4676 44.5481C33.3063 44.2428 33.1969 43.6868 33.1169 43.1641C33.1116 43.1295 33.0369 42.8015 33.0969 42.6868Z" fill="#F8B88D"/>
<path d="M32.0683 41.666C32.251 41.322 32.7363 41.4406 32.8763 41.7073C32.887 41.7286 32.9656 42.13 33.0176 42.6126C33.0723 43.1193 33.095 43.278 33.1136 43.3193C33.1256 43.3473 33.2883 43.3606 33.5656 43.5313C33.7243 43.6313 33.9043 43.758 33.9736 43.7966C34.4336 44.0553 34.5016 44.314 34.443 44.482C34.3843 44.6513 33.723 44.3406 33.639 44.314C33.555 44.2886 32.5656 43.7646 32.439 43.5273C32.2763 43.222 32.1683 42.666 32.0883 42.1433C32.083 42.1086 32.007 41.7806 32.0683 41.666Z" fill="#F8B88D"/>
<path d="M32.6132 42.2611C32.7959 41.9157 33.2812 42.0357 33.4212 42.3011C33.4332 42.3237 33.5119 42.7251 33.5626 43.2064C33.6172 43.7131 33.6399 43.8731 33.6586 43.9131C33.6706 43.9411 33.8332 43.9557 34.1106 44.1264C34.2706 44.2251 34.4506 44.3517 34.5199 44.3917C34.9786 44.6491 35.0466 44.9077 34.9879 45.0771C34.9306 45.2451 34.2679 44.9357 34.1839 44.9077C34.0999 44.8824 33.1106 44.3584 32.9839 44.1224C32.8226 43.8157 32.7132 43.2597 32.6332 42.7384C32.6279 42.7024 32.5532 42.3757 32.6132 42.2611Z" fill="#F8B88D"/>
<path d="M29.8242 30.2453C29.8242 30.2453 30.7242 26.6413 33.3682 29.212C33.3682 29.212 33.4628 39.096 33.5295 39.7587C33.5295 39.7587 32.5922 41.6067 31.7935 40.9107C30.9935 40.2133 29.8242 30.2453 29.8242 30.2453Z" fill="#F8B88D"/>
<path d="M36.875 10.1712C36.875 10.1712 37.443 14.1605 36.5616 15.2632C36.5616 15.2632 37.4976 17.5432 39.8976 16.9258C41.3843 16.5445 41.7963 15.8698 41.7963 15.8698L41.855 10.7778L36.875 10.1712Z" fill="#E1A780"/>
<path d="M35.2858 6.94985C35.2858 6.94985 34.8484 14.5179 41.1938 14.5312C42.8844 14.5339 43.5844 13.0685 44.2831 10.5579C44.6844 9.11119 44.7484 6.51652 44.0618 4.54585C43.2964 2.34852 41.9724 2.02452 40.2444 2.02452C35.1898 2.02452 35.2858 6.94985 35.2858 6.94985Z" fill="#F8B88D"/>
<path d="M36.4231 10.1712C36.4231 10.1712 36.4871 14.9272 41.0804 14.9352C44.0858 14.9405 44.5178 9.24984 44.5178 9.24984C44.5178 9.24984 44.2404 9.82451 44.1404 10.3112C43.9564 11.2098 43.8991 14.1912 41.0004 14.2165C39.0324 14.2352 37.8618 12.8338 37.0898 11.3178C36.7978 10.7445 36.8751 10.1712 36.4231 10.1712Z" fill="#333333"/>
<path d="M43.0071 3.57998C43.0071 3.57998 39.4844 7.13998 36.9258 6.76931C36.9258 6.76931 36.4031 9.82931 37.1284 11.5053C37.1284 11.5053 36.6351 11.2986 36.4231 10.1706C36.3378 9.71731 36.4498 8.85864 36.4231 8.19598C36.4231 8.19598 36.2671 7.71464 35.9071 7.65064C35.7311 7.61731 35.5631 7.73998 35.5231 7.91464C35.4191 8.36931 35.2791 9.46131 36.0364 10.3466C36.0364 10.3466 33.0338 9.10531 33.7018 5.99064C34.3684 2.87731 36.6698 0.0959767 39.9311 1.09731C39.9311 1.09731 41.5644 0.926644 42.7724 1.37464C44.5178 2.02398 45.8978 4.61864 44.5818 7.77064C44.5818 7.77064 44.0444 5.65731 43.0071 3.57998Z" fill="#333333"/>
</svg>
