<svg width="77" height="82" viewBox="0 0 77 82" fill="none" xmlns="http://www.w3.org/2000/svg">
<mask id="mask0_2_3365" style="mask-type:luminance" maskUnits="userSpaceOnUse" x="0" y="37" width="77" height="45">
<path d="M0.228943 37.2903H76.1249V81.2876H0.228943V37.2903Z" fill="white"/>
</mask>
<g mask="url(#mask0_2_3365)">
<mask id="mask1_2_3365" style="mask-type:luminance" maskUnits="userSpaceOnUse" x="0" y="37" width="77" height="45">
<path d="M0.228943 81.2876H76.1249V37.2903H0.228943V81.2876Z" fill="white"/>
</mask>
<g mask="url(#mask1_2_3365)">
<mask id="mask2_2_3365" style="mask-type:luminance" maskUnits="userSpaceOnUse" x="0" y="37" width="77" height="45">
<path d="M0.228943 37.2903H76.1249V81.2876H0.228943V37.2903Z" fill="white"/>
</mask>
<g mask="url(#mask2_2_3365)">
<mask id="mask3_2_3365" style="mask-type:luminance" maskUnits="userSpaceOnUse" x="26" y="53" width="51" height="29">
<path d="M26.7943 81.2876H76.1249V53.1676H26.7943V81.2876Z" fill="white"/>
</mask>
<g mask="url(#mask3_2_3365)">
<mask id="mask4_2_3365" style="mask-type:luminance" maskUnits="userSpaceOnUse" x="26" y="53" width="51" height="29">
<path d="M26.7943 53.1676H76.1249V81.2876H26.7943V53.1676Z" fill="white"/>
</mask>
<g mask="url(#mask4_2_3365)">
<path d="M76.1204 53.1672L76.1244 53.6072L26.7978 81.2872L26.7938 80.8459L76.1204 53.1672Z" fill="#801C1D"/>
</g>
</g>
<mask id="mask5_2_3365" style="mask-type:luminance" maskUnits="userSpaceOnUse" x="26" y="53" width="51" height="29">
<path d="M26.7943 81.2876H76.1249V53.1676H26.7943V81.2876Z" fill="white"/>
</mask>
<g mask="url(#mask5_2_3365)">
<mask id="mask6_2_3365" style="mask-type:luminance" maskUnits="userSpaceOnUse" x="26" y="53" width="51" height="29">
<path d="M26.7943 53.1676H76.1249V81.2876H26.7943V53.1676Z" fill="white"/>
</mask>
<g mask="url(#mask6_2_3365)">
<path d="M76.1204 53.1672L76.1244 53.6072L26.7978 81.2872L26.7938 80.8459L76.1204 53.1672Z" fill="#801C1D"/>
</g>
</g>
<mask id="mask7_2_3365" style="mask-type:luminance" maskUnits="userSpaceOnUse" x="0" y="64" width="27" height="18">
<path d="M0.2276 81.2876H26.7983V64.9703H0.2276V81.2876Z" fill="white"/>
</mask>
<g mask="url(#mask7_2_3365)">
<mask id="mask8_2_3365" style="mask-type:luminance" maskUnits="userSpaceOnUse" x="0" y="64" width="27" height="18">
<path d="M0.228943 64.9703H26.7983V81.2876H0.228943V64.9703Z" fill="white"/>
</mask>
<g mask="url(#mask8_2_3365)">
<path d="M26.7943 80.8456L26.7983 81.2869L0.231608 65.4109L0.228943 64.9696L26.7943 80.8456Z" fill="#591314"/>
</g>
</g>
<mask id="mask9_2_3365" style="mask-type:luminance" maskUnits="userSpaceOnUse" x="0" y="64" width="27" height="18">
<path d="M0.2276 81.2876H26.7983V64.9703H0.2276V81.2876Z" fill="white"/>
</mask>
<g mask="url(#mask9_2_3365)">
<mask id="mask10_2_3365" style="mask-type:luminance" maskUnits="userSpaceOnUse" x="0" y="64" width="27" height="18">
<path d="M0.228943 64.9703H26.7983V81.2876H0.228943V64.9703Z" fill="white"/>
</mask>
<g mask="url(#mask10_2_3365)">
<path d="M26.7943 80.8456L26.7983 81.2869L0.231608 65.4109L0.228943 64.9696L26.7943 80.8456Z" fill="#591314"/>
</g>
</g>
<mask id="mask11_2_3365" style="mask-type:luminance" maskUnits="userSpaceOnUse" x="0" y="37" width="77" height="45">
<path d="M0.228943 81.2876H76.1249V37.2903H0.228943V81.2876Z" fill="white"/>
</mask>
<g mask="url(#mask11_2_3365)">
<mask id="mask12_2_3365" style="mask-type:luminance" maskUnits="userSpaceOnUse" x="0" y="37" width="77" height="44">
<path d="M0.228943 37.2902H76.1209V80.8463H0.228943V37.2902Z" fill="white"/>
</mask>
<g mask="url(#mask12_2_3365)">
<mask id="mask13_2_3365" style="mask-type:luminance" maskUnits="userSpaceOnUse" x="0" y="37" width="77" height="44">
<path d="M0.228943 80.8463H76.1209V37.2902H0.228943V80.8463Z" fill="white"/>
</mask>
<g mask="url(#mask13_2_3365)">
<path d="M76.1204 53.1673L26.7937 80.8459L0.228394 64.9699L49.5551 37.2913L76.1204 53.1673Z" fill="#A62320"/>
<mask id="mask14_2_3365" style="mask-type:luminance" maskUnits="userSpaceOnUse" x="14" y="44" width="50" height="29">
<path d="M14.2809 44.3596H63.9049V72.8129H14.2809V44.3596Z" fill="white"/>
</mask>
<g mask="url(#mask14_2_3365)">
<g opacity="0.5">
<mask id="mask15_2_3365" style="mask-type:luminance" maskUnits="userSpaceOnUse" x="14" y="44" width="50" height="29">
<path d="M14.2809 72.8129H63.9049V44.3596H14.2809V72.8129Z" fill="white"/>
</mask>
<g mask="url(#mask15_2_3365)">
<path d="M16.7076 64.722L18.9102 63.494L21.0756 64.7887L18.8729 66.0167L16.7076 64.722ZM18.9716 66.0767L21.1756 64.8487L23.3396 66.142L21.1369 67.37L18.9716 66.0767ZM21.2356 67.4273L23.4382 66.1993L25.6035 67.494L23.4009 68.722L21.2356 67.4273ZM23.4982 68.782L25.7022 67.554L27.8662 68.8487L25.6635 70.0767L23.4982 68.782ZM25.7622 70.134L27.9649 68.906L30.1315 70.1993L27.9275 71.4273L25.7622 70.134ZM30.2315 70.1447L28.0662 68.8513L30.2689 67.6233L32.4342 68.9167L30.2315 70.1447ZM32.5342 68.8607L30.3689 67.566L32.5715 66.338L34.7369 67.6327L32.5342 68.8607ZM34.8369 67.578L32.6729 66.2833L34.8755 65.054L37.0409 66.3487L34.8369 67.578ZM37.1422 66.2927L34.9769 64.998L37.1795 63.7687L39.3449 65.0633L37.1422 66.2927ZM39.4449 65.0087L37.2795 63.714L39.4835 62.486L41.6475 63.7807L39.4449 65.0087ZM41.7475 63.7233L39.5822 62.43L41.7862 61.2007L43.9515 62.4953L41.7475 63.7233ZM44.0502 62.4407L41.8862 61.146L44.0902 59.918L46.2542 61.2127L44.0502 62.4407ZM46.3529 61.1553L44.1889 59.862L46.3915 58.6353L48.5569 59.9287L46.3529 61.1553ZM48.6582 59.87L46.4929 58.5793L48.6969 57.35L50.8609 58.6433L48.6582 59.87ZM50.9609 58.5873L48.7955 57.2953L50.9995 56.0673L53.1635 57.3607L50.9609 58.5873ZM53.2635 57.3047L51.0995 56.01L53.3022 54.782L55.4675 56.0767L53.2635 57.3047ZM55.5675 56.0207L53.4022 54.7273L55.6049 53.498L57.7702 54.7927L55.5675 56.0207ZM57.8715 54.7367L55.7075 53.442L57.9089 52.214L60.0742 53.5087L57.8715 54.7367ZM60.1755 53.4513L58.0102 52.158L60.2142 50.9287L62.3769 52.2233L60.1755 53.4513ZM60.1155 50.87L57.9115 52.0993L55.7462 50.8047L57.9502 49.578L60.1155 50.87ZM57.8515 49.518L55.6462 50.746L53.4822 49.4527L55.6862 48.2233L57.8515 49.518ZM55.5875 48.1647L53.3849 49.394L51.2195 48.0993L53.4235 46.8713L55.5875 48.1647ZM53.3235 46.8113L51.1209 48.0393L48.9555 46.7473L51.1595 45.5193L53.3235 46.8113ZM48.8555 46.8033L51.0182 48.0967L48.8155 49.3247L46.6515 48.03L48.8555 46.8033ZM48.7155 49.3807L46.5129 50.6073L44.3475 49.3153L46.5502 48.086L48.7155 49.3807ZM44.2475 49.37L46.4129 50.6647L44.2089 51.8927L42.0449 50.598L44.2475 49.37ZM41.9449 50.6553L44.1102 51.95L41.9062 53.1767L39.7422 51.8833L41.9449 50.6553ZM39.6422 51.938L41.8062 53.2327L39.6035 54.4593L37.4382 53.1673L39.6422 51.938ZM39.5022 54.518L37.2995 55.7447L35.1342 54.4513L37.3369 53.2233L39.5022 54.518ZM35.0355 54.5073L37.1996 55.8007L34.9955 57.0287L32.8315 55.7353L35.0355 54.5073ZM34.8969 57.0833L32.6929 58.3113L30.5289 57.0193L32.7315 55.7913L34.8969 57.0833ZM30.4289 57.0753L32.5929 58.3687L30.3902 59.5967L28.2249 58.3033L30.4289 57.0753ZM30.2889 59.6513L28.0862 60.8807L25.9209 59.586L28.1235 58.3607L30.2889 59.6513ZM27.9849 60.9367L25.7835 62.1647L23.6182 60.87L25.8209 59.642L27.9849 60.9367ZM25.6822 62.2207L23.4796 63.4487L21.3156 62.154L23.5169 60.9273L25.6822 62.2207ZM23.4395 66.0847L21.2756 64.7913L23.4782 63.5647L25.6436 64.8593L23.4395 66.0847ZM25.7036 67.4393L23.5382 66.1447L25.7409 64.9167L27.9062 66.21L25.7036 67.4393ZM30.1689 67.5633L27.9662 68.7913L25.8009 67.4967L28.0049 66.2687L30.1689 67.5633ZM32.4742 66.2793L30.2702 67.506L28.1062 66.214L30.3089 64.9847L32.4742 66.2793ZM34.7769 64.9953L32.5742 66.2233L30.4089 64.9287L32.6115 63.7007L34.7769 64.9953ZM37.0796 63.7113L34.8769 64.938L32.7115 63.6447L34.9155 62.4167L37.0796 63.7113ZM39.3849 62.426L37.1809 63.6553L35.0142 62.3607L37.2195 61.1327L39.3849 62.426ZM41.6875 61.1433L39.4849 62.3713L37.3195 61.078L39.5222 59.85L41.6875 61.1433ZM43.9902 59.8593L41.7875 61.086L39.6235 59.7927L41.8249 58.5647L43.9902 59.8593ZM46.2929 58.5753L44.0902 59.8047L41.9262 58.51L44.1289 57.2807L46.2929 58.5753ZM48.5982 57.2913L46.3955 58.5193L44.2302 57.2247L46.4329 55.9967L48.5982 57.2913ZM50.9009 56.0073L48.6982 57.2367L46.5329 55.9407L48.7355 54.7127L50.9009 56.0073ZM53.2035 54.7247L51.0009 55.9527L48.8355 54.658L51.0395 53.43L53.2035 54.7247ZM55.5075 53.4393L53.3035 54.6673L51.1395 53.3727L53.3422 52.1447L55.5075 53.4393ZM55.6462 50.8607L57.8115 52.1553L55.6089 53.382L53.4435 52.09L55.6462 50.8607ZM53.3822 49.5087L55.5462 50.8033L53.3435 52.03L51.1795 50.7367L53.3822 49.5087ZM48.9155 49.3847L51.1182 48.1553L53.2835 49.45L51.0822 50.6793L48.9155 49.3847ZM46.6129 50.6673L48.8155 49.4393L50.9809 50.734L48.7769 51.962L46.6129 50.6673ZM44.3075 51.9527L46.5129 50.7233L48.6782 52.018L46.4742 53.2473L44.3075 51.9527ZM42.0049 53.2353L44.2075 52.0073L46.3742 53.302L44.1715 54.5287L42.0049 53.2353ZM39.7035 54.5193L41.9062 53.2927L44.0715 54.586L41.8689 55.8127L39.7035 54.5193ZM37.3996 55.8047L39.6022 54.5753L41.7662 55.8687L39.5649 57.098L37.3996 55.8047ZM35.0969 57.0873L37.2982 55.8607L39.4635 57.154L37.2609 58.3807L35.0969 57.0873ZM32.7929 58.3713L34.9955 57.1433L37.1609 58.438L34.9582 59.666L32.7929 58.3713ZM30.4889 59.6567L32.6915 58.4273L34.8582 59.722L32.6529 60.95L30.4889 59.6567ZM28.1849 60.9393L30.3889 59.7113L32.5529 61.006L30.3502 62.234L28.1849 60.9393ZM25.8822 62.2233L28.0862 60.9967L30.2502 62.29L28.0475 63.518L25.8822 62.2233ZM25.7449 64.8033L23.5782 63.5087L25.7809 62.2793L27.9475 63.574L25.7449 64.8033ZM30.2089 64.926L28.0062 66.154L25.8435 64.8607L28.0449 63.634L30.2089 64.926ZM32.5129 63.642L30.3102 64.8713L28.1462 63.5767L30.3489 62.3487L32.5129 63.642ZM34.8169 62.358L32.6142 63.586L30.4489 62.2927L32.6515 61.0633L34.8169 62.358ZM37.1195 61.0753L34.9169 62.3033L32.7515 61.0087L34.9555 59.7807L37.1195 61.0753ZM39.4249 59.79L37.2209 61.018L35.0569 59.7233L37.2595 58.4967L39.4249 59.79ZM41.7275 58.506L39.5235 59.7353L37.3595 58.4407L39.5622 57.2127L41.7275 58.506ZM44.0302 57.2233L41.8275 58.45L39.6622 57.1567L41.8649 55.9287L44.0302 57.2233ZM46.3342 55.938L44.1315 57.1673L41.9662 55.8727L44.1689 54.6433L46.3342 55.938ZM48.6355 54.6553L46.4329 55.882L44.2675 54.5887L46.4715 53.3607L48.6355 54.6553ZM48.8755 52.022L51.0782 50.7927L53.2435 52.086L51.0409 53.3127L48.8755 52.022ZM50.9409 53.37L48.7355 54.598L46.5715 53.3047L48.7755 52.0767L50.9409 53.37ZM21.2142 62.21L23.3796 63.5047L21.1769 64.734L19.0116 63.4393L21.2142 62.21ZM14.3076 65.9473L14.2809 65.9633L14.3289 66.0487L14.4036 66.006L14.4636 65.9727L16.6076 64.7793L18.7716 66.074L16.6289 67.2673L16.5702 67.3007L16.5449 67.314L16.5929 67.4033L16.6689 67.3607L16.7289 67.326L18.8729 66.1327L21.0369 67.426L18.8942 68.6207L18.8342 68.654L18.8076 68.6687L18.8569 68.754L18.9316 68.7127L18.9916 68.6793L21.1356 67.4847L23.2982 68.7793L21.1569 69.9727L21.0969 70.006L21.0702 70.0207L21.1209 70.1073L21.1955 70.066L21.2555 70.03L23.3969 68.8367L25.5635 70.1313L23.4209 71.3247L23.3609 71.3607L23.3356 71.3727L23.3836 71.4607L23.4596 71.4167L23.5182 71.3847L25.6622 70.1913L27.8262 71.4847L25.6849 72.6793L25.6249 72.7113L25.5982 72.726L25.6489 72.8127L25.7235 72.7713L25.7835 72.7367L27.9249 71.542L29.3622 72.402L29.4622 72.3473L28.0262 71.4873L30.2302 70.2593L31.6595 71.114L31.7595 71.058L30.3289 70.202L32.5329 68.974L33.9022 69.794C33.9222 69.7753 33.9462 69.758 33.9755 69.7487C33.9849 69.7447 33.9942 69.742 34.0035 69.7393L32.6329 68.9193L34.8355 67.6913L36.2529 68.5353L36.3502 68.4807L34.9355 67.6353L37.1396 66.4073L38.5475 67.2487L38.6475 67.1927L37.2395 66.3513L39.4435 65.1233L40.8435 65.9607L40.9435 65.9047L39.5422 65.0673L41.7462 63.838L43.1395 64.6713L43.2395 64.6167L41.8475 63.7833L44.0502 62.5553L45.4355 63.3833L45.5355 63.3273L44.1502 62.498L46.3529 61.27L47.7329 62.094L47.8302 62.038L46.4542 61.2153L48.6569 59.986L50.0275 60.806L50.1275 60.75L48.7582 59.93L50.9609 58.7033L52.3249 59.518L52.4235 59.4633L51.0595 58.6473L53.2622 57.418L54.6209 58.23L54.7195 58.1753L53.3635 57.3633L55.5675 56.1367L56.9155 56.942L57.0156 56.8847L55.6675 56.0793L57.8702 54.8513L59.2102 55.6527L59.3129 55.5967L57.9702 54.7967L60.1729 53.5673L61.5075 54.3633L61.6075 54.3087L60.2729 53.5113L62.4769 52.2833L63.8049 53.0767L63.9049 53.0207L49.4142 44.3593L49.3142 44.4167L51.0622 45.4593L48.8569 46.6887L47.1169 45.6487L47.0169 45.7047L48.7569 46.7447L46.5542 47.9727L44.8209 46.9367L44.7209 46.9927L46.4529 48.0273L44.2489 49.2553L42.5249 48.2247L42.0849 47.962L41.9862 47.9047L41.8862 47.9607L41.9849 48.0193L42.4249 48.2807L44.1502 49.3113L41.9462 50.5407L40.2289 49.514L40.1289 49.57L41.8462 50.5953L39.6435 51.8233L37.9316 50.802L37.8329 50.858L39.5435 51.8807L37.3409 53.1073L35.6382 52.09L35.5369 52.146L37.2382 53.1633L35.0355 54.3927L33.3395 53.378L33.2409 53.434L34.9369 54.4487L32.7342 55.6753L31.0435 54.666L30.9435 54.722L32.6329 55.7327L30.4302 56.9607L28.7489 55.9553L28.6489 56.0113L30.3302 57.0167L28.1262 58.2447L26.4516 57.2447L26.3515 57.3007L28.0275 58.3007L25.8235 59.5273L24.1556 58.5313L24.0569 58.5873L25.7235 59.5847L23.5209 60.8113L21.8609 59.8207L21.7596 59.8753L23.4196 60.8673L21.2169 62.0967L19.5635 61.1087L19.4636 61.166L21.1169 62.1527L18.9129 63.3793L17.4276 62.4913C17.3929 62.498 17.3582 62.502 17.3236 62.506C17.3196 62.506 17.3169 62.5073 17.3116 62.5073C17.3116 62.5073 17.3089 62.5073 17.3062 62.5073C17.2902 62.5087 17.2756 62.5073 17.2609 62.5087L18.8142 63.4353L16.6102 64.6647L14.9716 63.6873L14.8609 63.6207C14.8369 63.6313 14.8116 63.642 14.7876 63.6527C14.7729 63.6593 14.7582 63.662 14.7436 63.666L14.8716 63.742L16.5089 64.7207L14.3676 65.9153L14.3076 65.9473Z" fill="#FD8F04"/>
</g>
</g>
</g>
<path d="M26.8567 76.2636L8.13932 65.0769L49.4926 41.8729L68.2086 53.0596L26.8567 76.2636ZM5.70465 65.0449L26.838 77.6742L70.6433 53.0916L49.5113 40.4622L5.70465 65.0449Z" fill="#FD8F04"/>
<path d="M49.4511 44.8691L13.3124 65.1477L26.8977 73.2677L63.0364 52.9891L49.4511 44.8691ZM11.4857 65.1224L49.4657 43.8117L64.8631 53.0131L26.8831 74.3251L11.4857 65.1224Z" fill="#410E0E"/>
<path d="M49.5077 40.7272L6.1624 65.0499L26.8411 77.4099L70.1864 53.0859L49.5077 40.7272ZM4.03174 65.0219L49.5237 39.4939L72.3171 53.1152L26.8237 78.6432L4.03174 65.0219Z" fill="#410E0E"/>
<path d="M30.694 67.2778C31.0433 67.2832 31.382 67.2645 31.7046 67.2218L31.6446 66.7672C30.186 66.9632 28.366 66.6178 26.8966 65.8645L26.8326 65.8325L25.9926 65.9498L26.2206 65.4765L26.0606 65.3658C24.874 64.5352 24.354 63.5538 24.7046 62.8018L24.29 62.6085C23.8566 63.5365 24.374 64.6818 25.6393 65.6272L25.2086 66.5218L26.7526 66.3058C27.9646 66.9125 29.3953 67.2578 30.694 67.2778Z" fill="#410E0E"/>
</g>
</g>
</g>
</g>
</g>
</g>
<mask id="mask16_2_3365" style="mask-type:luminance" maskUnits="userSpaceOnUse" x="28" y="45" width="31" height="21">
<path d="M28.5836 45.2062H58.3556V65.4969H28.5836V45.2062Z" fill="white"/>
</mask>
<g mask="url(#mask16_2_3365)">
<g opacity="0.5">
<mask id="mask17_2_3365" style="mask-type:luminance" maskUnits="userSpaceOnUse" x="28" y="45" width="31" height="21">
<path d="M28.5836 65.4969H58.3556V45.2062H28.5836V65.4969Z" fill="white"/>
</mask>
<g mask="url(#mask17_2_3365)">
<path d="M58.3372 47.8117C58.4479 48.3557 57.9692 49.1904 57.7319 49.6677C57.3559 50.4197 56.8626 51.1424 56.4479 51.8757C55.9119 52.8224 55.0612 53.5611 54.4986 54.5197C54.0746 55.2411 53.6199 55.7784 53.0786 56.4171C52.3332 57.2944 51.7426 58.2917 50.9439 59.1291C50.1959 59.9117 49.2719 60.4637 48.5186 61.2557C47.9746 61.8264 47.4439 62.3597 46.8372 62.8624C45.2546 64.1744 43.9159 65.2291 41.7972 65.4357C39.9759 65.6131 38.1852 65.3891 36.4026 64.9677C35.2146 64.6877 33.9292 64.6424 32.7759 64.2331C30.9932 63.6024 29.1666 62.3517 28.7079 60.4397C28.5412 59.7491 28.5092 59.0317 28.8172 58.3731C29.4399 57.0437 30.0759 55.7677 31.0026 54.6077C32.9319 52.1877 35.3812 50.3931 38.0346 48.8131C39.0959 48.1811 40.1732 47.5851 41.1946 46.8877C41.7932 46.4784 42.3932 46.0664 43.0932 45.8531C44.7212 45.3584 46.6172 45.2184 48.3066 45.2064C50.8852 45.1864 53.6919 45.6131 56.1412 46.4197C56.8372 46.6491 57.4479 46.8637 58.0359 47.2731C58.2426 47.4157 58.4132 47.5557 58.3372 47.8117Z" fill="#B7BCC5"/>
</g>
</g>
</g>
<path d="M28.4954 20.4355C28.7767 20.8942 28.9047 21.2662 28.7434 21.4195C28.4634 21.6848 28.1714 21.9408 27.8394 22.1355C27.6314 22.2582 27.0434 22.6022 26.7967 22.4342C26.0634 21.9368 25.2434 21.5768 24.5514 21.0195C23.714 20.3462 23.398 19.3995 22.9607 18.4448C22.914 18.3435 22.866 18.2382 22.8634 18.1262C22.862 18.0142 22.9167 17.8915 23.022 17.8488C23.1714 17.7888 23.3247 17.9088 23.438 18.0208C23.4634 17.6062 23.2274 16.4102 23.97 17.1222C24.3554 17.4902 24.5154 18.2208 24.7687 18.6835C25.0727 19.2368 25.6954 19.5608 26.3287 19.4808C26.2274 19.1462 26.134 18.9195 25.874 18.6635C25.7074 18.4982 25.5207 18.3462 25.4154 18.1355C25.31 17.9275 25.3167 17.6355 25.5034 17.4888C25.7887 17.2648 27.722 19.1742 28.4954 20.4355Z" fill="#F8B88D"/>
<path d="M52.7916 43.3573C52.7916 43.3573 52.0503 40.268 55.8756 40.6746C56.8703 40.78 56.9863 42.6453 56.9863 42.6453C56.9863 42.6453 56.8556 43.2426 57.0849 43.632C57.3769 44.1213 57.6809 44.3266 57.8023 44.48C59.0836 46.0733 58.6116 48.676 57.8036 49.3413C56.6463 50.296 55.5409 48.2346 54.5089 46.232C53.4303 44.1386 52.7916 43.3573 52.7916 43.3573Z" fill="#F8B88D"/>
<path d="M33.8729 33.3234C34.0183 33.9781 35.0703 34.6928 36.3276 34.8688C36.3303 34.8661 36.3329 34.8634 36.3356 34.8608C36.4103 34.8061 36.9463 34.3808 37.6863 33.0421C37.8103 32.8154 37.9436 32.5621 38.0796 32.2794C39.7143 28.8968 41.3223 19.3248 41.4489 17.8314C41.4556 17.7554 41.4609 17.6808 41.4663 17.6061C41.5516 16.4448 41.4943 15.5048 40.2596 14.8888C40.0236 14.7728 39.7449 14.6661 39.4183 14.5728C38.8303 14.4061 37.4916 14.8808 36.6836 16.5368C34.8756 20.2421 34.0516 23.6488 33.7223 26.4274C33.6556 27.0061 33.6089 27.5568 33.5796 28.0754C33.4249 30.7621 33.7249 32.6488 33.8729 33.3234Z" fill="#B7BCC5"/>
<path d="M25.1945 22.0215L32.0292 34.2268C32.1172 34.3641 32.1985 34.4935 32.3052 34.6148C33.1665 35.6335 34.6585 35.9228 35.8439 35.2281C36.0239 35.1241 36.1852 35.0028 36.3279 34.8695C36.3305 34.8668 36.3332 34.8641 36.3359 34.8615C37.2479 34.0001 37.4292 32.6001 36.8212 31.4081C36.1612 30.1135 35.2065 28.5961 34.1799 27.0908C34.0279 26.8695 33.8759 26.6495 33.7225 26.4281C31.2985 22.9441 28.6679 19.7161 28.6679 19.7161C28.6439 19.6748 28.3345 19.8281 27.9092 20.0735C26.8545 20.6788 25.0865 21.8468 25.1945 22.0215Z" fill="#B7BCC5"/>
<mask id="mask18_2_3365" style="mask-type:luminance" maskUnits="userSpaceOnUse" x="27" y="14" width="15" height="20">
<path d="M27.9089 14.5422H41.4663V33.0422H27.9089V14.5422Z" fill="white"/>
</mask>
<g mask="url(#mask18_2_3365)">
<g opacity="0.2">
<mask id="mask19_2_3365" style="mask-type:luminance" maskUnits="userSpaceOnUse" x="27" y="14" width="15" height="20">
<path d="M27.9089 33.0422H41.4663V14.5422H27.9089V33.0422Z" fill="white"/>
</mask>
<g mask="url(#mask19_2_3365)">
<path d="M27.9095 20.0735C28.0548 20.3375 28.2242 20.5881 28.4122 20.8148C28.7375 21.2068 29.0882 21.4121 29.4628 21.7255C30.0348 22.2028 30.3682 22.9428 30.7695 23.5521C31.2668 24.3121 31.8748 24.9601 32.3308 25.7548C32.7308 26.4561 33.1495 27.1548 33.4935 27.8828C33.5255 27.9455 33.5522 28.0108 33.5788 28.0761C33.7988 28.6121 33.9068 29.1948 34.0308 29.7601C34.1895 30.4801 34.0855 31.4775 34.3908 32.1428C34.6188 31.7988 34.4868 31.2561 34.4468 30.8481C34.3815 30.1988 34.3015 29.5468 34.2468 28.8948C34.1988 28.3175 34.1375 27.6895 34.1802 27.0908C34.2148 26.6041 34.3162 26.1361 34.5522 25.7228C34.6802 25.4988 34.7882 25.3201 34.8815 25.0788C35.0228 24.7148 35.1828 24.3548 35.3495 23.9988C35.4908 23.6961 35.5495 23.2695 35.7308 23.0028C36.3628 22.0748 36.6375 24.0681 36.6842 24.4135C36.8628 25.7575 36.9122 27.1148 37.0468 28.4601C37.1122 29.1268 37.2308 29.7695 37.3268 30.4308C37.4202 31.0868 37.4682 31.7521 37.5602 32.4095C37.5882 32.6175 37.6362 32.8281 37.6868 33.0428C37.8108 32.8161 37.9428 32.5615 38.0788 32.2788C39.7148 28.8961 41.3228 19.3241 41.4482 17.8308C41.4548 17.7561 41.4615 17.6801 41.4655 17.6055V17.6041C41.1455 16.6895 40.7495 15.7535 40.2602 14.8881C40.0242 14.7721 39.7455 14.6655 39.4175 14.5735C38.8308 14.4055 37.4922 14.8801 36.6842 16.5375C34.8762 20.2428 34.0522 23.6495 33.7228 26.4281C31.2988 22.9441 28.6682 19.7148 28.6682 19.7148C28.6442 19.6748 28.3348 19.8281 27.9095 20.0735Z" fill="#B7BCC5"/>
</g>
</g>
</g>
<path d="M35.2623 52.3417L37.9597 55.9497L43.829 63.7991C45.4863 63.1577 47.641 61.4577 49.7383 59.3564C53.8917 55.1937 57.821 49.4524 57.241 47.2284C56.7343 45.2897 56.245 43.9377 55.1583 42.7404C54.785 42.3284 54.3423 41.9351 53.8023 41.5431C53.681 41.4564 53.557 41.3737 53.4263 41.2964L53.425 41.2977C52.1717 40.5591 50.549 40.3577 49.1357 40.3791C46.2517 40.4257 44.2717 43.3271 42.8357 45.9551C41.401 48.5831 38.125 51.9951 35.2623 52.3417Z" fill="#DCDEE2"/>
<mask id="mask20_2_3365" style="mask-type:luminance" maskUnits="userSpaceOnUse" x="37" y="41" width="19" height="23">
<path d="M37.9596 41.2969H55.1583V63.7996H37.9596V41.2969Z" fill="white"/>
</mask>
<g mask="url(#mask20_2_3365)">
<g opacity="0.5">
<mask id="mask21_2_3365" style="mask-type:luminance" maskUnits="userSpaceOnUse" x="37" y="41" width="19" height="23">
<path d="M37.9596 63.7996H55.1583V41.2969H37.9596V63.7996Z" fill="white"/>
</mask>
<g mask="url(#mask21_2_3365)">
<path d="M37.9596 55.9498L43.8289 63.7991C45.4876 63.1578 47.6409 61.4578 49.7383 59.3565C49.7569 58.2458 49.9943 57.2698 50.2223 56.1831C50.3836 55.3925 53.3663 48.1138 54.0436 46.5138C54.3609 45.7605 54.5449 44.9498 54.7449 44.1578C54.8249 43.8445 55.0343 43.2765 55.1583 42.7405C54.7849 42.3285 54.3423 41.9351 53.8023 41.5431C53.6809 41.4565 53.5569 41.3738 53.4263 41.2965L53.4249 41.2978C53.1863 41.6018 52.9383 41.8978 52.6663 42.1711C51.5129 43.3178 50.1889 44.1285 48.7756 44.9071C46.8929 45.9431 45.2009 47.2818 43.4676 48.5445C41.8089 49.7525 40.5623 51.2218 39.4196 52.9191C38.7543 53.9071 38.2409 54.8951 37.9596 55.9498Z" fill="#B7BCC5"/>
</g>
</g>
</g>
<path d="M35.3157 61.7909C37.7944 62.7789 40.7224 67.0376 45.6797 62.4096C46.5371 61.6096 49.3104 56.5549 51.5304 50.9042C53.2611 46.4976 54.6584 41.7309 54.5531 38.3349C54.4358 34.6469 54.1971 32.7309 53.9664 31.2509C53.8344 30.4189 53.7091 29.7242 53.6091 28.9296C53.5024 28.0789 53.4251 27.1109 53.4091 25.7402C53.3851 23.8269 53.6424 22.1429 54.3131 20.6936C54.7077 19.8389 54.3984 16.1962 52.9371 15.6549C52.8824 15.6349 52.8251 15.6135 52.7677 15.5962C52.1037 15.3735 51.3971 15.2815 50.6464 15.1722C49.9117 15.0669 49.1344 14.9442 48.3144 14.6762C48.2891 14.6669 48.2637 14.6589 48.2384 14.6522C47.8011 14.5029 47.3491 14.3135 46.8877 14.0589C45.3451 13.2135 43.3037 13.4122 41.2411 13.8215C41.1611 13.8375 41.0677 13.8549 40.9611 13.8735C40.9357 13.8789 40.9091 13.8829 40.8837 13.8882C40.4717 13.9602 39.9037 14.0549 39.3611 14.1922C38.6864 14.3615 38.0464 14.5935 37.7771 14.9229C35.2424 18.0109 38.7211 36.7416 38.7211 36.7416C38.7211 36.7416 34.3771 44.6229 31.7997 49.4962C31.4077 50.4016 29.4237 55.8549 29.2237 56.8069C28.1917 61.7309 33.5397 61.0856 35.3157 61.7909Z" fill="#ECEDEE"/>
<mask id="mask22_2_3365" style="mask-type:luminance" maskUnits="userSpaceOnUse" x="29" y="14" width="25" height="51">
<path d="M29.093 14.1929H53.9663V64.5262H29.093V14.1929Z" fill="white"/>
</mask>
<g mask="url(#mask22_2_3365)">
<mask id="mask23_2_3365" style="mask-type:luminance" maskUnits="userSpaceOnUse" x="29" y="14" width="25" height="51">
<path d="M29.093 64.5262H53.9663V14.1929H29.093V64.5262Z" fill="white"/>
</mask>
<g mask="url(#mask23_2_3365)">
<path d="M35.3158 61.7909C37.7945 62.7789 40.7225 67.0376 45.6798 62.4096C46.5371 61.6096 49.3105 56.5549 51.5305 50.9042C50.7865 51.6909 50.1531 52.6056 49.5865 53.5202C48.4851 55.2909 47.6091 57.2482 46.2758 58.8616C45.6011 59.6776 44.9758 60.8509 44.0185 61.3856C43.3225 61.7749 41.7718 62.0536 40.9465 61.9722C40.0078 61.8749 38.7758 61.1216 38.4118 60.2242C37.9385 59.0642 38.5158 57.7362 38.8451 56.6296C39.2305 55.3269 39.5465 54.1362 40.0211 52.8629C40.3105 52.0869 42.9505 46.3762 41.8078 46.4549C41.0105 46.5082 40.2011 49.4349 39.9971 50.0282C39.6691 50.9789 39.3065 51.9069 39.0611 52.8829C38.6011 54.7162 37.0785 62.8442 33.9291 59.2296C31.8425 56.8336 32.8438 54.2442 33.8425 51.5829C34.3785 50.1522 35.2451 48.7882 35.9305 47.4149C36.5345 46.2082 36.7891 44.8882 37.3985 43.6882C38.3891 41.7389 39.3225 39.0202 41.5905 38.1762C43.1091 37.6109 45.0585 38.5869 46.6945 38.2416C48.1425 37.9349 46.4065 37.3856 45.7278 37.2349C44.8478 37.0389 43.9358 37.0176 43.0518 36.8349C40.9411 36.4002 39.8091 35.3082 39.3958 33.3376C39.0531 31.7096 39.2611 29.9069 39.0945 28.2216C39.0025 27.2896 38.9225 26.3629 38.8505 25.4376C39.5131 26.3976 40.2438 27.7016 40.9798 28.7122C42.8225 31.2456 43.6505 33.1802 45.5211 35.6936C46.1598 36.5509 47.4545 37.6429 48.7438 37.7469C51.1611 37.9429 52.8971 34.7869 53.1985 33.6589C53.3758 32.9976 53.5105 32.3509 53.7598 31.7162C53.8078 31.5922 53.8811 31.4296 53.9665 31.2509C53.8345 30.4189 53.7091 29.7242 53.6091 28.9296C52.7705 29.2709 52.0558 29.7909 51.4238 30.4682C49.6411 32.3736 46.4131 29.8589 44.9798 28.5816C43.6531 27.4002 42.7691 25.9829 41.8065 24.5202C41.1851 23.5776 40.0931 22.0416 38.9091 21.7962C38.8065 21.7749 38.7131 21.7629 38.6291 21.7589C38.6051 21.2096 38.5865 20.6616 38.5718 20.1122C38.5185 18.0322 38.6398 16.0655 39.3611 14.1922C38.6865 14.3615 38.0465 14.5935 37.7771 14.9229C35.2425 18.0109 38.7211 36.7416 38.7211 36.7416C38.7211 36.7416 34.3771 44.6229 31.7998 49.4962C31.4078 50.4016 29.4238 55.8549 29.2238 56.8069C28.1918 61.7309 33.5398 61.0856 35.3158 61.7909Z" fill="#E4E6EC"/>
</g>
</g>
<path d="M41.9628 16.106C42.6188 16.6126 43.5041 16.8673 44.4575 16.8286C44.5495 16.8246 44.6415 16.818 44.7308 16.8086C45.7628 16.7073 46.7455 16.2766 47.5255 15.578C47.8188 15.3166 48.0801 15.018 48.3028 14.6926L48.3148 14.6766C48.2895 14.6673 48.2641 14.6593 48.2388 14.6513C47.8001 14.5033 47.3495 14.3126 46.8881 14.0593C45.3455 13.214 43.3028 13.4113 41.2401 13.822C41.1615 13.838 41.0681 13.8553 40.9615 13.874C40.9348 13.8793 40.9095 13.8833 40.8841 13.8886C40.8415 14.7073 41.2535 15.5566 41.9628 16.106Z" fill="#B7BCC5"/>
<path d="M47.8555 35.7701C48.0168 36.2968 49.3742 38.3728 51.4155 35.7848C51.8702 35.2088 52.3568 34.4061 52.8728 33.3021C54.4635 29.8981 55.0995 20.1341 55.1088 18.6368C55.1182 17.1408 55.0355 15.9888 52.8315 15.5461C52.7782 15.5355 52.7195 15.5288 52.6568 15.5301C52.6568 15.5328 52.6555 15.5301 52.6555 15.5301C52.0062 15.5368 50.8755 16.1568 50.2582 17.7141C48.7435 21.5501 48.0115 25.2248 47.7062 28.2595C47.6888 28.4328 47.6728 28.6061 47.6582 28.7741C47.3408 32.3941 47.6288 35.0181 47.8555 35.7701Z" fill="#F5F5F5"/>
<path d="M43.7376 24.3404C43.3803 21.6284 43.4016 18.8924 43.7883 16.031C43.487 16.0604 43.3376 16.0764 43.0363 16.1057C42.6483 18.967 42.6283 21.7017 42.9856 24.415L43.7376 24.3404Z" fill="#B7BCC5"/>
<path d="M40.9876 21.8612C41.1943 22.3585 41.2623 22.7465 41.0783 22.8732C40.7609 23.0919 40.4329 23.2985 40.0743 23.4385C39.8489 23.5265 39.2143 23.7759 38.9969 23.5705C38.3516 22.9639 37.5983 22.4812 37.0009 21.8225C36.2796 21.0265 36.1156 20.0412 35.8329 19.0305C35.8023 18.9225 35.7716 18.8119 35.7876 18.6999C35.8023 18.5879 35.8769 18.4759 35.9863 18.4505C36.1436 18.4145 36.2756 18.5585 36.3703 18.6865C36.4609 18.2785 36.4143 17.0625 37.0369 17.8825C37.3583 18.3052 37.4036 19.0532 37.5809 19.5479C37.7943 20.1425 38.3583 20.5585 38.9983 20.5799C38.9489 20.2332 38.8929 19.9972 38.6756 19.7012C38.5383 19.5119 38.3769 19.3332 38.3049 19.1105C38.2343 18.8865 38.2863 18.5999 38.4929 18.4839C38.8103 18.3065 40.4209 20.4959 40.9876 21.8612Z" fill="#F8B88D"/>
<path d="M38.0208 23.2675L46.6448 36.1382C46.7448 36.2702 46.8355 36.3928 46.9515 36.5035C47.8915 37.4515 49.4035 37.6195 50.5275 36.8342C50.9302 36.5528 51.2262 36.1902 51.4155 35.7848C51.8248 34.9168 51.7502 33.8488 51.1968 32.9475C50.5768 31.9395 49.6928 30.7368 48.6995 29.4848C48.3782 29.0795 48.0448 28.6688 47.7062 28.2595C44.6315 24.5355 41.0755 20.8102 41.0755 20.8102C41.0515 20.7808 40.8635 20.8862 40.5875 21.0715C39.6915 21.6688 37.8902 23.0875 38.0208 23.2675Z" fill="#F5F5F5"/>
<mask id="mask24_2_3365" style="mask-type:luminance" maskUnits="userSpaceOnUse" x="40" y="15" width="13" height="17">
<path d="M40.5876 15.5316H52.6557V31.2756H40.5876V15.5316Z" fill="white"/>
</mask>
<g mask="url(#mask24_2_3365)">
<mask id="mask25_2_3365" style="mask-type:luminance" maskUnits="userSpaceOnUse" x="40" y="15" width="13" height="17">
<path d="M40.5876 31.2756H52.6557V15.5316H40.5876V31.2756Z" fill="white"/>
</mask>
<g mask="url(#mask25_2_3365)">
<path d="M40.5873 21.0709C41.0593 21.8602 41.8913 22.6589 42.2673 23.1695C43.4033 24.7095 44.9126 25.7655 46.1926 27.1495C46.6406 27.6349 47.2046 28.1882 47.6579 28.7735C47.8966 29.0842 48.1033 29.4029 48.2459 29.7282C48.4646 30.2282 48.5979 30.7949 48.8793 31.2749C48.8166 30.6789 48.7566 30.0829 48.6993 29.4855C48.6433 28.9055 48.5873 28.3229 48.5299 27.7442C48.3526 25.9749 48.6566 23.8829 49.2273 22.2042C49.6113 21.0722 50.2793 20.0815 50.6246 18.9282C50.8539 18.1615 51.3593 17.5815 51.7433 16.8882C51.9766 16.4722 52.2286 15.8375 52.6553 15.5309C52.0059 15.5375 50.8753 16.1562 50.2579 17.7135C48.7433 21.5495 48.0113 25.2242 47.7059 28.2602C44.6313 24.5362 41.0753 20.8109 41.0753 20.8109C41.0526 20.7802 40.8633 20.8855 40.5873 21.0709Z" fill="#E4E6EC"/>
</g>
</g>
<path d="M46.3821 9.33785C46.3821 9.33785 46.2155 13.2138 47.1648 14.1872C47.1648 14.1872 46.4835 16.4605 44.1261 16.0965C42.6661 15.8698 42.2075 15.2645 42.2075 15.2645L41.6675 10.3912L46.3821 9.33785Z" fill="#E1A780"/>
<path d="M47.599 6.10084C47.599 6.10084 48.735 13.3088 42.6576 13.9235C41.039 14.0875 40.2283 12.7488 39.3216 10.4088C38.8003 9.0635 38.4923 6.58217 38.9643 4.62884C39.4896 2.45284 40.727 2.01551 42.383 1.85017C47.2243 1.37284 47.599 6.10084 47.599 6.10084Z" fill="#F8B88D"/>
<path d="M39.8828 3.60481C39.8828 3.60481 43.5948 6.68214 46.0108 6.08347C46.0108 6.08347 46.8015 8.96614 46.2655 10.6408C46.2655 10.6408 46.7188 10.3955 46.8148 9.29681C46.8548 8.85281 46.6655 8.04081 46.6281 7.40347C46.6281 7.40347 46.7321 6.92614 47.0708 6.83147C47.2361 6.78481 47.4095 6.88481 47.4628 7.04881C47.6055 7.47281 47.8428 8.50747 47.2015 9.42747C47.2015 9.42747 49.9615 7.95281 49.0268 5.03147C48.0921 2.11281 45.6241 -0.333858 42.5948 0.934142C42.5948 0.934142 41.0135 0.924808 39.8988 1.46881C38.2881 2.25547 37.2121 4.87281 38.7708 7.76747C38.7708 7.76747 39.0855 5.69147 39.8828 3.60481Z" fill="#333333"/>
<path d="M46.8131 9.05264C46.8131 9.05264 47.2051 13.6446 42.7771 14.0886C39.8797 14.3806 38.9211 8.93397 38.9211 8.93397C38.9211 8.93397 39.2437 9.46464 39.3864 9.92331C39.6491 10.7713 39.9877 13.6393 42.7851 13.39C44.6851 13.2193 45.6797 11.7566 46.2797 10.2206C46.5064 9.63931 46.3771 9.09531 46.8131 9.05264Z" fill="#333333"/>
</svg>
