<svg width="50" height="92" viewBox="0 0 50 92" fill="none" xmlns="http://www.w3.org/2000/svg">
<path d="M41.1588 72.0332C41.4708 70.8012 42.4922 70.0612 42.8202 69.3679C43.3162 68.3199 43.1295 66.8679 43.1295 66.8679C44.0348 67.6025 45.9175 67.1825 45.9175 67.1825C45.9175 67.1825 45.9722 68.6012 46.0188 69.1119C46.0548 69.5119 46.1015 69.7799 46.1015 70.3252C46.1015 70.3252 44.9828 71.8305 44.8815 72.1239C44.5908 72.9825 44.0695 73.1345 43.5068 73.3199C43.3402 73.3745 42.6575 73.4332 42.0348 73.2559C41.3042 73.0492 41.1575 72.0399 41.1588 72.0332Z" fill="#F8B88D"/>
<path d="M38.6751 14.4082C38.6751 14.4082 38.3911 13.1962 36.8164 13.0655C34.5284 12.8775 34.2124 24.5975 34.2458 22.9428C34.2458 22.9428 36.7924 25.1428 37.6551 23.5735C38.7284 21.6268 38.6751 14.4082 38.6751 14.4082Z" fill="#E1A780"/>
<path d="M27.1094 29.4224C26.2161 29.673 26.0361 30.3504 25.5734 30.497C25.1267 30.6384 24.6507 30.825 24.3067 30.817C23.9641 30.809 23.5067 30.681 23.2521 30.7904C23.0721 30.8677 22.7001 31.1677 22.6267 31.093C22.5521 31.017 22.5414 30.6717 22.8921 30.4144C23.2401 30.161 23.3001 30.1957 23.4934 30.1717C23.6881 30.149 23.9707 30.1837 23.8161 30.1144C23.6627 30.0437 23.2841 30.0117 22.7987 29.993C22.3134 29.973 22.1601 29.9397 22.1174 29.9504C22.0894 29.957 22.0081 30.0477 21.7507 30.2184C21.6041 30.3157 21.4227 30.4197 21.3614 30.4637C20.9587 30.757 20.7041 30.7117 20.5761 30.5944C20.4481 30.477 20.9734 30.0317 21.0294 29.969C21.0841 29.9077 21.8014 29.353 22.0481 29.2797C22.3654 29.1837 22.9067 29.185 23.4107 29.2077C23.6761 29.2197 23.9827 27.813 24.7894 27.717C25.5961 27.621 26.3307 27.7904 26.8014 27.7664C27.2734 27.741 27.7921 27.713 27.7921 27.713L27.9494 29.325C27.9494 29.325 27.4907 29.3144 27.1094 29.4224Z" fill="#E1A780"/>
<path d="M24.0085 28.6073C24.2978 28.8433 24.0951 29.2766 23.8191 29.3566C23.7978 29.3646 23.4071 29.3633 22.9445 29.3219C22.4591 29.2793 22.3058 29.2699 22.2631 29.2806C22.2351 29.2873 22.1925 29.4366 21.9805 29.6646C21.8578 29.7966 21.7045 29.9419 21.6551 29.9993C21.3271 30.3819 21.0725 30.3979 20.9245 30.3113C20.7778 30.2259 21.1925 29.6619 21.2325 29.5873C21.2725 29.5153 21.9471 28.6846 22.1938 28.6099C22.5111 28.5139 23.0525 28.5166 23.5565 28.5379C23.5911 28.5393 23.9125 28.5286 24.0085 28.6073Z" fill="#E1A780"/>
<path d="M25.1575 27.8327C25.4468 28.0673 25.2441 28.5007 24.9681 28.582C24.9455 28.5887 24.5548 28.5873 24.0935 28.5473C23.6081 28.5047 23.4548 28.4953 23.4121 28.506C23.3841 28.5127 23.3401 28.6607 23.1281 28.89C23.0068 29.022 22.8535 29.166 22.8041 29.2247C22.4761 29.6073 22.2215 29.622 22.0735 29.5367C21.9268 29.4513 22.3401 28.8873 22.3801 28.8127C22.4215 28.7393 23.0961 27.9087 23.3428 27.834C23.6588 27.7393 24.2015 27.7407 24.7055 27.762C24.7401 27.7633 25.0615 27.754 25.1575 27.8327Z" fill="#E1A780"/>
<path d="M24.4987 28.2336C24.788 28.4683 24.5853 28.9016 24.3093 28.9829C24.288 28.9896 23.896 28.9896 23.4347 28.9483C22.9493 28.9056 22.796 28.8963 22.7533 28.9069C22.7253 28.9136 22.6813 29.0616 22.4707 29.2909C22.348 29.4229 22.1947 29.5669 22.1453 29.6256C21.8173 30.0083 21.5627 30.0229 21.4147 29.9376C21.268 29.8523 21.6813 29.2883 21.7213 29.2136C21.7627 29.1403 22.4373 28.3096 22.684 28.2349C23 28.1403 23.5427 28.1416 24.0467 28.1629C24.0813 28.1643 24.4027 28.1549 24.4987 28.2336Z" fill="#E1A780"/>
<path d="M36.0122 25.0084C36.0122 25.0084 37.0362 22.2977 34.8095 21.7364C34.8095 21.7364 26.5069 27.6231 25.9255 28.2964C25.9255 28.2964 26.6815 29.7991 27.1469 29.6831C28.2682 29.4017 36.0122 25.0084 36.0122 25.0084Z" fill="#E1A780"/>
<path d="M42.9414 32.33C42.9414 32.33 37.224 27.386 35.0747 32.162C35.0747 32.162 35.0374 40.0367 35.2907 41.8287C35.5694 43.7993 35.4987 45.6153 35.6254 46.8927C35.7374 48.0233 36.5187 48.8633 37.44 48.8327C38.812 48.786 40.5854 48.406 40.8507 46.79C40.984 45.9727 41.7907 45.1393 41.9214 43.0473C42.0387 41.1633 43.144 38.5287 43.1507 36.75C43.16 34.4273 42.9414 32.33 42.9414 32.33Z" fill="#F8B88D"/>
<path d="M40.8978 46.1698C40.8978 46.1698 37.7551 43.1752 35.6258 46.8925C35.6018 46.6298 36.3645 61.4405 36.4951 63.8512C36.4951 63.8512 36.7765 64.5378 37.8765 64.5378C38.7325 64.5378 39.2605 63.7312 39.2605 63.7312C39.2605 63.7312 41.7298 49.4992 40.8978 46.1698Z" fill="#F8B88D"/>
<path d="M48.4414 33.3899C48.4414 33.3899 41.444 30.1326 39.296 35.2126C39.296 35.2126 40.7707 42.1699 41.024 44.0766C41.3027 46.1712 42.1547 48.1206 42.2814 49.4779C42.3934 50.6806 43.1747 51.5752 44.0947 51.5419C45.468 51.4926 47.2414 51.0872 47.5067 49.3672C47.64 48.5006 47.6027 47.6779 47.7334 45.4512C47.8507 43.4472 48.632 40.3939 48.6387 38.5006C48.6467 36.0299 48.4414 33.3899 48.4414 33.3899Z" fill="#F8B88D"/>
<path d="M39.261 63.7311L39.3464 66.9657C39.357 67.3364 39.1464 67.6817 38.8064 67.8311C38.589 67.9271 38.305 68.0364 37.9464 68.1457C37.229 68.3631 36.0584 68.5284 35.265 68.7844C34.4917 69.0351 33.6557 69.1737 33.0904 69.3311C32.681 69.4457 32.497 69.6364 32.181 69.5631C30.9384 69.2737 31.189 68.6311 31.189 68.6311C31.189 68.6311 31.4237 67.9137 32.269 67.4511C32.9557 67.0777 36.2424 64.7471 36.4957 63.8511C36.4957 63.8511 37.569 64.8257 39.261 63.7311Z" fill="#F8B88D"/>
<path d="M47.5533 48.7103C47.5533 48.7103 44.4106 45.5236 42.2813 49.4783C42.2573 49.1983 43.02 64.7449 43.1506 67.3103C43.1506 67.3103 42.9786 67.6769 44.4733 67.6769C45.5333 67.6769 45.9173 67.1823 45.9173 67.1823C45.9173 67.1823 48.3853 52.2503 47.5533 48.7103Z" fill="#F8B88D"/>
<path d="M43.7415 13.5852C43.7415 13.5852 47.7495 14.8878 49.0389 18.2425C49.0389 18.2425 48.3495 21.6892 47.8682 26.6638C47.7242 28.1505 48.4242 30.7385 48.7962 34.5398C50.0122 46.9585 49.5735 63.7998 49.5122 65.2412C49.4415 66.8838 45.8869 67.9132 43.2522 67.8398C37.3375 67.6758 34.2429 62.9985 34.2429 61.5732C34.2429 61.5732 34.5015 56.6305 34.6642 47.4972C34.7682 41.7238 33.4575 37.6598 34.6389 33.1732C34.8015 32.5558 27.1402 26.5265 28.2002 25.5905C31.3135 22.8398 33.4095 21.1012 34.2429 17.8158C34.7602 15.7812 35.6469 13.7145 35.6469 13.7145C35.9522 13.0372 36.9695 12.6438 38.3762 12.6052C42.6735 12.4865 43.7415 13.5852 43.7415 13.5852Z" fill="#E6E6E6"/>
<path d="M47.8684 59.2688C48.851 53.6115 47.095 37.4742 47.0777 32.7808C47.0604 28.0861 44.6857 21.7581 45.6417 18.8421C46.591 15.9448 48.9017 17.9608 48.9324 17.9861C48.9337 17.9901 48.935 17.9941 48.9364 17.9968C48.9457 18.0248 48.9777 18.1261 49.0297 18.2928C48.9457 18.7208 48.315 22.0275 47.8684 26.6635C47.7244 28.1501 48.4244 30.7395 48.7964 34.5395C50.0124 46.9595 49.5737 63.7995 49.511 65.2408C49.4697 66.2341 48.1777 67.0408 46.555 67.4608C46.555 67.4608 46.8857 64.9261 47.8684 59.2688Z" fill="#CBCCCC"/>
<path d="M43.7416 13.5852C43.7416 13.5852 47.6002 14.8398 48.9629 18.0572C49.0096 18.2065 49.0296 18.2918 49.0296 18.2918C48.9456 18.7212 45.9816 19.7665 46.3656 22.9985C46.2522 23.0092 43.4629 22.5052 40.9042 20.5412C38.3762 18.6012 38.3762 12.6052 38.3762 12.6052C42.6736 12.4865 43.7416 13.5852 43.7416 13.5852Z" fill="#F8B88D"/>
<path d="M35.5227 13.9472C35.5853 13.9365 35.6493 14.0819 35.892 15.2472C36.1427 16.4112 36.588 20.2539 37.5253 24.2979C38.008 26.3152 38.5267 28.6205 39.3333 30.8339C40.1267 33.0472 41.292 35.1485 42.764 36.6472C44.2213 38.1618 45.8587 39.0912 47.0693 39.6072C48.2867 40.1205 49.0773 40.2778 49.0653 40.3192C49.0627 40.3338 48.864 40.3058 48.504 40.2298C48.1467 40.1445 47.628 40.0085 47.0013 39.7712C45.7547 39.2992 44.0587 38.3965 42.5333 36.8725C40.992 35.3632 39.7667 33.2192 38.94 30.9792C38.0987 28.7365 37.5653 26.4205 37.0827 24.4019C36.1413 20.3485 35.7453 16.4872 35.576 15.3072C35.4133 14.1232 35.4627 13.9592 35.5227 13.9472Z" fill="#CBCCCC"/>
<path d="M34.8334 43.4212C34.8934 43.4012 34.9734 43.5225 35.3214 44.5399C35.492 45.0519 35.736 45.7825 36.0854 46.8319C36.4374 47.8799 36.888 49.2452 37.5347 51.0012C38.18 52.7545 38.9747 54.7265 39.9067 56.6465C40.8334 58.5665 41.908 60.4265 42.9907 61.9999C44.0734 63.5719 45.1614 64.8519 45.98 65.7265C46.8014 66.5999 47.336 67.0879 47.3107 67.1159C47.3 67.1279 47.156 67.0172 46.9014 66.8039C46.6427 66.5945 46.2867 66.2692 45.8534 65.8479C44.9894 65.0065 43.8534 63.7479 42.7267 62.1825C41.6 60.6199 40.4854 58.7585 39.5294 56.8305C38.568 54.9039 37.7574 52.9212 37.108 51.1585C36.456 49.3932 36.0174 48.0185 35.6867 46.9612C35.36 45.9025 35.1507 45.1599 35.0147 44.6372C34.7454 43.5945 34.7747 43.4412 34.8334 43.4212Z" fill="#CBCCCC"/>
<path d="M35.9635 17.7961C36.0261 17.7921 36.0688 17.8468 36.1155 18.2908C36.1581 18.7348 36.2115 20.3641 36.2275 21.9161C36.2448 23.4681 36.1861 25.4454 36.0608 27.0294C35.9368 28.6121 35.7688 29.8028 35.7088 29.7961C35.6435 29.7894 35.6995 28.5908 35.7395 27.0094C35.7808 25.4281 35.7901 23.4614 35.7715 21.9201C35.7555 20.3788 35.7555 18.7521 35.7941 18.3068C35.8288 17.8614 35.9008 17.8001 35.9635 17.7961Z" fill="#CBCCCC"/>
<path d="M49.039 18.2428C49.039 18.2428 48.6323 16.9188 46.2856 17.5388C44.311 18.0588 42.0776 21.3401 42.0776 21.3401L46.3656 22.9974C46.3656 22.9974 49.767 23.4281 49.039 18.2428Z" fill="#E1A780"/>
<path d="M49.0702 20.8105C49.0702 20.8105 50.2809 18.5732 48.2569 17.6865C46.0596 16.7252 40.4849 25.9999 40.4849 25.9999C40.4849 25.9999 40.3769 29.5892 42.1556 29.1039C45.5569 28.1745 49.0702 20.8105 49.0702 20.8105Z" fill="#F8B88D"/>
<path d="M33.5748 28.5332C32.6548 28.4585 32.3308 27.7852 31.8508 27.7305C31.4175 27.6812 30.9521 27.5972 30.6228 27.6532C30.5881 27.6972 30.5655 27.7585 30.5415 27.8025C30.4908 27.8932 30.4388 27.9812 30.3881 28.0692C30.3188 28.1932 30.1908 28.3332 30.1535 28.4718C30.2521 28.4518 30.3095 28.4465 30.2321 28.5065C30.0988 28.6145 29.7401 28.7278 29.2735 28.8518C29.1481 28.8852 29.0428 28.8932 28.9495 28.8838C28.7428 29.0852 28.5081 29.2505 28.2761 29.4212C28.4388 29.6065 28.6001 29.7492 28.7028 29.7598C29.0308 29.7918 29.5548 29.6745 30.0388 29.5452C30.2935 29.4758 30.8975 30.8878 31.7001 30.8158C32.5028 30.7438 33.1588 30.6732 33.6215 30.6012C34.0828 30.5265 34.6108 30.1798 34.6108 30.1798L34.4095 28.4558C34.4095 28.4558 33.9681 28.5638 33.5748 28.5332Z" fill="#F8B88D"/>
<path d="M30.9458 30.0592C31.1432 29.7499 30.8952 29.3392 30.6512 29.3139C30.6312 29.3125 30.3072 29.4005 29.9298 29.5445C29.5338 29.6979 29.4085 29.7419 29.3712 29.7405C29.3472 29.7392 29.2832 29.5912 29.0658 29.4005C28.9405 29.2899 28.7858 29.1712 28.7352 29.1219C28.3912 28.7925 28.1765 28.8339 28.0698 28.9565C27.9632 29.0792 28.4112 29.5779 28.4578 29.6445C28.5045 29.7139 29.2192 30.4352 29.4365 30.4592C29.7178 30.4872 30.1672 30.3659 30.5832 30.2325C30.6112 30.2232 30.8805 30.1619 30.9458 30.0592Z" fill="#F8B88D"/>
<path d="M32.043 30.6177C32.2403 30.3071 31.9923 29.8977 31.7483 29.8724C31.7283 29.8711 31.4043 29.9591 31.027 30.1031C30.631 30.2564 30.5057 30.3004 30.4683 30.2977C30.4443 30.2977 30.3803 30.1497 30.163 29.9577C30.0377 29.8484 29.883 29.7297 29.8323 29.6804C29.4883 29.3511 29.2737 29.3911 29.167 29.5137C29.0603 29.6364 29.5083 30.1351 29.555 30.2031C29.6017 30.2724 30.3163 30.9924 30.5337 31.0164C30.815 31.0457 31.2657 30.9244 31.6803 30.7911C31.7083 30.7817 31.9777 30.7204 32.043 30.6177Z" fill="#F8B88D"/>
<path d="M31.4219 30.3431C31.6192 30.0337 31.3712 29.6231 31.1272 29.5977C31.1072 29.5964 30.7832 29.6844 30.4059 29.8284C30.0099 29.9817 29.8846 30.0257 29.8472 30.0244C29.8232 30.0231 29.7592 29.8751 29.5419 29.6844C29.4166 29.5737 29.2619 29.4551 29.2112 29.4057C28.8672 29.0764 28.6526 29.1164 28.5459 29.2404C28.4392 29.3631 28.8872 29.8617 28.9339 29.9284C28.9806 29.9977 29.6952 30.7191 29.9126 30.7417C30.1939 30.7711 30.6432 30.6497 31.0592 30.5164C31.0872 30.5071 31.3566 30.4457 31.4219 30.3431Z" fill="#F8B88D"/>
<path d="M29.5312 27.304C29.5312 27.304 29.6485 26.8254 30.4485 27.1387C31.2498 27.452 31.0418 28.2374 31.0418 28.2374C31.0418 28.2374 31.7645 27.6094 30.5232 26.968C29.2845 26.328 29.3498 27.4267 29.3498 27.4267L29.5312 27.304Z" fill="#224A7C"/>
<path d="M27.5409 28.4303C27.4049 28.5009 28.1649 27.8783 29.2209 28.8849C29.2209 28.8849 29.1116 28.4649 28.4689 28.2569C27.8262 28.0489 27.5902 28.2236 27.5409 28.4303Z" fill="#1F4474"/>
<path d="M29.3125 28.9654C29.3125 28.9041 29.2698 28.8374 29.1992 28.7708C29.3525 29.3254 28.7458 29.3548 28.2632 29.2281C27.7778 29.1014 27.4352 28.7428 27.4858 28.4881C27.5098 28.3628 27.6032 28.2441 27.7605 28.1881H27.7165C27.3765 28.2028 27.1605 28.4921 27.1178 28.7068C27.0552 29.0334 27.4898 29.4921 28.1045 29.6548C28.7205 29.8174 29.3245 29.6668 29.3125 28.9654Z" fill="#224A7C"/>
<path d="M27.4655 28.2531L26.5815 26.6105L27.1482 26.4651L28.7549 28.3251C28.7549 28.3251 28.1429 27.9105 27.4655 28.2531Z" fill="#2A5B94"/>
<path d="M27.5722 28.1412L26.5815 26.6106L27.4522 28.2346C27.5162 28.1746 27.5722 28.1412 27.5722 28.1412Z" fill="#224A7C"/>
<path d="M28.3176 29.1516C27.8309 29.0223 27.4763 28.7569 27.5269 28.4983C27.5763 28.2396 27.8336 28.1036 28.3203 28.2329C28.8069 28.3609 29.2669 28.7023 29.2176 28.9596C29.1669 29.2183 28.8043 29.2809 28.3176 29.1516ZM28.3616 28.0849C27.8043 27.9383 27.3296 28.1796 27.2723 28.4703C27.2163 28.7623 27.6696 29.1356 28.2189 29.2823C28.7683 29.4276 29.2603 29.3089 29.3176 29.0169C29.3736 28.7263 28.9189 28.2316 28.3616 28.0849Z" fill="#2A5B94"/>
<path d="M26.5814 26.61L27.1481 26.466L27.4227 25.622L25.7734 23.122C25.6067 22.7527 25.2921 22.4713 24.9067 22.3487L26.5027 25.3113L26.5814 26.61Z" fill="#D1D1D1"/>
<path d="M26.5814 26.61L26.8294 26.546L26.5801 25.19L24.9067 22.3487L26.5027 25.3113L26.5814 26.61Z" fill="#BBBCBC"/>
<path d="M27.9303 25.8079L27.4036 26.0932L26.5143 25.7945L24.7223 23.5852C24.445 23.2719 24.2943 22.8705 24.309 22.4799L26.613 25.0572L27.9303 25.8079Z" fill="#D1D1D1"/>
<path d="M27.9303 25.8079L27.7943 25.8679L26.477 25.0665L24.309 22.4799L26.613 25.0572L27.9303 25.8079Z" fill="#BBBCBC"/>
<path d="M30.2518 28.0579C29.7931 27.8632 29.4718 27.4672 29.5345 27.1712C29.5985 26.8739 30.0225 26.7912 30.4825 26.9846C30.9425 27.1792 31.2625 27.5752 31.1985 27.8712C31.1358 28.1672 30.7118 28.2512 30.2518 28.0579ZM31.1251 27.4099C30.3691 26.5459 29.5931 26.7979 29.5931 26.7979C28.7598 26.7126 27.9305 25.8086 27.9305 25.8086L27.4038 26.0926L28.5478 27.1352C28.5478 27.1352 28.4665 27.0686 29.2625 27.7806C29.4065 27.9099 29.5785 28.0632 29.7851 28.2486C30.6678 29.0352 31.0745 28.5779 31.2505 28.1632C31.3585 27.9112 31.3065 27.6166 31.1251 27.4099Z" fill="#2A5B94"/>
<path d="M30.3041 28.2767C29.5747 28.0207 27.5054 26.038 27.5054 26.038L27.4041 26.0927L28.5481 27.1354C28.5481 27.1354 28.4667 27.0687 29.2627 27.7807C29.4067 27.91 29.5787 28.0634 29.7854 28.2487C30.6667 29.0354 31.0747 28.578 31.2507 28.1634C31.2787 28.098 31.2961 28.0287 31.3027 27.9607C31.3014 27.966 31.1707 28.5807 30.3041 28.2767Z" fill="#224A7C"/>
<path d="M27.0644 25.3144C27.0964 25.4957 26.9764 25.6691 26.7951 25.7011C26.6138 25.7331 26.4404 25.6131 26.4084 25.4317C26.3764 25.2504 26.4978 25.0771 26.6778 25.0451C26.8591 25.0117 27.0324 25.1331 27.0644 25.3144Z" fill="#224A7C"/>
<path d="M26.9843 25.2909C27.0123 25.4523 26.9057 25.6056 26.7457 25.6349C26.5843 25.6629 26.431 25.5549 26.4017 25.3949C26.3737 25.2336 26.4803 25.0803 26.6417 25.0509C26.8017 25.0229 26.9563 25.1309 26.9843 25.2909Z" fill="#2A5B94"/>
<path d="M28.9797 28.9002C28.833 28.8296 28.7237 28.7002 28.6223 28.5402C28.521 28.3829 28.4637 28.2149 28.4303 28.0869C28.301 27.5682 27.9597 27.8162 27.8837 27.9802C27.845 28.0602 27.9103 28.6336 27.9463 28.7136C27.9983 28.8296 28.0543 29.0896 28.5823 29.2056C28.7837 29.0562 28.921 29.1202 28.9797 28.9002Z" fill="#F8B88D"/>
<path d="M29.4133 28.2558C29.8053 28.4491 29.86 28.3664 30.052 28.3491C30.0746 28.3478 30.6226 28.1558 30.6853 27.8158C30.696 27.7531 30.676 27.6971 30.6226 27.6531C30.3306 27.7518 29.9026 27.8344 29.6786 27.7838C29.488 27.7411 29.0626 27.5064 29.0066 27.6011C28.9506 27.6944 29.016 28.0611 29.4133 28.2558Z" fill="#F8B88D"/>
<path d="M42.2291 29.2545C42.2291 29.2545 45.1251 27.3665 42.1824 25.6199C42.1824 25.6199 33.5557 28.3852 32.9597 28.5132C32.9597 28.5132 31.6011 29.9292 32.4211 30.4812C33.2411 31.0319 42.2291 29.2545 42.2291 29.2545Z" fill="#F8B88D"/>
<path d="M44.7142 9.65428C44.7142 9.65428 44.1542 13.5823 45.0235 14.6689C45.0235 14.6689 44.1008 16.9143 41.7382 16.3063C40.2742 15.9303 39.8675 15.2676 39.8675 15.2676L39.8088 10.2516L44.7142 9.65428Z" fill="#E1A780"/>
<path d="M46.6719 6.39386C46.6719 6.39386 46.7092 13.9339 40.4612 13.9472C38.7972 13.9512 38.1066 12.5072 37.4199 10.0339C37.0252 8.6112 36.9612 6.0552 37.6372 4.1152C38.3906 1.9512 40.0026 1.44053 41.7052 1.44053C46.6812 1.44053 46.6719 6.39386 46.6719 6.39386Z" fill="#F8B88D"/>
<path d="M37.4862 4.16597C37.4862 4.16597 39.3449 5.8953 43.3022 5.30863C43.3022 5.30863 45.3516 8.14463 44.8396 9.84863H45.1476C45.1476 9.84863 45.4036 7.66997 45.1582 6.44597C45.1582 6.44597 46.3036 6.26997 46.1449 7.69397C45.9396 9.52863 45.3529 9.4713 45.3529 9.4713C45.3529 9.4713 45.9489 10.0673 46.4156 8.54197C46.9876 6.6753 47.4862 1.41663 42.4169 0.977967C37.3462 0.537967 37.4862 4.16597 37.4862 4.16597Z" fill="#816757"/>
<path d="M43.3021 5.30917C43.3021 5.30917 45.3515 8.14517 44.8395 9.84784H45.1475C45.1475 9.84784 45.4048 7.67051 45.1595 6.44651C45.1595 6.44651 46.3035 6.27051 46.1448 7.69451C45.9395 9.52917 45.3541 9.47051 45.3541 9.47051C45.3541 9.47051 45.9488 10.0665 46.4155 8.54251C46.6381 7.81717 46.8488 6.57717 46.7248 5.30917C46.7248 5.30917 46.0861 4.78117 45.2955 4.78117C44.0048 4.78117 43.3021 5.30917 43.3021 5.30917Z" fill="#70584A"/>
<path d="M18.1581 54.649C17.6168 54.8997 17.0795 54.4304 17.2408 53.845L22.3208 34.9277C22.4515 34.4504 23.0101 34.233 23.3648 34.5224C23.5528 34.677 23.6288 34.9357 23.5608 35.1877L18.5928 54.129C18.5315 54.357 18.3701 54.5517 18.1581 54.649Z" fill="#C9CECF"/>
<path d="M24.0839 74.0644C23.8452 74.0417 23.6679 73.9297 23.6279 73.771L19.2812 56.4124L20.5039 56.1004L22.3452 55.631L24.9559 73.499C25.0012 73.8084 24.5386 74.103 24.0839 74.0644Z" fill="#C9CECF"/>
<path d="M21.0618 55.9576L24.5124 74.0069C24.7844 73.9109 24.9871 73.7082 24.9551 73.4989L22.3444 55.6309L21.0618 55.9576Z" fill="#A7ACAE"/>
<path d="M18.5917 89.6321C18.3664 89.5521 18.2224 89.4001 18.2224 89.2361L18.3011 71.3401H19.5624H21.4611L19.5771 89.3001C19.5451 89.6095 19.0224 89.7828 18.5917 89.6321Z" fill="#C9CECF"/>
<path d="M20.138 71.3404L19.022 89.683C19.3086 89.655 19.5553 89.5097 19.5766 89.3004L21.462 71.3404H20.138Z" fill="#A7ACAE"/>
<path d="M3.24532 80.4953C3.03599 80.378 2.91999 80.2033 2.94932 80.042L6.08265 62.4233L7.32665 62.638L9.19732 62.9633L4.27199 80.3367C4.18799 80.6353 3.64399 80.718 3.24532 80.4953Z" fill="#C9CECF"/>
<path d="M7.89386 62.7376L3.66052 80.6189C3.94852 80.6416 4.21519 80.5402 4.27252 80.3362L9.19786 62.9629L7.89386 62.7376Z" fill="#A7ACAE"/>
<path d="M35.2031 80.4486C34.9644 80.4272 34.7871 80.3139 34.7471 80.1566L30.4004 62.7966L31.6231 62.4846L33.4644 62.0166L36.0751 79.8832C36.1204 80.1926 35.6577 80.4886 35.2031 80.4486Z" fill="#C9CECF"/>
<path d="M32.1816 62.3431L35.6323 80.3911C35.9043 80.2951 36.1056 80.0937 36.075 79.8831L33.4643 62.0164L32.1816 62.3431Z" fill="#A7ACAE"/>
<path d="M18.4466 73.3053L5.95191 66.1613C4.70391 65.4466 4.37725 61.3746 5.28391 60.7613L18.3212 55.5919C18.9039 55.2466 19.6266 55.2426 20.2132 55.5813L33.1986 60.1919C34.4492 60.9146 34.2759 65.1173 33.4572 65.6026L20.3146 73.3013C19.7372 73.6359 19.0266 73.6373 18.4466 73.3053Z" fill="#4D4D4D"/>
<path d="M23.3653 34.5227C23.2599 34.4387 23.1386 34.3973 23.0146 34.3933L17.6479 54.6813C17.8013 54.7347 17.9786 54.732 18.1586 54.6493C18.3693 54.5507 18.5319 54.3573 18.5919 54.1293L23.5599 35.188C23.6293 34.936 23.5533 34.676 23.3653 34.5227Z" fill="#A7ACAE"/>
<path d="M18.5104 70.4042L6.01578 63.2602C4.76778 62.5442 4.75445 60.7496 5.99312 60.0176L18.3851 52.6896C18.9678 52.3456 19.6904 52.3416 20.2771 52.6802L32.8611 59.9442C34.1118 60.6669 34.1118 62.4722 32.8611 63.1936L20.3784 70.4002C19.8011 70.7336 19.0904 70.7349 18.5104 70.4042Z" fill="#646364"/>
<path d="M32.5962 65.4967C32.0562 65.7834 31.3869 64.8887 31.5456 64.2367L36.5736 43.1047C36.7056 42.57 37.2629 42.3234 37.6176 42.642C37.8056 42.81 37.8816 43.098 37.8149 43.3807L33.0296 64.914C32.9682 65.1687 32.5962 65.4967 32.5962 65.4967Z" fill="#C9CECF"/>
<path d="M32.5962 65.4967C32.5962 65.4967 32.9682 65.1687 33.0295 64.914L37.8149 43.3807C37.8815 43.098 37.8055 42.81 37.6175 42.642L32.3562 65.5487C32.4362 65.5527 32.5175 65.538 32.5962 65.4967Z" fill="#A7ACAE"/>
<path d="M35.7805 50.8262L34.5325 50.5102L21.2832 42.8462L22.2912 34.1275L23.5045 34.1328L37.8832 42.3675L35.7805 50.8262Z" fill="#4D4D4D"/>
<path d="M34.5326 50.5098L20.1539 42.2751L22.2913 34.1271L36.6699 42.3631L34.5326 50.5098Z" fill="#646364"/>
<path d="M7.48768 89.9303C7.81835 88.6276 8.89701 87.8476 9.24368 87.1143C9.76768 86.005 9.57035 84.4703 9.57035 84.4703C10.5277 85.2463 12.517 84.8036 12.517 84.8036C12.517 84.8036 12.5757 86.301 12.625 86.8423C12.6623 87.2663 12.7117 87.549 12.7117 88.125C12.7117 88.125 11.529 89.717 11.4237 90.0263C11.1143 90.9343 10.565 91.0943 9.97035 91.2903C9.79301 91.3463 9.07168 91.4103 8.41301 91.2236C7.64235 91.005 7.48635 89.937 7.48768 89.9303Z" fill="#F8B88D"/>
<path d="M18.2871 35.0422C18.2871 35.0422 17.9871 33.7596 16.3217 33.6222C13.9044 33.4222 13.5697 45.8102 13.6057 44.0636C13.6057 44.0636 16.2964 46.3876 17.2097 44.7302C18.3431 42.6716 18.2871 35.0422 18.2871 35.0422Z" fill="#E1A780"/>
<path d="M13.3665 53.0057C13.3665 53.9857 14.0039 54.3644 14.0212 54.8764C14.0359 55.371 14.0892 55.9097 13.9839 56.2564C13.8772 56.6044 13.6159 57.0337 13.6545 57.323C13.6812 57.5284 13.8785 57.991 13.7825 58.0457C13.6852 58.1004 13.3292 58.0124 13.1679 57.5817C13.0092 57.155 13.0625 57.103 13.0945 56.9004C13.1265 56.6964 13.2425 56.419 13.1279 56.555C13.0119 56.691 12.8705 57.067 12.7119 57.555C12.5532 58.043 12.4759 58.191 12.4745 58.2377C12.4732 58.267 12.5425 58.375 12.6425 58.6857C12.6999 58.8644 12.7545 59.079 12.7812 59.1524C12.9639 59.6457 12.8439 59.8937 12.6879 59.9897C12.5332 60.087 12.2292 59.4217 12.1825 59.3497C12.1359 59.275 11.7759 58.387 11.7719 58.115C11.7652 57.7644 11.9225 57.215 12.0892 56.707C12.1759 56.4404 10.8332 55.727 10.9679 54.8777C11.1012 54.031 11.4839 53.331 11.5932 52.8444C11.7025 52.359 11.8239 51.8217 11.8239 51.8217L13.5079 52.1244C13.5079 52.1244 13.3665 52.587 13.3665 53.0057Z" fill="#E1A780"/>
<path d="M11.6497 55.9277C11.9724 55.7011 12.3551 56.0304 12.3591 56.3357C12.3591 56.3597 12.2471 56.7571 12.0724 57.2157C11.8897 57.6971 11.8364 57.8504 11.8351 57.8971C11.8337 57.9264 11.9724 58.0131 12.1444 58.2944C12.2431 58.4557 12.3471 58.6544 12.3924 58.7211C12.6871 59.1637 12.6297 59.4277 12.5004 59.5544C12.3711 59.6784 11.9164 59.0957 11.8524 59.0331C11.7884 58.9717 11.1364 58.0477 11.1324 57.7757C11.1257 57.4251 11.2817 56.8744 11.4497 56.3677C11.4604 56.3331 11.5417 56.0037 11.6497 55.9277Z" fill="#E1A780"/>
<path d="M11.1901 54.5371C11.5127 54.3091 11.8954 54.6397 11.8994 54.9451C11.8994 54.9677 11.7874 55.3651 11.6127 55.8251C11.4301 56.3051 11.3767 56.4584 11.3754 56.5064C11.3741 56.5357 11.5127 56.6224 11.6847 56.9037C11.7834 57.0651 11.8874 57.2624 11.9314 57.3304C12.2274 57.7731 12.1701 58.0371 12.0407 58.1624C11.9114 58.2877 11.4567 57.7051 11.3927 57.6424C11.3287 57.5797 10.6767 56.6557 10.6714 56.3837C10.6661 56.0344 10.8221 55.4837 10.9901 54.9771C11.0007 54.9424 11.0821 54.6131 11.1901 54.5371Z" fill="#E1A780"/>
<path d="M11.4095 55.3223C11.7322 55.0956 12.1149 55.4249 12.1189 55.7303C12.1189 55.7529 12.0069 56.1516 11.8322 56.6103C11.6495 57.0903 11.5962 57.2449 11.5949 57.2916C11.5935 57.3209 11.7322 57.4076 11.9042 57.6889C12.0029 57.8503 12.1069 58.0489 12.1509 58.1156C12.4469 58.5583 12.3895 58.8223 12.2602 58.9476C12.1309 59.0729 11.6762 58.4903 11.6122 58.4276C11.5482 58.3649 10.8962 57.4409 10.8909 57.1703C10.8855 56.8196 11.0415 56.2689 11.2082 55.7623C11.2202 55.7276 11.3015 55.3983 11.4095 55.3223Z" fill="#E1A780"/>
<path d="M17.2097 44.1543C17.2097 44.1543 16.155 41.2783 13.987 42.3663C13.987 42.3663 11.4083 52.8103 11.4083 53.7516C11.4083 53.7516 13.0523 54.4316 13.3443 54.0169C14.0483 53.0169 17.2097 44.1543 17.2097 44.1543Z" fill="#E1A780"/>
<path d="M24.7206 61.0305C24.7206 61.0305 26.8166 53.3212 21.282 53.4572C21.282 53.4572 13.7606 57.0252 12.17 58.0865C10.4206 59.2532 8.65664 60.0158 7.49797 60.7212C6.47131 61.3438 6.02731 62.4745 6.47797 63.3358C7.14997 64.6238 8.32464 66.1398 9.98597 65.6532C10.826 65.4065 11.9886 65.7932 14.042 64.9612C15.8913 64.2118 18.906 64.0598 20.6046 63.2532C22.822 62.1985 24.7206 61.0305 24.7206 61.0305Z" fill="#E6AC83"/>
<path d="M11.8874 62.1139C11.8874 62.1139 8.7674 58.7499 6.27807 62.5312C6.27007 62.2526 6.1074 77.9272 6.0874 80.4792C6.0874 80.4792 6.3394 81.2232 7.4994 81.2952C8.4034 81.3512 9.01274 80.5339 9.01274 80.5339C9.01274 80.5339 12.5474 65.6806 11.8874 62.1139Z" fill="#E6AC83"/>
<path d="M28.3594 63.1855C28.3594 63.1855 29.2247 55.0735 23.4087 54.6615C23.4087 54.6615 16.954 58.5161 15.134 59.4228C13.134 60.4175 11.4767 61.9361 10.162 62.5281C8.99803 63.0495 8.37003 64.1388 8.71803 65.0468C9.2367 66.4041 10.2487 68.0401 12.058 67.7148C12.9727 67.5521 13.782 67.2335 16.054 66.6028C18.098 66.0361 21.4194 65.7721 23.3154 65.1321C25.7887 64.2948 28.3594 63.1855 28.3594 63.1855Z" fill="#F8B88D"/>
<path d="M9.01292 80.5344L8.89292 83.9518C8.87825 84.3424 8.63292 84.6931 8.26358 84.8304C8.02892 84.9171 7.72225 85.0131 7.33692 85.1051C6.56625 85.2864 5.31959 85.3851 4.46759 85.6038C3.63425 85.8171 2.74359 85.9091 2.13692 86.0398C1.69692 86.1331 1.49159 86.3211 1.16225 86.2238C-0.129748 85.8371 0.176919 85.1744 0.176919 85.1744C0.176919 85.1744 0.471585 84.4331 1.39292 84.0024C2.14359 83.6518 5.76225 81.4078 6.08759 80.4798C6.08759 80.4798 7.15692 81.5784 9.01292 80.5344Z" fill="#E6AC83"/>
<path d="M14.2474 63.8704C14.2474 63.8704 10.9247 60.5037 8.67405 64.6824C8.64871 64.3877 9.45538 80.8211 9.59405 83.5317C9.59405 83.5317 9.41271 83.9184 10.9914 83.9184C12.1114 83.9184 12.518 83.3984 12.518 83.3984C12.518 83.3984 15.126 67.6131 14.2474 63.8704Z" fill="#F8B88D"/>
<path d="M14.0208 54.8769C13.7528 55.8943 13.7208 56.3249 13.6554 57.3236C18.5488 60.3343 23.8874 63.1476 29.5474 64.2436C29.4141 61.5289 29.2314 58.8396 28.9861 56.3209C28.5914 52.3023 27.8528 49.5676 28.0048 47.9943C28.5128 42.7383 29.2421 39.0956 29.2421 39.0956C27.8794 35.5476 23.6421 34.1716 23.6421 34.1716C23.6421 34.1716 22.5128 33.0103 17.9714 33.1343C16.4848 33.1769 15.4101 33.5916 15.0848 34.3063C15.0848 34.3063 14.2141 36.5116 13.6034 38.6423C12.6061 42.1209 10.6501 49.1103 10.6714 52.8729C10.6808 54.3689 14.1928 54.2236 14.0208 54.8769Z" fill="#E6E6E6"/>
<path d="M23.6426 34.1712C23.6426 34.1712 27.7213 35.4979 29.1613 38.8992C29.2119 39.0552 29.2319 39.1459 29.2319 39.1459C29.1439 39.5992 26.0106 40.7045 26.4159 44.1219C26.2973 44.1325 23.3479 43.6005 20.6426 41.5245C17.9719 39.4725 17.9719 33.1352 17.9719 33.1352C22.5133 33.0099 23.6426 34.1712 23.6426 34.1712Z" fill="#F8B88D"/>
<path d="M29.2422 39.0956C29.2422 39.0956 28.8128 37.6942 26.3315 38.3489C24.2435 38.9009 25.6102 43.9542 25.6102 43.9542L26.4155 44.1222C26.4155 44.1222 30.0115 44.5742 29.2422 39.0956Z" fill="#E1A780"/>
<path d="M14.0208 54.8769C14.0208 54.8769 4.86614 59.6009 4.86614 61.9636C4.86614 64.8009 3.25281 79.6796 3.25281 79.6796C3.25281 79.6796 7.66081 87.1556 14.3088 86.0636L16.9688 68.7236C16.9688 68.7236 28.2261 69.8036 28.6715 59.5023C28.6715 59.5023 16.6315 54.4316 14.0208 54.8769Z" fill="#E6E6E6"/>
<path d="M14.955 34.554C15.0217 34.542 15.0884 34.694 15.3457 35.9273C15.611 37.158 16.0817 41.222 17.0724 45.494C17.5817 47.6273 18.131 50.0647 18.983 52.4047C19.8217 54.7433 21.0537 56.9647 22.6084 58.5487C24.1497 60.1487 25.8817 61.1327 27.159 61.6767C28.447 62.2193 29.2817 62.386 29.2697 62.43C29.267 62.446 29.0577 62.4153 28.6764 62.334C28.299 62.246 27.751 62.1007 27.0884 61.85C25.771 61.3513 23.9777 60.398 22.3657 58.7873C20.7364 57.1913 19.4404 54.9233 18.567 52.5567C17.6777 50.1873 17.115 47.7393 16.603 45.6047C15.6097 41.3193 15.191 37.2407 15.011 35.99C14.839 34.7407 14.891 34.566 14.955 34.554Z" fill="#CBCCCC"/>
<path d="M28.627 42.8169C27.987 43.1742 27.255 43.6049 26.415 44.1222C26.415 44.1222 29.0617 57.0849 25.7243 60.7342C22.387 64.3849 17.6003 61.4062 14.895 67.5249C12.4617 73.0276 12.183 83.9742 12.151 86.1276C12.8403 86.1996 13.5603 86.1849 14.3097 86.0636L16.9697 68.7236C16.9697 68.7236 24.747 69.4676 27.627 63.8036C28.263 63.9716 28.903 64.1196 29.547 64.2436C29.4137 61.5289 29.2323 58.8396 28.9857 56.3209C28.5923 52.3022 27.8523 49.5662 28.0043 47.9942C28.1977 45.9996 28.4217 44.2356 28.627 42.8169Z" fill="#CBCCCC"/>
<path d="M28.3898 60.3782C27.9325 61.2782 27.1711 61.3275 26.9178 61.7902C26.6711 62.2382 26.3711 62.7062 26.3071 63.0742C26.2431 63.4435 26.2818 63.9582 26.1111 64.2062C25.9911 64.3822 25.5938 64.7155 25.6578 64.8102C25.7218 64.9062 26.0885 64.9915 26.4378 64.6702C26.7818 64.3529 26.7565 64.2822 26.8231 64.0795C26.8885 63.8782 26.9111 63.5689 26.9538 63.7462C26.9965 63.9262 26.9498 64.3382 26.8685 64.8595C26.7858 65.3822 26.7885 65.5529 26.7685 65.5955C26.7551 65.6249 26.6418 65.6915 26.4058 65.9302C26.2698 66.0675 26.1205 66.2382 26.0605 66.2942C25.6631 66.6622 25.6565 66.9435 25.7538 67.1049C25.8525 67.2662 26.4405 66.7982 26.5178 66.7529C26.5951 66.7075 27.3391 66.0595 27.4711 65.8115C27.6405 65.4942 27.7525 64.9155 27.8351 64.3729C27.8791 64.0862 29.4458 64.0582 29.7191 63.2169C29.9911 62.3755 29.9658 61.5555 30.0925 61.0582C30.2191 60.5609 30.3591 60.0115 30.3591 60.0115L28.6711 59.5022C28.6711 59.5022 28.5845 59.9942 28.3898 60.3782Z" fill="#F8B88D"/>
<path d="M28.6028 63.8612C28.4135 63.5012 27.9082 63.6265 27.7615 63.9039C27.7495 63.9265 27.6682 64.3425 27.6148 64.8452C27.5575 65.3732 27.5348 65.5399 27.5148 65.5825C27.5015 65.6105 27.3335 65.6252 27.0442 65.8025C26.8788 65.9052 26.6908 66.0385 26.6188 66.0785C26.1402 66.3465 26.0708 66.6159 26.1308 66.7919C26.1908 66.9679 26.8802 66.6452 26.9682 66.6172C27.0548 66.5905 28.0855 66.0465 28.2162 65.7985C28.3855 65.4799 28.4988 64.9012 28.5815 64.3585C28.5882 64.3212 28.6655 63.9812 28.6028 63.8612Z" fill="#F8B88D"/>
<path d="M29.6737 62.7988C29.4844 62.4401 28.9791 62.5641 28.8324 62.8415C28.8204 62.8641 28.7391 63.2815 28.6857 63.7828C28.6284 64.3108 28.6057 64.4775 28.5857 64.5201C28.5724 64.5481 28.4044 64.5628 28.1151 64.7415C27.9497 64.8428 27.7617 64.9761 27.6897 65.0161C27.2111 65.2855 27.1417 65.5548 27.2017 65.7295C27.2617 65.9055 27.9511 65.5828 28.0391 65.5548C28.1257 65.5281 29.1564 64.9841 29.2871 64.7361C29.4564 64.4175 29.5697 63.8388 29.6524 63.2961C29.6577 63.2601 29.7364 62.9188 29.6737 62.7988Z" fill="#F8B88D"/>
<path d="M29.106 63.4172C28.9167 63.0572 28.4113 63.1826 28.2647 63.4599C28.2527 63.4826 28.1713 63.8986 28.118 64.4012C28.0607 64.9292 28.038 65.0959 28.018 65.1386C28.0047 65.1666 27.8367 65.1812 27.5473 65.3599C27.382 65.4612 27.194 65.5946 27.122 65.6346C26.6433 65.9026 26.574 66.1719 26.634 66.3479C26.694 66.5239 27.3833 66.2012 27.4713 66.1732C27.558 66.1466 28.5887 65.6026 28.7193 65.3546C28.8887 65.0359 29.002 64.4572 29.0847 63.9146C29.0913 63.8786 29.1687 63.5372 29.106 63.4172Z" fill="#F8B88D"/>
<path d="M32.0097 50.9107C32.0097 50.9107 31.0723 47.1601 28.3203 49.8347C28.3203 49.8347 28.2217 60.1227 28.1523 60.8134C28.1523 60.8134 29.1283 62.7361 29.9603 62.0107C30.791 61.2867 32.0097 50.9107 32.0097 50.9107Z" fill="#F8B88D"/>
<path d="M24.6706 30.0162C24.6706 30.0162 24.0786 34.1682 24.9972 35.3176C24.9972 35.3176 24.0226 37.6896 21.5252 37.0469C19.9772 36.6509 19.5479 35.9482 19.5479 35.9482L19.4866 30.6482L24.6706 30.0162Z" fill="#E1A780"/>
<path d="M26.3242 26.662C26.3242 26.662 26.7802 34.5393 20.1749 34.554C18.4149 34.558 17.6869 33.0313 16.9602 30.418C16.5429 28.9127 16.4749 26.2113 17.1895 24.1607C17.9869 21.874 19.3642 21.5353 21.1629 21.5353C26.4242 21.5353 26.3242 26.662 26.3242 26.662Z" fill="#F8B88D"/>
<path d="M25.1405 30.0162C25.1405 30.0162 25.0739 34.9682 20.2925 34.9749C17.1645 34.9802 16.7152 29.0562 16.7152 29.0562C16.7152 29.0562 17.0032 29.6549 17.1085 30.1629C17.3005 31.0989 17.3579 34.2002 20.3765 34.2269C22.4245 34.2469 23.6432 32.7882 24.4459 31.2109C24.7512 30.6109 24.6699 30.0162 25.1405 30.0162Z" fill="#333333"/>
<path d="M18.2877 23.1556C18.2877 23.1556 21.9544 26.8596 24.617 26.4743C24.617 26.4743 25.161 29.6596 24.4064 31.405C24.4064 31.405 24.9197 31.189 25.141 30.017C25.2304 29.5436 25.1144 28.6503 25.141 27.961C25.141 27.961 25.3037 27.4596 25.6784 27.3916C25.861 27.3583 26.0357 27.4863 26.077 27.6676C26.185 28.1396 26.3317 29.277 25.5424 30.1996C25.5424 30.1996 28.0317 29.1223 27.337 25.8796C26.6424 22.6383 24.8837 19.7383 21.489 20.781C21.489 20.781 19.833 20.6356 18.5757 21.1036C16.7597 21.7783 15.2784 24.237 16.649 27.517C16.649 27.517 17.2077 25.317 18.2877 23.1556Z" fill="#333333"/>
<path d="M15.4206 38.6229C15.4872 38.6189 15.5326 38.6763 15.5819 39.1456C15.6272 39.6136 15.6819 41.3363 15.6992 42.9776C15.7192 44.6176 15.6552 46.7069 15.5232 48.3816C15.3926 50.0563 15.2152 51.3136 15.1512 51.3069C15.0832 51.2989 15.1419 50.0336 15.1832 48.3616C15.2286 46.6883 15.2366 44.6109 15.2192 42.9816C15.2006 41.3509 15.2006 39.6323 15.2419 39.1616C15.2792 38.6909 15.3539 38.6256 15.4206 38.6229Z" fill="#CBCCCC"/>
<path d="M18.0474 59.4355C18.0088 59.3701 17.8621 59.4008 16.8968 59.9301C16.4141 60.1955 15.7274 60.5861 14.7461 61.1541C14.2568 61.4381 13.6928 61.7648 13.0434 62.1408C12.7194 62.3315 12.3741 62.5328 12.0048 62.7475C11.8954 62.8261 11.7808 62.9088 11.7034 63.0008C11.6101 63.0888 11.5394 63.1848 11.4648 63.2808C11.3168 63.4728 11.1874 63.6795 11.0621 63.8928C10.5688 64.7488 10.1581 65.6995 9.79544 66.7128C9.70477 66.9661 9.62077 67.2261 9.54611 67.4941C9.50744 67.6315 9.47544 67.7661 9.44477 67.8955L9.35144 68.2901C9.22611 68.8181 9.10077 69.3515 8.97411 69.8861C8.46611 72.0195 8.01144 74.1941 7.76744 76.1541C7.51277 78.1141 7.42211 79.8448 7.38477 81.0795C7.36477 81.6981 7.36611 82.1928 7.37144 82.5341C7.37544 82.8755 7.38611 83.0621 7.40611 83.0621C7.42477 83.0621 7.45011 82.8768 7.48077 82.5381C7.50877 82.1968 7.54877 81.7048 7.59944 81.0901C7.70077 79.8608 7.85011 78.1435 8.15144 76.2075C8.44211 74.2688 8.93277 72.1288 9.46611 70.0021C9.59811 69.4701 9.73011 68.9395 9.86077 68.4115C9.92744 68.1528 9.98877 67.8755 10.0568 67.6341C10.1301 67.3861 10.2128 67.1368 10.3008 66.8928C10.6594 65.9128 11.0701 64.9755 11.5354 64.1688C11.6528 63.9688 11.7728 63.7795 11.8994 63.6128C11.9634 63.5301 12.0261 63.4475 12.0928 63.3835C12.1581 63.3061 12.2234 63.2675 12.2848 63.2168C12.6501 63.0008 12.9928 62.7968 13.3154 62.6061C13.9581 62.2181 14.5168 61.8821 15.0008 61.5901C15.9674 60.9995 16.6354 60.5741 17.0928 60.2661C18.0088 59.6488 18.0861 59.5008 18.0474 59.4355Z" fill="#D2D3D2"/>
<path d="M29.2421 39.0956C29.2421 39.0956 28.3435 37.1623 26.3315 38.3489C24.1488 39.6369 28.5568 50.4316 28.5568 50.4316C28.5568 50.4316 31.6701 52.6649 32.0101 50.7449C32.4301 48.3623 29.2421 39.0956 29.2421 39.0956Z" fill="#F8B88D"/>
<path d="M25.9036 22.7154C25.9036 22.7154 27.6916 23.3754 28.0423 24.7314C28.0423 24.7314 26.4316 23.1848 25.4343 23.2434C24.4383 23.3008 25.9036 22.7154 25.9036 22.7154Z" fill="#333333"/>
<path d="M25.8665 25.0735C25.8665 25.0735 26.8558 24.8775 27.6465 25.2948L25.8665 25.4708V25.0735Z" fill="#333333"/>
<path d="M21.3639 20.7727C21.3639 20.7727 23.0092 19.294 25.5145 20.942C25.5145 20.942 22.0359 20.766 21.4892 21.1394C20.9425 21.514 21.3639 20.7727 21.3639 20.7727Z" fill="#333333"/>
<path d="M27.5976 27.119C27.5496 27.1377 27.5283 27.1617 27.5856 27.2617C27.6376 27.363 27.7816 27.5364 27.9469 27.8857C28.1189 28.235 28.2149 28.7004 28.1896 29.0777C28.1696 29.4537 28.0696 29.7364 28.1269 29.7484C28.1763 29.7577 28.3789 29.4884 28.4763 29.091C28.5789 28.6964 28.5203 28.1804 28.3349 27.8044C28.1536 27.4244 27.9589 27.2524 27.8376 27.1697C27.7123 27.0897 27.6469 27.099 27.5976 27.119Z" fill="#333333"/>
<path d="M26.2948 35.1543C26.2161 35.1369 26.2028 35.1703 26.0748 35.6223C26.0081 35.8476 25.9121 36.1289 25.8308 36.3569C25.7508 36.5849 25.6881 36.7596 25.7228 36.7769C25.7561 36.7929 25.8801 36.6476 26.0094 36.4329C26.1388 36.2196 26.3321 36.0663 26.4014 35.8316C26.5348 35.3596 26.3641 35.1689 26.2948 35.1543Z" fill="#333333"/>
<path d="M27.1308 30.0149C27.0628 29.9829 27.0162 30.0322 26.6362 30.8256C26.2562 31.6202 25.6868 32.8589 25.7548 32.8909C25.8242 32.9242 26.4535 32.2442 26.8335 31.4496C27.2135 30.6549 27.1988 30.0469 27.1308 30.0149Z" fill="#333333"/>
<path d="M24.9022 36.0045C24.8396 35.9698 24.7862 35.9938 24.4796 36.5858C24.3276 36.8818 24.1542 37.2685 24.0409 37.5898C23.9262 37.9125 23.8649 38.1618 23.9009 38.1751C23.9369 38.1871 24.0622 37.9605 24.2209 37.6631C24.3782 37.3658 24.6836 37.0685 24.8316 36.7778C25.1316 36.1991 24.9716 36.0445 24.9022 36.0045Z" fill="#333333"/>
<path d="M27.4271 32.3638C27.3524 32.3492 27.3244 32.3865 27.2084 32.9332C27.0937 33.4812 26.9337 34.3332 27.0084 34.3492C27.0804 34.3678 27.3604 33.5398 27.4777 32.9878C27.5937 32.4372 27.5017 32.3772 27.4271 32.3638Z" fill="#333333"/>
</svg>
