<svg width="99" height="76" viewBox="0 0 99 76" fill="none" xmlns="http://www.w3.org/2000/svg">
<path d="M95.5012 65.4849C92.1852 67.3996 86.8065 67.3996 83.4905 65.4849C80.1745 63.5689 80.1745 60.4649 83.4905 58.5502C86.8065 56.6356 92.1852 56.6356 95.5012 58.5502C98.8172 60.4649 98.8172 63.5689 95.5012 65.4849Z" fill="#916B3F"/>
<path d="M89.496 50.9458L84.7146 53.0845L81.4453 60.5712L82.4506 62.0178L97.932 62.5698V59.3752L96.0946 55.3498L93.1786 53.5872L89.496 50.9458Z" fill="#916B3F"/>
<path d="M89.1223 53.0852L86.0983 54.9718V57.1132L89.1223 53.0852Z" fill="#4F3B2C"/>
<path d="M82.1405 64.4694L81.0032 65.9187L83.8352 67.6787L86.0992 66.0734L82.1405 64.4694Z" fill="#634F40"/>
<path d="M81.004 65.9185L82.4507 63.7799L83.8347 67.6785L81.004 65.9185Z" fill="#4F3B2C"/>
<path d="M90.5339 66.0735L93.1779 67.6788H96.5899L98.8059 65.0375L97.9326 62.0175L90.5339 66.0735Z" fill="#916B3F"/>
<path d="M89.1223 62.2557L90.5343 59.3757L93.5396 60.1303L89.689 57.1143L89.1223 62.2557Z" fill="#4F3B2C"/>
<path d="M82.0261 59.6855L83.8341 60.6335L86.0995 62.0175V59.2495H82.4875" fill="#4F3B2C"/>
<path d="M95.4127 54.9367L92.186 55.0994L95.4127 57.1141V54.9367Z" fill="#7F6D5D"/>
<path d="M89.496 50.9458L90.5333 54.9365L92.6826 57.1138L95.2173 59.6858L96.0946 61.0752L98.8053 65.0365L97.932 62.0178V59.3752L96.0946 55.3498L89.496 50.9458Z" fill="#544030"/>
<path d="M85.6536 66.3899L87.6109 63.7792H91.7602V66.9205L89.1229 68.6859L85.6536 66.3899Z" fill="#544030"/>
<path d="M82.7394 69.3379C76.4821 72.9499 66.3367 72.9499 60.0807 69.3379C53.8234 65.7245 53.8234 59.8672 60.0794 56.2539C66.3367 52.6432 76.4821 52.6432 82.7394 56.2539C88.9954 59.8672 88.9967 65.7245 82.7394 69.3379Z" fill="#916B3F"/>
<path d="M71.4101 41.9068L62.3888 45.9428L56.2181 60.0655L58.1168 62.7961L87.3275 63.8375V57.8121L83.8608 50.2148L78.3555 46.8921L71.4101 41.9068Z" fill="#916B3F"/>
<path d="M70.7044 45.9433L65.0017 49.5033V53.5447L70.7044 45.9433Z" fill="#4F3B2C"/>
<path d="M57.5325 67.4212L55.3872 70.1545L60.7272 73.4772L65.0019 70.4492L57.5325 67.4212Z" fill="#916B3F"/>
<path d="M55.3867 70.1543L58.1174 66.1196L60.7281 73.4769L55.3867 70.1543Z" fill="#4F3B2C"/>
<path d="M73.3672 70.4498L78.3552 73.4778H84.7925L88.9752 68.4925L87.3272 62.7965L73.3672 70.4498Z" fill="#916B3F"/>
<path d="M88.9751 68.4928L83.2898 60.1861L84.7925 73.4768L88.9751 68.4928Z" fill="#4F3B2C"/>
<path d="M70.7043 63.2453L73.367 57.812L79.039 59.2346L71.7737 53.5453L70.7043 63.2453Z" fill="#4F3B2C"/>
<path d="M57.3164 58.3951L60.7284 60.1857L65.0017 62.7964V57.5737H58.1857" fill="#4F3B2C"/>
<path d="M82.5715 49.4381L76.4849 49.7434L82.5715 53.5447V49.4381Z" fill="#7F6D5D"/>
<path d="M71.4102 41.9068L73.3675 49.4375L77.4208 53.5455L82.2035 58.3948L83.8608 61.0175L88.9755 68.4921L87.3275 62.7961V57.8121L83.8608 50.2148L71.4102 41.9068Z" fill="#544030"/>
<path d="M64.1588 71.0461L67.8535 66.1194H75.6828V72.0461L70.7041 75.3768L64.1588 71.0461Z" fill="#544030"/>
<path d="M4.12109 27.8483C7.91976 30.0416 14.0798 30.0416 17.8771 27.8483C21.6771 25.6536 21.6771 22.099 17.8784 19.9056C14.0798 17.711 7.92109 17.711 4.12109 19.9056C0.322428 22.099 0.322428 25.6536 4.12109 27.8483Z" fill="#916B3F"/>
<path d="M11.0002 11.1945L16.4762 13.6438L20.2228 22.2198L19.0708 23.8771L1.33618 24.5078V20.8491L3.44018 16.2385L6.78285 14.2211L11.0002 11.1945Z" fill="#916B3F"/>
<path d="M11.4282 13.6439L14.8909 15.8052V18.2599L11.4282 13.6439Z" fill="#4F3B2C"/>
<path d="M19.4258 26.6841L20.7284 28.3441L17.4844 30.3615L14.8911 28.5228L19.4258 26.6841Z" fill="#634F40"/>
<path d="M20.7276 28.3444L19.0703 25.8937L17.4836 30.3617L20.7276 28.3444Z" fill="#4F3B2C"/>
<path d="M9.81108 28.5227L6.78308 30.3613H2.87375L0.335083 27.3347L1.33642 23.8773L9.81108 28.5227Z" fill="#916B3F"/>
<path d="M11.4283 24.149L9.81094 20.849L6.36694 21.7144L10.7789 18.2597L11.4283 24.149Z" fill="#4F3B2C"/>
<path d="M19.556 21.205L17.484 22.2903L14.8906 23.877V20.7063H19.028" fill="#4F3B2C"/>
<path d="M4.22266 15.7662L7.91866 15.9529L4.22266 18.2596V15.7662Z" fill="#7F6D5D"/>
<path d="M11.0002 11.1945L9.81084 15.7665L7.35084 18.2599L4.44684 21.2052L3.44017 22.7959L0.334839 27.3345L1.33617 23.8772V20.8492L3.44017 16.2385L11.0002 11.1945Z" fill="#544030"/>
<path d="M15.4009 28.8847L13.1582 25.894H8.40491V29.4927L11.4289 31.5153L15.4009 28.8847Z" fill="#544030"/>
<path d="M18.7394 32.2611C25.9061 36.3997 37.5274 36.3997 44.6941 32.2611C51.8621 28.1224 51.8621 21.4131 44.6941 17.2757C37.5274 13.1371 25.9061 13.1371 18.7394 17.2757C11.5714 21.4131 11.5714 28.1224 18.7394 32.2611Z" fill="#916B3F"/>
<path d="M31.7173 0.841048L42.0493 5.46238L49.1173 21.6397L46.9427 24.7677L13.484 25.9597V19.0584L17.456 10.357L23.76 6.55172L31.7173 0.841048Z" fill="#916B3F"/>
<path d="M32.5247 5.46279L39.058 9.54279V14.1721L32.5247 5.46279Z" fill="#4F3B2C"/>
<path d="M47.6134 30.0657L50.0707 33.1977L43.952 37.0031L39.0587 33.5351L47.6134 30.0657Z" fill="#916B3F"/>
<path d="M50.0703 33.1972L46.9423 28.5745L43.9517 37.0025L50.0703 33.1972Z" fill="#4F3B2C"/>
<path d="M29.4752 33.5344L23.7606 37.0037H16.3872L11.5966 31.2931L13.4846 24.7677L29.4752 33.5344Z" fill="#916B3F"/>
<path d="M11.5962 31.2936L18.1082 21.7763L16.3869 37.0029L11.5962 31.2936Z" fill="#4F3B2C"/>
<path d="M32.5247 25.2819L29.4754 19.0579L22.978 20.6899L31.3007 14.1725L32.5247 25.2819Z" fill="#4F3B2C"/>
<path d="M47.8606 19.7272L43.9513 21.7765L39.058 24.7672V18.7858H46.8633" fill="#4F3B2C"/>
<path d="M18.9309 9.46666L25.9029 9.81733L18.9309 14.172V9.46666Z" fill="#7F6D5D"/>
<path d="M31.7173 0.841031L29.4746 9.46636L24.8319 14.173L19.3546 19.7277L17.4559 22.7304L11.5959 31.293L13.4839 24.7677V19.0584L17.4559 10.357L31.7173 0.841031Z" fill="#544030"/>
<path d="M40.0223 34.218L35.7916 28.5753H26.8236V35.3633L32.5249 39.1793L40.0223 34.218Z" fill="#544030"/>
<path d="M56.5846 42.7076L57.9712 41.9889L52.0379 38.5209L51.3899 39.6542L56.5846 42.7076Z" fill="white"/>
<path d="M55.1536 38.4198L50.7762 40.9478L49.8282 37.8718L55.1536 38.4198Z" fill="white"/>
<path d="M51.9882 49.6595L52.6349 48.5262L45.7442 44.6315L44.3616 45.3488L51.9882 49.6595Z" fill="white"/>
<path d="M53.9389 47.145L48.6069 50.2237L55.8523 51.3277L53.9389 47.145Z" fill="white"/>
</svg>
